<svg xmlns="http://www.w3.org/2000/svg" width="80" height="80" viewBox="0 0 80 80">
  <g id="Media_Icon" data-name="Media Icon" transform="translate(-10648 -1090)">
    <g id="Rectangle_721" data-name="Rectangle 721" transform="translate(10648 1090)" fill="#fff" stroke="#000" stroke-width="2">
      <rect width="80" height="80" rx="7" stroke="none"/>
      <rect x="1.5" y="1.5" width="77" height="77" rx="5.5" fill="none"/>
    </g>
    <g id="Group_3414" data-name="Group 3414" transform="translate(10655.632 1107.152)">
      <g id="Rectangle_722" data-name="Rectangle 722" transform="translate(0.369 -0.152)" fill="#fff" stroke="#f4263e" stroke-width="2.5">
        <rect width="65" height="46" rx="12" stroke="none"/>
        <rect x="1.25" y="1.25" width="62.5" height="43.5" rx="10.75" fill="none"/>
      </g>
      <g id="Group_3413" data-name="Group 3413" transform="translate(22.368 10.848)">
        <path id="Path_9633" data-name="Path 9633" d="M48.843,31.921,30.435,21.3a1.5,1.5,0,0,0-1.545,0,1.539,1.539,0,0,0-.78,1.338V43.88a1.539,1.539,0,0,0,.78,1.338,1.493,1.493,0,0,0,.764.207,1.508,1.508,0,0,0,.78-.207L48.843,34.6a1.553,1.553,0,0,0,0-2.675ZM31.2,41.189V25.3l13.774,7.946Z" transform="translate(-28.11 -21.085)" fill="#f4263e"/>
        <path id="Path_9636" data-name="Path 9636" d="M44.726,32.2,30.05,40.663V23.73Z" transform="translate(-27.412 -20.039)" fill="#f4263e"/>
      </g>
    </g>
  </g>
</svg>
