<svg width="19" height="17" viewBox="0 0 19 17" fill="none" xmlns="http://www.w3.org/2000/svg">
<path d="M1.05227 4.92061L8.54992 2.65411L8.5546 2.65267L17.1293 0.0605884C17.3471 -0.00525641 17.5767 -0.0176335 17.8 0.0244371C18.0232 0.0665078 18.2339 0.16187 18.4154 0.302973C18.5969 0.444076 18.7443 0.627043 18.8457 0.837383C18.9472 1.04772 19 1.27966 19 1.51482V14.643C18.9997 15.044 18.8462 15.4286 18.5731 15.7127C18.3 15.9968 17.9295 16.1572 17.5426 16.159C17.4026 16.1588 17.2635 16.138 17.1292 16.0972L9.49946 13.7908V14.8955C9.49902 15.2971 9.3449 15.6821 9.0709 15.9661C8.79691 16.2501 8.42542 16.4098 8.03793 16.4103H5.11485C4.72736 16.4098 4.35587 16.2501 4.08188 15.9661C3.80788 15.6821 3.65375 15.2971 3.65331 14.8955V12.0235L1.05235 11.2373C0.749388 11.1444 0.483383 10.9527 0.293814 10.6908C0.104244 10.4288 0.00121117 10.1105 0 9.78304V6.37475C0.00119781 6.04732 0.104218 5.72901 0.293772 5.46706C0.483328 5.20511 0.749315 5.01348 1.05227 4.92061ZM5.11485 14.8955H8.03793V13.349L5.11485 12.4654V14.8955ZM1.46154 9.78304L4.5996 10.7316L4.60219 10.7324L8.03793 11.771V4.38673L1.46154 6.37475V9.78304Z" fill="white"/>
</svg>
