<svg width="20" height="17" viewBox="0 0 20 17" fill="none" xmlns="http://www.w3.org/2000/svg">
<path d="M1.55227 4.92061L9.04992 2.65411L9.0546 2.65267L17.6293 0.0605884C17.8471 -0.00525641 18.0767 -0.0176335 18.3 0.0244371C18.5232 0.0665078 18.7339 0.16187 18.9154 0.302973C19.0969 0.444076 19.2443 0.627043 19.3457 0.837383C19.4472 1.04772 19.5 1.27966 19.5 1.51482V14.643C19.4997 15.044 19.3462 15.4286 19.0731 15.7127C18.8 15.9968 18.4295 16.1572 18.0426 16.159C17.9026 16.1588 17.7635 16.138 17.6292 16.0972L9.99946 13.7908V14.8955C9.99902 15.2971 9.8449 15.6821 9.5709 15.9661C9.29691 16.2501 8.92542 16.4098 8.53793 16.4103H5.61485C5.22736 16.4098 4.85587 16.2501 4.58188 15.9661C4.30788 15.6821 4.15375 15.2971 4.15331 14.8955V12.0235L1.55235 11.2373C1.24939 11.1444 0.983383 10.9527 0.793814 10.6908C0.604244 10.4288 0.501211 10.1105 0.5 9.78304V6.37475C0.501198 6.04732 0.604218 5.72901 0.793772 5.46706C0.983328 5.20511 1.24932 5.01348 1.55227 4.92061ZM5.61485 14.8955H8.53793V13.349L5.61485 12.4654V14.8955ZM1.96154 9.78304L5.0996 10.7316L5.10219 10.7324L8.53793 11.771V4.38673L1.96154 6.37475V9.78304Z" fill="#444444" fill-opacity="0.5"/>
</svg>
