<svg width="89" height="87" viewBox="0 0 89 87" fill="none" xmlns="http://www.w3.org/2000/svg">
<ellipse cx="59.0112" cy="32.9034" rx="29.9888" ry="30" fill="#E8E8E8" fill-opacity="0.5"/>
<path d="M9.93489 37.1427C9.93489 55.1634 5.82044 60.6697 3.31163 62.2716C1.20423 63.6732 0 66.076 0 68.4787C0 72.6835 3.41198 75.9873 7.52644 75.9873H25.0881V76.1876C25.9913 82.3947 31.31 87 37.5318 87C43.7537 87 49.0724 82.3947 49.9755 76.2877V76.0875H65.5302C69.6446 76.0875 73.0566 72.6835 73.0566 68.5788C73.0566 66.076 71.8524 63.7733 69.745 62.3717C67.2362 60.6697 63.1217 55.1634 63.1217 37.2428C63.1217 20.4235 52.8858 13.7158 45.3593 10.9125C45.4597 10.3119 45.56 9.61105 45.56 9.01036C45.56 4.0046 41.5459 0 36.5283 0C31.5107 0 27.4966 4.0046 27.4966 9.01036C27.4966 9.61105 27.5969 10.3119 27.6973 10.9125C20.1708 13.5155 9.93489 20.3234 9.93489 37.1427ZM37.5318 82.9954C34.1198 82.9954 31.1093 80.9931 29.8047 77.9896H45.3593C43.9544 80.9931 40.9438 82.9954 37.5318 82.9954ZM36.5283 3.90449C39.3382 3.90449 41.5459 6.10702 41.5459 8.91024C41.5459 9.21059 41.5459 9.41082 41.4456 9.71116C37.3311 8.81013 33.5177 9.3107 31.5107 9.71116C31.5107 9.41082 31.4103 9.21059 31.4103 8.91024C31.5107 6.10702 33.7184 3.90449 36.5283 3.90449ZM31.2096 13.916H31.31C31.31 13.916 33.5177 13.2152 36.6287 13.2152C38.2343 13.2152 39.9403 13.4154 41.847 14.0161H41.9473C49.7748 16.2186 59.208 22.0253 59.208 37.2428C59.208 46.7537 60.3118 54.0621 62.5196 59.0679H26.4931C25.3892 59.0679 24.486 59.9689 24.486 61.0702C24.486 62.1715 25.3892 63.0725 26.4931 63.0725H64.627H64.7273C65.5302 64.1738 66.4333 64.9747 67.4369 65.6755C68.4404 66.3763 69.0425 67.4776 69.0425 68.5788C69.0425 70.481 67.4369 72.0829 65.5302 72.0829H7.52644C5.61974 72.0829 4.0141 70.481 4.0141 68.5788C4.0141 67.3774 4.61621 66.2762 5.61974 65.6755C11.1391 61.8711 13.949 52.3602 13.949 37.2428C13.949 21.9252 23.2818 16.1185 31.2096 13.916Z" fill="#4A5259"/>
<path d="M16.5581 61.8196C16.5581 61.9215 16.6634 62.0234 16.7688 62.1253C16.8741 62.2272 16.8741 62.3291 16.9795 62.431C17.1902 62.6348 17.4009 62.7367 17.6116 62.8386C18.0329 63.0424 18.2436 63.0424 18.5597 63.0424C19.0864 63.0424 19.6131 62.8386 20.0345 62.431C20.1398 62.3291 20.2452 62.2272 20.2452 62.1253C20.3505 62.0234 20.3505 61.9215 20.4559 61.8196C20.5612 61.7177 20.5612 61.6158 20.5612 61.412C20.5612 61.3101 20.5612 61.1063 20.5612 61.0044C20.5612 60.9025 20.5612 60.6987 20.5612 60.5968C20.5612 60.4949 20.4559 60.2911 20.4559 60.1892C20.4559 60.0873 20.3505 59.9854 20.2452 59.8835C20.1398 59.7816 20.1398 59.6797 20.0345 59.5778C19.9291 59.4759 19.8238 59.374 19.7184 59.374C19.6131 59.374 19.5078 59.2721 19.4024 59.1702C19.2971 59.1702 19.1917 59.0683 18.981 59.0683C18.349 58.9664 17.6116 59.1702 17.0848 59.5778C16.9795 59.6797 16.8741 59.7816 16.8741 59.8835C16.7688 59.9854 16.7688 60.0873 16.6635 60.1892C16.5581 60.2911 16.5581 60.393 16.5581 60.5968C16.5581 60.6987 16.5581 60.9025 16.5581 61.0044C16.5581 61.1063 16.5581 61.3101 16.5581 61.412C16.5581 61.5139 16.5581 61.6158 16.5581 61.8196Z" fill="#F4263E"/>
</svg>
