<svg xmlns="http://www.w3.org/2000/svg" width="80" height="80" viewBox="0 0 80 80">
    <g fill="none" fill-rule="evenodd">
        <path fill="#000" d="M52 15H26v44h36V25H52V15zm2 1.414V23h6.586L54 16.414zM64 61H24V13h29.415L64 23.586V61zM22 22h-3v44h36v-3h2v5H17V20h5v2z"/>
        <path fill-rule="nonzero" stroke="#0076FF" stroke-width="2" d="M43.89 52.999c.09-.02.195-.047.332-.088a8.604 8.604 0 0 0 1.112-.42c1.172-.53 2.349-1.326 3.452-2.44 3.353-3.386 5.333-8.918 5.18-17.179v-.86a16.421 16.421 0 0 1-9.936-3.846 16.495 16.495 0 0 1-10.004 3.842v.92c-.12 8.102 1.816 13.591 5.09 16.994 1.127 1.17 2.335 2.005 3.54 2.558.418.192.805.335 1.144.433.116.034.218.06.298.078-.153-.034-.16-.038-.178-.025zM33.705 32.017l-.234.003c.116.01.21.01.286 0z"/>
        <path stroke="#0076FF" stroke-width="2" d="M40 40.496l2.845 2.846L49.187 37"/>
    </g>
</svg>
