<svg width="22" height="18" viewBox="0 0 22 18" fill="none" xmlns="http://www.w3.org/2000/svg">
<path d="M6.6 9C8.72781 9 10.45 7.23867 10.45 5.0625C10.45 2.88633 8.72781 1.125 6.6 1.125C4.47219 1.125 2.75 2.88633 2.75 5.0625C2.75 7.23867 4.47219 9 6.6 9ZM9.24 10.125H8.95469C8.23969 10.4766 7.44563 10.6875 6.6 10.6875C5.75437 10.6875 4.96375 10.4766 4.24531 10.125H3.96C1.77375 10.125 0 11.9391 0 14.175V15.1875C0 16.1191 0.739062 16.875 1.65 16.875H11.55C12.4609 16.875 13.2 16.1191 13.2 15.1875V14.175C13.2 11.9391 11.4262 10.125 9.24 10.125ZM16.5 9C18.3219 9 19.8 7.48828 19.8 5.625C19.8 3.76172 18.3219 2.25 16.5 2.25C14.6781 2.25 13.2 3.76172 13.2 5.625C13.2 7.48828 14.6781 9 16.5 9ZM18.15 10.125H18.0194C17.5416 10.2937 17.0363 10.4062 16.5 10.4062C15.9637 10.4062 15.4584 10.2937 14.9806 10.125H14.85C14.1488 10.125 13.5025 10.3324 12.9353 10.6664C13.7741 11.591 14.3 12.818 14.3 14.175V15.525C14.3 15.6023 14.2828 15.6762 14.2794 15.75H20.35C21.2609 15.75 22 14.9941 22 14.0625C22 11.8863 20.2778 10.125 18.15 10.125Z" fill="#444444" fill-opacity="0.5"/>
</svg>
