<svg width="185" height="188" viewBox="0 0 185 188" fill="none" xmlns="http://www.w3.org/2000/svg">
<path opacity="0.6" fill-rule="evenodd" clip-rule="evenodd" d="M56.7522 33.7091C74.7522 23.4706 79.9748 63.2764 99.2132 70.8932C118.353 78.4709 143.724 49.5177 157.663 73.6613C164.225 93.6398 160.48 115.506 148.751 132.985C136.903 150.644 118.061 163.199 96.8257 164.33C76.1015 165.434 57.3903 154.052 43.5831 138.585C30.1527 123.541 22.6869 104.116 25.2006 84.0972C27.7968 63.4215 38.624 44.0205 56.7522 33.7091Z" fill="#FFEAEA"/>
<circle cx="92" cy="94" r="38" stroke="#444444" stroke-width="4"/>
<path fill-rule="evenodd" clip-rule="evenodd" d="M94.091 95.4546V64.909C94.091 64.2208 94.4614 63.587 95.0599 63.2481C95.6584 62.9092 96.3924 62.9178 96.9823 63.272L116.073 74.7265C116.809 75.1685 117.16 76.0467 116.93 76.8733C116.701 77.7 115.949 78.2727 115.091 78.2727H97.9092V106.953C97.9092 109.979 96.7074 112.882 94.5673 115.022C92.4272 117.162 89.5244 118.364 86.4985 118.364C86.4689 118.364 86.4403 118.364 86.4107 118.364C83.3848 118.364 80.482 117.162 78.3419 115.022C76.2018 112.882 75 109.979 75 106.953C75 106.923 75 106.895 75 106.865C75 103.839 76.2018 100.937 78.3419 98.7965C80.482 96.6564 83.3848 95.4546 86.4107 95.4546H94.091Z" fill="#F4263E"/>
</svg>
