<svg width="185" height="188" viewBox="0 0 185 188" fill="none" xmlns="http://www.w3.org/2000/svg">
<path opacity="0.6" fill-rule="evenodd" clip-rule="evenodd" d="M56.7522 33.7091C74.7522 23.4706 79.9748 63.2764 99.2132 70.8932C118.353 78.4709 143.724 49.5177 157.663 73.6613C164.225 93.6398 160.48 115.506 148.751 132.985C136.903 150.644 118.061 163.199 96.8257 164.33C76.1015 165.434 57.3903 154.052 43.5831 138.585C30.1527 123.541 22.6869 104.116 25.2006 84.0972C27.7968 63.4215 38.624 44.0205 56.7522 33.7091Z" fill="#FFEAEA"/>
<path d="M131.66 58H61.2547C59.3704 58 58 59.5279 58 61.3105V127.69C58 129.557 59.5417 131 61.3404 131H131.66C133.544 131 135 129.472 135 127.69V61.3105C134.914 59.443 133.458 58 131.66 58ZM133.201 127.69C133.201 128.538 132.516 129.387 131.488 129.387H61.1691C60.3126 129.387 59.4561 128.708 59.4561 127.69V61.3105C59.4561 60.4616 60.1413 59.6128 61.1691 59.6128H131.488C132.345 59.6128 133.201 60.2919 133.201 61.3105V127.69Z" fill="#444444" stroke="#444444" stroke-width="2"/>
<path d="M128.234 67.9316H64.5957V69.9316H128.234V67.9316Z" fill="#444444"/>
<path d="M106.479 99.5078H64.5957V101.508H106.479V99.5078Z" fill="#444444"/>
<path d="M106.479 106.044H64.5957V108.044H106.479V106.044Z" fill="#444444"/>
<path d="M106.479 112.751H64.5957V114.751H106.479V112.751Z" fill="#444444"/>
<path d="M106.479 119.371H64.5957V121.371H106.479V119.371Z" fill="#444444"/>
<path d="M64.5957 94.4678H106.479V74.4678H64.5957V94.4678ZM66.3087 76.255H104.852V92.8508H66.3087V76.255Z" fill="#444444"/>
<path d="M109.82 121.068H128.235V106.129H109.82V121.068ZM111.533 107.742H126.608V119.371H111.533V107.742Z" fill="#444444"/>
<path d="M109.82 101.12H128.235V74.5518H109.82V101.12Z" fill="#F4263E"/>
<g opacity="0.6">
<path d="M121.75 86.5L118.083 90L116.25 88.25" stroke="white" stroke-width="1.2" stroke-linecap="round" stroke-linejoin="round"/>
<path d="M119 94C122.314 94 125 91.3137 125 88C125 84.6863 122.314 82 119 82C115.686 82 113 84.6863 113 88C113 91.3137 115.686 94 119 94Z" stroke="white" stroke-width="1.2" stroke-linecap="round" stroke-linejoin="round"/>
</g>
</svg>
