<svg width="21" height="20" viewBox="0 0 21 20" fill="none" xmlns="http://www.w3.org/2000/svg">
<g clip-path="url(#clip0)">
<path fill-rule="evenodd" clip-rule="evenodd" d="M9.7598 4.39174C10.3712 4.39225 10.9759 4.51783 11.536 4.76061C12.0961 5.0034 12.5995 5.35815 13.0147 5.80264C13.4299 6.24712 13.7479 6.77175 13.9487 7.34364C14.1496 7.91553 14.229 8.52234 14.182 9.12604L12.4454 8.56566C12.3898 7.89802 12.0828 7.27548 11.5853 6.82155C11.0878 6.36761 10.4362 6.11544 9.7598 6.11506C9.04541 6.11576 8.36047 6.39712 7.85531 6.8974C7.35016 7.39767 7.06605 8.07599 7.06535 8.78349C7.06535 10.1801 8.1536 11.3307 9.53985 11.4431L10.1066 13.1629C9.49693 13.2096 8.8841 13.1311 8.30652 12.9322C7.72895 12.7334 7.19909 12.4185 6.75017 12.0073C6.30126 11.5961 5.94296 11.0975 5.69775 10.5428C5.45255 9.98801 5.32572 9.38906 5.32521 8.78349C5.32433 6.36188 7.31368 4.39174 9.75892 4.39174H9.7598ZM9.75803 0C14.6467 0 18.6245 3.94379 18.629 8.78173C18.629 9.36056 18.5696 9.92271 18.464 10.4682L16.7265 9.91041C16.7898 9.53895 16.8209 9.16282 16.8197 8.78612C16.8197 4.93017 13.6507 1.79183 9.75803 1.79183C5.86446 1.79183 2.6955 4.93017 2.6955 8.78524C2.6955 12.6412 5.86446 15.7795 9.75803 15.7795C10.143 15.7795 10.5243 15.7462 10.8933 15.6873L11.4609 17.4036C10.9001 17.5134 10.3297 17.5681 9.75803 17.567C4.86845 17.567 0.890625 13.6232 0.890625 8.78173C0.890625 3.93939 4.86845 0 9.75803 0ZM20.4028 12.2266L14.6982 13.6741L13.2365 19.3237L11.8529 15.1375L11.4272 13.8445L10.8489 12.0861L10.4232 10.7931L9.7598 8.78349L11.7891 9.44049L13.0946 9.86298L14.8702 10.4348L16.1758 10.8573L20.4028 12.2275V12.2266Z" fill="white"/>
</g>
<defs>
<clipPath id="clip0">
<rect width="19.5122" height="19.3237" fill="white" transform="translate(0.890625)"/>
</clipPath>
</defs>
</svg>
