<svg width="20" height="20" viewBox="0 0 20 20" fill="none" xmlns="http://www.w3.org/2000/svg">
<g clip-path="url(#clip0)">
<path fill-rule="evenodd" clip-rule="evenodd" d="M8.86918 4.89174C9.48058 4.89225 10.0853 5.01783 10.6454 5.26061C11.2055 5.5034 11.7089 5.85815 12.1241 6.30264C12.5393 6.74712 12.8573 7.27175 13.0581 7.84364C13.259 8.41553 13.3384 9.02234 13.2914 9.62604L11.5548 9.06566C11.4991 8.39802 11.1921 7.77548 10.6947 7.32155C10.1972 6.86761 9.54562 6.61544 8.86918 6.61506C8.15478 6.61576 7.46985 6.89712 6.96469 7.3974C6.45953 7.89767 6.17543 8.57599 6.17472 9.28349C6.17472 10.6801 7.26297 11.8307 8.64922 11.9431L9.21597 13.6629C8.6063 13.7096 7.99347 13.6311 7.4159 13.4322C6.83832 13.2334 6.30847 12.9185 5.85955 12.5073C5.41063 12.0961 5.05233 11.5975 4.80713 11.0428C4.56192 10.488 4.43509 9.88906 4.43459 9.28349C4.4337 6.86188 6.42306 4.89174 8.86829 4.89174H8.86918ZM8.86741 0.5C13.7561 0.5 17.7339 4.44379 17.7384 9.28173C17.7384 9.86056 17.6789 10.4227 17.5734 10.9682L15.8359 10.4104C15.8992 10.0389 15.9303 9.66282 15.929 9.28612C15.929 5.43017 12.7601 2.29183 8.86741 2.29183C4.97384 2.29183 1.80488 5.43017 1.80488 9.28524C1.80488 13.1412 4.97384 16.2795 8.86741 16.2795C9.25233 16.2795 9.6337 16.2462 10.0027 16.1873L10.5703 17.9036C10.0095 18.0134 9.43908 18.0681 8.86741 18.067C3.97783 18.067 0 14.1232 0 9.28173C0 4.43939 3.97783 0.5 8.86741 0.5ZM19.5122 12.7266L13.8075 14.1741L12.3459 19.8237L10.9623 15.6375L10.5366 14.3445L9.95831 12.5861L9.53259 11.2931L8.86918 9.28349L10.8984 9.94049L12.204 10.363L13.9796 10.9348L15.2851 11.3573L19.5122 12.7275V12.7266Z" fill="white"/>
</g>
<defs>
<clipPath id="clip0">
<rect width="19.5122" height="19.3237" fill="white" transform="translate(0 0.5)"/>
</clipPath>
</defs>
</svg>
