<svg width="32" height="32" viewBox="0 0 32 32" fill="none" xmlns="http://www.w3.org/2000/svg">
<path d="M16.0001 2.66663C8.64008 2.66663 2.66675 8.63996 2.66675 16C2.66675 23.36 8.64008 29.3333 16.0001 29.3333C23.3601 29.3333 29.3334 23.36 29.3334 16C29.3334 8.63996 23.3601 2.66663 16.0001 2.66663ZM16.0001 26.6666C10.1067 26.6666 5.33341 21.8933 5.33341 16C5.33341 10.1066 10.1067 5.33329 16.0001 5.33329C21.8934 5.33329 26.6667 10.1066 26.6667 16C26.6667 21.8933 21.8934 26.6666 16.0001 26.6666Z" fill="#ECECEC"/>
<circle cx="15.9999" cy="16" r="10.6667" fill="#ECECEC"/>
<g clip-path="url(#clip0)">
<path d="M21.1888 11.7045H11.7044C11.0464 11.7045 10.5247 12.232 10.5247 12.89L10.5188 20.0034C10.5188 20.6613 11.0464 21.1889 11.7044 21.1889H21.1888C21.8468 21.1889 22.3744 20.6613 22.3744 20.0034V12.89C22.3744 12.232 21.8468 11.7045 21.1888 11.7045ZM21.1888 20.0034H11.7044V16.4467H21.1888V20.0034ZM21.1888 14.0756H11.7044V12.89H21.1888V14.0756Z" fill="#444444"/>
</g>
<defs>
<clipPath id="clip0">
<rect width="14.2267" height="14.2267" fill="white" transform="translate(9.33325 9.33337)"/>
</clipPath>
</defs>
</svg>
