<svg width="56" height="56" viewBox="0 0 56 56" fill="none" xmlns="http://www.w3.org/2000/svg">
<circle cx="28" cy="28" r="28" fill="#F1F1FE"/>
<path d="M21.5495 22.3649C21.9322 22.2988 22.1887 21.9352 22.1228 21.5525C21.7484 19.3827 23.4221 17.4062 25.61 17.4062C27.7914 17.4062 29.4681 19.3734 29.0988 21.5439C29.0338 21.9268 29.2912 22.2899 29.6741 22.355C30.0569 22.4204 30.42 22.1626 30.4852 21.7797C30.999 18.7587 28.6674 16 25.61 16C22.5562 16 20.2134 18.7583 20.7371 21.7916C20.8032 22.1754 21.1683 22.4308 21.5495 22.3649Z" fill="#8A8AF0"/>
<path d="M33.0936 27.2803C32.5666 26.2459 31.3114 25.833 30.2811 26.3428C29.8021 25.4025 28.7066 24.9583 27.7109 25.304V20.9979C27.7109 19.8502 26.7886 18.8913 25.6546 18.8602C24.4664 18.8265 23.4819 19.7781 23.4819 20.9688V31.8008L22.6559 30.9358C21.863 30.1058 20.5355 30.0473 19.6963 30.806C18.8108 31.6063 18.7667 32.9692 19.5821 33.8257L24.3293 38.8891C24.9912 39.595 25.9261 40 26.894 40H32.6196C34.5581 40 36.1352 38.423 36.1352 36.4844V29.1719C36.1352 27.6142 34.4922 26.5883 33.0936 27.2803ZM34.7289 36.4844C34.7289 37.6475 33.7826 38.5938 32.6196 38.5938H26.894C26.3132 38.5938 25.7524 38.3508 25.3552 37.9271C25.3382 37.9092 20.6185 32.875 20.6014 32.8571C20.3295 32.5722 20.3425 32.1175 20.6391 31.8491C20.9187 31.5966 21.3672 31.6226 21.6387 31.907L23.6763 34.0407C24.1132 34.4985 24.8879 34.1879 24.8879 33.5553V20.9688C24.8879 20.5737 25.2157 20.2547 25.6163 20.2659C25.9959 20.2763 26.3046 20.6046 26.3046 20.9979C26.3046 28.7348 26.2914 25.2278 26.2914 29.4063C26.2914 29.7958 26.6086 30.1131 27.0011 30.1091C27.3932 30.1131 27.7109 29.7959 27.7109 29.4063V27.1633C27.7735 26.8392 28.0588 26.5938 28.4008 26.5938C28.7884 26.5938 29.1039 26.9093 29.1039 27.2969V29.4063C29.1039 29.7947 29.4187 30.1094 29.8071 30.1094C30.1954 30.1094 30.5102 29.7947 30.5102 29.4063V28.2344C30.5102 27.8468 30.8257 27.5313 31.2133 27.5313C31.6009 27.5313 31.9164 27.8468 31.9164 28.2344V29.4063C31.9164 29.7947 32.2312 30.1094 32.6196 30.1094C33.0079 30.1094 33.3227 29.7947 33.3227 29.4063V29.1719C33.3227 28.7843 33.6382 28.4688 34.0258 28.4688C34.4134 28.4688 34.7289 28.7843 34.7289 29.1719V36.4844Z" fill="#8A8AF0"/>
</svg>
