<svg width="24" height="24" viewBox="0 0 24 24" fill="none" xmlns="http://www.w3.org/2000/svg">
<rect width="24" height="24" transform="translate(0 0.000976562)" fill="white"/>
<path d="M19.35 10.041C18.67 6.59098 15.64 4.00098 12 4.00098C9.11 4.00098 6.6 5.64098 5.35 8.04098C2.34 8.36098 0 10.911 0 14.001C0 17.311 2.69 20.001 6 20.001H19C21.76 20.001 24 17.761 24 15.001C24 12.361 21.95 10.221 19.35 10.041ZM19 18.001H6C3.79 18.001 2 16.211 2 14.001C2 11.951 3.53 10.241 5.56 10.031L6.63 9.92098L7.13 8.97098C8.08 7.14098 9.94 6.00098 12 6.00098C14.62 6.00098 16.88 7.86098 17.39 10.431L17.69 11.931L19.22 12.041C20.78 12.141 22 13.451 22 15.001C22 16.651 20.65 18.001 19 18.001ZM8 13.001H10.55V16.001H13.45V13.001H16L12 9.00098L8 13.001Z" fill="#444444"/>
</svg>
