<svg width="24" height="16" viewBox="0 0 24 16" fill="none" xmlns="http://www.w3.org/2000/svg">
<path d="M19.35 6.04098C18.67 2.59098 15.64 0.000976562 12 0.000976562C9.11 0.000976562 6.6 1.64098 5.35 4.04098C2.34 4.36098 0 6.91098 0 10.001C0 13.311 2.69 16.001 6 16.001H19C21.76 16.001 24 13.761 24 11.001C24 8.36098 21.95 6.22098 19.35 6.04098ZM19 14.001H6C3.79 14.001 2 12.211 2 10.001C2 7.95098 3.53 6.24098 5.56 6.03098L6.63 5.92098L7.13 4.97098C8.08 3.14098 9.94 2.00098 12 2.00098C14.62 2.00098 16.88 3.86098 17.39 6.43098L17.69 7.93098L19.22 8.04098C20.78 8.14098 22 9.45098 22 11.001C22 12.651 20.65 14.001 19 14.001ZM8 9.00098H10.55V12.001H13.45V9.00098H16L12 5.00098L8 9.00098Z" fill="white"/>
</svg>
