<svg
  width="185"
  height="188"
  viewBox="0 0 185 188"
  fill="none"
  xmlns="http://www.w3.org/2000/svg"
>
<path
    opacity="0.6"
    fill-rule="evenodd"
    clip-rule="evenodd"
    d="M56.7522 33.7091C74.7522 23.4706 79.9748 63.2764 99.2132 70.8932C118.353 78.4709 143.724 49.5177 157.663 73.6613C164.225 93.6398 160.48 115.506 148.751 132.985C136.903 150.644 118.061 163.199 96.8257 164.33C76.1015 165.434 57.3903 154.052 43.5831 138.585C30.1527 123.541 22.6869 104.116 25.2006 84.0972C27.7968 63.4215 38.624 44.0205 56.7522 33.7091Z"
    fill="#FFEAEA"
  />
<path
    d="M109.882 128.531C104.598 128.531 99.7305 125.889 97.2273 121.578H87.7711C84.5727 127.28 77.2023 129.922 70.2492 127.836C66.0773 126.584 62.7398 123.386 61.3492 119.214C61.0711 118.38 60.932 117.684 60.793 116.85C59.5414 109.202 64.8258 101.97 72.4742 100.719C72.6133 100.719 72.6133 100.719 72.7523 100.719H111.273C111.273 100.719 111.273 100.719 111.412 100.719C112.524 100.719 113.498 100.997 114.471 101.275C121.841 103.5 126.152 111.287 123.927 118.797C122.537 123.108 119.199 126.445 115.027 127.836C113.22 128.253 111.551 128.531 109.882 128.531ZM86.9367 118.797H98.0617C98.618 118.797 99.0352 119.075 99.3133 119.631C101.677 124.777 108.074 127.141 114.054 125.194C117.391 124.081 120.173 121.439 121.146 117.963C121.98 115.042 121.702 112.122 120.312 109.341C118.921 106.698 116.557 104.752 113.637 103.917C112.802 103.639 111.968 103.5 111.134 103.5H72.7523C66.6336 104.473 62.4617 110.314 63.4352 116.433C63.5742 117.128 63.7133 117.684 63.8523 118.241C64.9648 121.439 67.607 124.081 70.9445 125.055C76.9242 126.862 83.182 124.498 85.5461 119.492C85.9633 119.075 86.3805 118.797 86.9367 118.797Z"
    fill="#444444"
  />
<path
    d="M77.2031 121.578H73.0312C72.1969 121.578 71.6406 121.022 71.6406 120.188V117.406H68.8594C68.025 117.406 67.4688 116.85 67.4688 116.016V111.844C67.4688 111.009 68.025 110.453 68.8594 110.453H71.6406V107.672C71.6406 106.837 72.1969 106.281 73.0312 106.281H77.2031C78.0375 106.281 78.5938 106.837 78.5938 107.672V110.453H81.375C82.2094 110.453 82.7656 111.009 82.7656 111.844V116.016C82.7656 116.85 82.2094 117.406 81.375 117.406H78.5938V120.188C78.5938 120.883 78.0375 121.578 77.2031 121.578ZM74.4219 118.797H75.8125V116.016C75.8125 115.181 76.3687 114.625 77.2031 114.625H79.9844V113.234H77.2031C76.3687 113.234 75.8125 112.678 75.8125 111.844V109.062H74.4219V111.844C74.4219 112.678 73.8656 113.234 73.0312 113.234H70.25V114.625H73.0312C73.8656 114.625 74.4219 115.181 74.4219 116.016V118.797Z"
    fill="#444444"
  />
<path
    d="M109.883 111.844C108.77 111.844 107.797 110.87 107.797 109.758C107.797 108.645 108.77 107.672 109.883 107.672C110.995 107.672 111.969 108.645 111.969 109.758C111.969 110.87 110.995 111.844 109.883 111.844ZM109.883 109.062C109.466 109.062 109.188 109.341 109.188 109.758C109.188 110.175 109.466 110.453 109.883 110.453C110.3 110.453 110.578 110.175 110.578 109.758C110.578 109.341 110.3 109.062 109.883 109.062Z"
    fill="#444444"
  />
<path
    d="M109.883 120.188C108.77 120.188 107.797 119.214 107.797 118.102C107.797 116.989 108.77 116.016 109.883 116.016C110.995 116.016 111.969 116.989 111.969 118.102C111.969 119.214 110.995 120.188 109.883 120.188ZM109.883 117.406C109.466 117.406 109.188 117.684 109.188 118.102C109.188 118.519 109.466 118.797 109.883 118.797C110.3 118.797 110.578 118.519 110.578 118.102C110.578 117.684 110.3 117.406 109.883 117.406Z"
    fill="#444444"
  />
<path
    d="M105.711 116.016C104.598 116.016 103.625 115.042 103.625 113.93C103.625 112.817 104.598 111.844 105.711 111.844C106.823 111.844 107.797 112.817 107.797 113.93C107.797 115.042 106.823 116.016 105.711 116.016ZM105.711 113.234C105.294 113.234 105.016 113.512 105.016 113.93C105.016 114.347 105.294 114.625 105.711 114.625C106.128 114.625 106.406 114.347 106.406 113.93C106.406 113.512 106.128 113.234 105.711 113.234Z"
    fill="#444444"
  />
<path
    d="M114.055 116.016C112.942 116.016 111.969 115.042 111.969 113.93C111.969 112.817 112.942 111.844 114.055 111.844C115.167 111.844 116.141 112.817 116.141 113.93C116.141 115.042 115.167 116.016 114.055 116.016ZM114.055 113.234C113.637 113.234 113.359 113.512 113.359 113.93C113.359 114.347 113.637 114.625 114.055 114.625C114.472 114.625 114.75 114.347 114.75 113.93C114.75 113.512 114.472 113.234 114.055 113.234Z"
    fill="#444444"
  />
<path
    d="M135.609 117.406H123.094V114.625H134.219V61.7812H50.7812V114.625H61.9062V117.406H49.3906C48.5562 117.406 48 116.85 48 116.016V60.3906C48 59.5562 48.5562 59 49.3906 59H135.609C136.444 59 137 59.5562 137 60.3906V116.016C137 116.711 136.444 117.406 135.609 117.406Z"
    fill="#444444"
  />
<path
    d="M131.438 113.234H123.094V110.453H130.047V65.9531H54.9531V110.453H61.9062V113.234H53.5625C52.7281 113.234 52.1719 112.678 52.1719 111.844V64.5625C52.1719 63.7281 52.7281 63.1719 53.5625 63.1719H131.438C132.272 63.1719 132.828 63.7281 132.828 64.5625V111.844C132.828 112.539 132.272 113.234 131.438 113.234Z"
    fill="#444444"
  />
<path
    d="M102.234 90.9844C101.817 90.9844 101.539 90.8453 101.261 90.5672C98.8969 88.2031 95.8375 86.8125 92.5 86.8125C89.1625 86.8125 86.1031 88.2031 83.7391 90.5672C83.1828 91.1234 82.3484 91.1234 81.7922 90.5672C81.2359 90.0109 81.2359 89.1766 81.7922 88.6203C84.5734 85.7 88.4672 84.1703 92.5 84.0312C96.6719 84.0312 100.427 85.7 103.208 88.6203C103.764 89.1766 103.764 90.0109 103.208 90.5672C102.93 90.8453 102.652 90.9844 102.234 90.9844Z"
    fill="#F4263E"
  />
<path
    d="M99.4531 93.7674C99.175 93.7674 98.7578 93.6283 98.4797 93.3502C95.1422 90.1518 89.8578 90.1518 86.5203 93.3502C85.9641 93.9064 85.1297 93.9064 84.5734 93.3502C84.0172 92.7939 84.0172 91.9596 84.5734 91.4033C89.0234 87.2314 95.9766 87.2314 100.427 91.4033C100.983 91.9596 100.983 92.7939 100.427 93.3502C100.148 93.6283 99.8703 93.7674 99.4531 93.7674Z"
    fill="#F4263E"
  />
<path
    d="M96.6719 96.5486C96.2547 96.5486 95.9766 96.4096 95.6984 96.1314C93.8906 94.4627 91.1094 94.4627 89.3016 96.1314C88.7453 96.6877 87.9109 96.6877 87.3547 96.1314C86.7984 95.5752 86.7984 94.7408 87.3547 94.1846C90.1359 91.4033 94.8641 91.4033 97.6453 94.1846C98.2016 94.7408 98.2016 95.5752 97.6453 96.1314C97.3672 96.4096 97.0891 96.5486 96.6719 96.5486Z"
    fill="#F4263E"
  />
</svg>
