<svg width="56" height="56" viewBox="0 0 56 56" fill="none" xmlns="http://www.w3.org/2000/svg">
<circle cx="28" cy="28" r="28" fill="#E4FAFE"/>
<g clip-path="url(#clip0)">
<path d="M28 22C24.691 22 22 24.691 22 28C22 31.309 24.691 34 28 34C31.309 34 34 31.309 34 28C34 24.691 31.309 22 28 22ZM31.233 26.931L27.983 30.431C27.595 30.848 26.941 30.856 26.543 30.457L24.793 28.707C24.402 28.316 24.402 27.684 24.793 27.293C25.184 26.902 25.816 26.902 26.207 27.293L27.223 28.309L29.767 25.569C30.143 25.164 30.776 25.141 31.181 25.517C31.585 25.893 31.608 26.526 31.233 26.931Z" fill="#3ECCE6"/>
<path d="M17.5 27.9997C17.5 22.2107 22.21 17.4997 28 17.4997C30.079 17.4997 32.055 18.1067 33.732 19.2067L32.22 20.7197C31.748 21.1897 32.081 21.9997 32.75 21.9997H37.25C37.664 21.9997 38 21.6637 38 21.2497V16.7497C38 16.0847 37.194 15.7457 36.72 16.2197L34.806 18.1337C32.835 16.7647 30.484 15.9997 28 15.9997C21.383 15.9997 16 21.3827 16 27.9997C16 29.1727 16.173 30.3387 16.513 31.4657C16.632 31.8607 17.047 32.0867 17.448 31.9677C17.844 31.8477 18.069 31.4297 17.949 31.0327C17.651 30.0457 17.5 29.0257 17.5 27.9997Z" fill="#3ECCE6"/>
<path d="M39.4887 24.5341C39.3687 24.1371 38.9537 23.9111 38.5537 24.0321C38.1577 24.1521 37.9327 24.5701 38.0527 24.9671C38.3507 25.9541 38.5017 26.9741 38.5017 28.0001C38.5017 33.7891 33.7917 38.5001 28.0017 38.5001C25.9267 38.5001 23.9537 37.8961 22.2797 36.8001L23.7847 35.2781C24.2527 34.8041 23.9167 34.0001 23.2517 34.0001H18.7517C18.5517 34.0001 18.3587 34.0801 18.2187 34.2231C18.0787 34.3661 17.9997 34.5581 18.0017 34.7581L18.0517 39.2581C18.0577 39.9241 18.8707 40.2481 19.3347 39.7771L21.2127 37.8781C23.1797 39.2401 25.5247 40.0001 28.0017 40.0001C34.6187 40.0001 40.0017 34.6171 40.0017 28.0001C40.0017 26.8271 39.8287 25.6611 39.4887 24.5341Z" fill="#3ECCE6"/>
</g>
<defs>
<clipPath id="clip0">
<rect width="24" height="24" fill="white" transform="translate(16 16)"/>
</clipPath>
</defs>
</svg>
