<svg xmlns="http://www.w3.org/2000/svg" width="57" height="61" viewBox="0 0 57 61">
    <g fill="none" fill-rule="evenodd">
        <path fill="#000" d="M57 49a5.006 5.006 0 0 1-5 5h-4v-2h4a3 3 0 0 0 3-3V16a3 3 0 0 0-3-3H31v-2h21a5.006 5.006 0 0 1 5 5v33zM5 27h2v22a3 3 0 0 0 3 3h9v2h-9a5.006 5.006 0 0 1-5-5V27zm37-12h2v2h-2v-2zm4 0h2v2h-2v-2zm4 0h2v2h-2v-2zm-19 4h21v2H31v-2zM20.458 33.468A5.018 5.018 0 0 1 24 32h14a5 5 0 0 1 0 10h-2v-2h2a3 3 0 0 0 0-6H24a3 3 0 0 0 0 6h2v2h-2a5 5 0 0 1-3.542-8.532zM38 26h2v4h-2v-4zm4.293 4.293l3-3 1.415 1.414-3 3-1.415-1.414zM45 34h4v2h-4v-2zM22.158 56.342l.002.003a2.767 2.767 0 0 1 .37-4.725l.158-.078a2.746 2.746 0 0 1 2.66.1l2.654 1.592V39.893a3 3 0 0 1 3.5-2.96 3.083 3.083 0 0 1 2.5 3.067v6.17a3.114 3.114 0 0 1 3 .595 2.994 2.994 0 0 1 4 0 3.009 3.009 0 0 1 2.498-.725 3.084 3.084 0 0 1 2.5 3.067V60a1 1 0 0 1-1 1H29a1 1 0 0 1-.581-.187l-6.261-4.471zm1.266-2.936h-.004a.766.766 0 0 0-.1 1.309l6 4.285H44v-9.893a1.083 1.083 0 0 0-.825-1.092A1 1 0 0 0 42 49a1 1 0 0 1-2 0 1 1 0 0 0-2 0 1 1 0 0 1-2 0 1 1 0 0 0-2 0 1 1 0 0 1-2 0v-9c.02-.514-.326-.97-.825-1.093a1 1 0 0 0-1.175.986V55a1 1 0 0 1-1.515.856l-4.169-2.5a.757.757 0 0 0-.735-.028l-.157.078z"/>
        <path fill="#0076FF" d="M5 24a5.006 5.006 0 0 1-5-5V5a5.006 5.006 0 0 1 5-5h18a5.006 5.006 0 0 1 5 5v14a5.006 5.006 0 0 1-5 5h-2.78l.76 3.8a1 1 0 0 1-1.51 1.048L11.713 24H5zM2 5v14a3 3 0 0 0 3 3h7a1 1 0 0 1 .53.152l6.035 3.776-.545-2.728A1 1 0 0 1 19 22h4a3 3 0 0 0 3-3V5a3 3 0 0 0-3-3H5a3 3 0 0 0-3 3zm10.246 13A3.249 3.249 0 0 1 9 14.754V14h2v.754a1.247 1.247 0 0 0 1.246 1.25h3.513a1.247 1.247 0 0 0 .3-2.456l-4.6-1.148a3.246 3.246 0 0 1 .787-6.4H13V4h2v2h.754A3.249 3.249 0 0 1 19 9.246V10h-2v-.754a1.247 1.247 0 0 0-1.251-1.25h-3.508a1.247 1.247 0 0 0-.3 2.456l4.6 1.148a3.246 3.246 0 0 1-.787 6.4H15v2h-2v-2h-.754z"/>
        <path d="M-11-10h80v80h-80z"/>
    </g>
</svg>
