<svg width="56" height="56" viewBox="0 0 56 56" fill="none" xmlns="http://www.w3.org/2000/svg">
<circle cx="28" cy="28" r="28" fill="#E8F6F3"/>
<path d="M24.814 26.492C24.0953 26.492 23.5073 26.2493 23.05 25.764C22.602 25.2693 22.378 24.6113 22.378 23.79C22.378 22.9687 22.602 22.3153 23.05 21.83C23.5073 21.3353 24.0953 21.088 24.814 21.088C25.5327 21.088 26.116 21.3353 26.564 21.83C27.012 22.3153 27.236 22.9687 27.236 23.79C27.236 24.6113 27.012 25.2693 26.564 25.764C26.116 26.2493 25.5327 26.492 24.814 26.492ZM30.652 21.2H32.318L25.626 31H23.96L30.652 21.2ZM24.814 25.344C25.1313 25.344 25.3787 25.2133 25.556 24.952C25.7427 24.6907 25.836 24.3033 25.836 23.79C25.836 23.2767 25.7427 22.8893 25.556 22.628C25.3787 22.3667 25.1313 22.236 24.814 22.236C24.506 22.236 24.2587 22.3713 24.072 22.642C23.8853 22.9033 23.792 23.286 23.792 23.79C23.792 24.294 23.8853 24.6813 24.072 24.952C24.2587 25.2133 24.506 25.344 24.814 25.344ZM31.464 31.112C30.9973 31.112 30.5773 31.0047 30.204 30.79C29.84 30.566 29.5553 30.2487 29.35 29.838C29.1447 29.4273 29.042 28.9513 29.042 28.41C29.042 27.8687 29.1447 27.3927 29.35 26.982C29.5553 26.5713 29.84 26.2587 30.204 26.044C30.5773 25.82 30.9973 25.708 31.464 25.708C32.1827 25.708 32.766 25.9553 33.214 26.45C33.6713 26.9353 33.9 27.5887 33.9 28.41C33.9 29.2313 33.6713 29.8893 33.214 30.384C32.766 30.8693 32.1827 31.112 31.464 31.112ZM31.464 29.964C31.7813 29.964 32.0287 29.8333 32.206 29.572C32.3927 29.3013 32.486 28.914 32.486 28.41C32.486 27.906 32.3927 27.5233 32.206 27.262C32.0287 26.9913 31.7813 26.856 31.464 26.856C31.156 26.856 30.9087 26.9867 30.722 27.248C30.5353 27.5093 30.442 27.8967 30.442 28.41C30.442 28.9233 30.5353 29.3107 30.722 29.572C30.9087 29.8333 31.156 29.964 31.464 29.964Z" fill="#23B899"/>
<mask id="path-3-inside-1" fill="white">
<path d="M23.0243 36.5974C25.4072 37.8284 28.1468 38.1833 30.7648 37.6001C33.3827 37.017 35.7127 35.5328 37.3478 33.4068C38.983 31.2808 39.8194 28.6479 39.7111 25.968C39.6028 23.2881 38.5566 20.7314 36.7552 18.7442C34.9539 16.7571 32.5117 15.4658 29.8553 15.0958C27.1988 14.7258 24.4968 15.3006 22.221 16.7199C19.9452 18.1392 18.2402 20.3128 17.4037 22.8611C16.5672 25.4095 16.6524 28.1707 17.6444 30.6626L20.508 29.5227C19.7832 27.7019 19.7209 25.6844 20.3321 23.8224C20.9433 21.9604 22.1891 20.3722 23.852 19.3352C25.5148 18.2982 27.4891 17.8781 29.4301 18.1485C31.3711 18.4188 33.1555 19.3623 34.4717 20.8143C35.7879 22.2662 36.5523 24.1344 36.6314 26.0925C36.7106 28.0506 36.0994 29.9743 34.9047 31.5278C33.7099 33.0812 32.0075 34.1656 30.0947 34.5917C28.1818 35.0178 26.1801 34.7585 24.4389 33.859L23.0243 36.5974Z"/>
</mask>
<path d="M23.0243 36.5974C25.4072 37.8284 28.1468 38.1833 30.7648 37.6001C33.3827 37.017 35.7127 35.5328 37.3478 33.4068C38.983 31.2808 39.8194 28.6479 39.7111 25.968C39.6028 23.2881 38.5566 20.7314 36.7552 18.7442C34.9539 16.7571 32.5117 15.4658 29.8553 15.0958C27.1988 14.7258 24.4968 15.3006 22.221 16.7199C19.9452 18.1392 18.2402 20.3128 17.4037 22.8611C16.5672 25.4095 16.6524 28.1707 17.6444 30.6626L20.508 29.5227C19.7832 27.7019 19.7209 25.6844 20.3321 23.8224C20.9433 21.9604 22.1891 20.3722 23.852 19.3352C25.5148 18.2982 27.4891 17.8781 29.4301 18.1485C31.3711 18.4188 33.1555 19.3623 34.4717 20.8143C35.7879 22.2662 36.5523 24.1344 36.6314 26.0925C36.7106 28.0506 36.0994 29.9743 34.9047 31.5278C33.7099 33.0812 32.0075 34.1656 30.0947 34.5917C28.1818 35.0178 26.1801 34.7585 24.4389 33.859L23.0243 36.5974Z" stroke="#23B899" stroke-width="4" stroke-linecap="round" stroke-linejoin="round" mask="url(#path-3-inside-1)"/>
</svg>
