<svg width="23" height="19" viewBox="0 0 23 19" fill="none" xmlns="http://www.w3.org/2000/svg">
<path d="M20.7157 5.15173L19.3605 7.25469C20.014 8.59953 20.334 10.0906 20.2917 11.5944C20.2494 13.0982 19.8461 14.5677 19.1181 15.8711H3.84719C2.90094 14.1775 2.50884 12.2144 2.72903 10.2728C2.94921 8.33119 3.76997 6.51447 5.06961 5.09197C6.36926 3.66946 8.0786 2.71689 9.94424 2.37547C11.8099 2.03406 13.7325 2.32198 15.4271 3.19654L17.4654 1.79836C15.3901 0.425425 12.9285 -0.189789 10.4744 0.0511208C8.02019 0.292031 5.71523 1.37515 3.92817 3.12721C2.14111 4.87928 0.975212 7.19907 0.61697 9.71551C0.258728 12.232 0.728839 14.7996 1.95211 17.0079C2.14438 17.3515 2.42047 17.6372 2.75293 17.8366C3.08538 18.036 3.46264 18.1422 3.84719 18.1446H19.1071C19.4954 18.1462 19.8772 18.0419 20.2138 17.8423C20.5505 17.6427 20.83 17.3548 21.0242 17.0079C22.0394 15.1936 22.5488 13.1251 22.4963 11.0309C22.4438 8.93664 21.8314 6.89812 20.7267 5.14036L20.7157 5.15173Z" fill="white"/>
<path d="M9.92949 12.927C10.1341 13.1384 10.3772 13.3061 10.6447 13.4205C10.9122 13.5349 11.1989 13.5938 11.4885 13.5938C11.7781 13.5938 12.0649 13.5349 12.3324 13.4205C12.5999 13.3061 12.8429 13.1384 13.0476 12.927L19.2837 3.27612L9.92949 9.71005C9.7246 9.92119 9.56207 10.1719 9.45118 10.4479C9.34028 10.7239 9.2832 11.0198 9.2832 11.3185C9.2832 11.6173 9.34028 11.9131 9.45118 12.1891C9.56207 12.4651 9.7246 12.7159 9.92949 12.927Z" fill="white"/>
<rect width="2.2562" height="2.38538" transform="matrix(0.48834 -0.872653 0.859134 0.511751 2.66797 7.76166)" fill="white"/>
<rect width="2.20359" height="2.44144" transform="matrix(0.999992 0.00405802 -0.0038124 0.999993 10.0332 2.10992)" fill="white"/>
</svg>
