<svg width="148" height="40" viewBox="0 0 148 40" fill="none" xmlns="http://www.w3.org/2000/svg">
<path d="M27.5 22.25V24.5H18.5V22.25H17V24.5C17 25.325 17.675 26 18.5 26H27.5C28.325 26 29 25.325 29 24.5V22.25H27.5ZM26.75 19.25L25.6925 18.1925L23.75 20.1275V14H22.25V20.1275L20.3075 18.1925L19.25 19.25L23 23L26.75 19.25Z" fill="#222222"/>
<path d="M43.47 15.2H47.6C48.636 15.2 49.5553 15.4053 50.358 15.816C51.1607 16.2267 51.7813 16.8053 52.22 17.552C52.668 18.2893 52.892 19.1387 52.892 20.1C52.892 21.0613 52.668 21.9153 52.22 22.662C51.7813 23.3993 51.1607 23.9733 50.358 24.384C49.5553 24.7947 48.636 25 47.6 25H43.47V15.2ZM47.516 23.782C48.3093 23.782 49.0047 23.628 49.602 23.32C50.2087 23.012 50.6753 22.5827 51.002 22.032C51.3287 21.472 51.492 20.828 51.492 20.1C51.492 19.372 51.3287 18.7327 51.002 18.182C50.6753 17.622 50.2087 17.188 49.602 16.88C49.0047 16.572 48.3093 16.418 47.516 16.418H44.87V23.782H47.516ZM59.4604 25.112C58.4711 25.112 57.5797 24.8973 56.7864 24.468C55.9931 24.0293 55.3677 23.4273 54.9104 22.662C54.4624 21.8967 54.2384 21.0427 54.2384 20.1C54.2384 19.1573 54.4624 18.3033 54.9104 17.538C55.3677 16.7727 55.9931 16.1753 56.7864 15.746C57.5797 15.3073 58.4711 15.088 59.4604 15.088C60.4404 15.088 61.3271 15.3073 62.1204 15.746C62.9137 16.1753 63.5344 16.7727 63.9824 17.538C64.4304 18.294 64.6544 19.148 64.6544 20.1C64.6544 21.052 64.4304 21.9107 63.9824 22.676C63.5344 23.432 62.9137 24.0293 62.1204 24.468C61.3271 24.8973 60.4404 25.112 59.4604 25.112ZM59.4604 23.866C60.1791 23.866 60.8231 23.7027 61.3924 23.376C61.9711 23.0493 62.4237 22.6013 62.7504 22.032C63.0864 21.4533 63.2544 20.8093 63.2544 20.1C63.2544 19.3907 63.0864 18.7513 62.7504 18.182C62.4237 17.6033 61.9711 17.1507 61.3924 16.824C60.8231 16.4973 60.1791 16.334 59.4604 16.334C58.7417 16.334 58.0884 16.4973 57.5004 16.824C56.9217 17.1507 56.4644 17.6033 56.1284 18.182C55.8017 18.7513 55.6384 19.3907 55.6384 20.1C55.6384 20.8093 55.8017 21.4533 56.1284 22.032C56.4644 22.6013 56.9217 23.0493 57.5004 23.376C58.0884 23.7027 58.7417 23.866 59.4604 23.866ZM80.3258 15.2L77.0498 25H75.5798L72.9058 17.174L70.2318 25H68.7338L65.4578 15.2H66.8998L69.5458 23.166L72.3038 15.2H73.5918L76.2938 23.208L78.9958 15.2H80.3258ZM90.4664 15.2V25H89.3184L83.4384 17.692V25H82.0384V15.2H83.1864L89.0664 22.508V15.2H90.4664ZM93.3997 15.2H94.7997V23.782H100.106V25H93.3997V15.2ZM105.958 25.112C104.969 25.112 104.078 24.8973 103.284 24.468C102.491 24.0293 101.866 23.4273 101.408 22.662C100.96 21.8967 100.736 21.0427 100.736 20.1C100.736 19.1573 100.96 18.3033 101.408 17.538C101.866 16.7727 102.491 16.1753 103.284 15.746C104.078 15.3073 104.969 15.088 105.958 15.088C106.938 15.088 107.825 15.3073 108.618 15.746C109.412 16.1753 110.032 16.7727 110.48 17.538C110.928 18.294 111.152 19.148 111.152 20.1C111.152 21.052 110.928 21.9107 110.48 22.676C110.032 23.432 109.412 24.0293 108.618 24.468C107.825 24.8973 106.938 25.112 105.958 25.112ZM105.958 23.866C106.677 23.866 107.321 23.7027 107.89 23.376C108.469 23.0493 108.922 22.6013 109.248 22.032C109.584 21.4533 109.752 20.8093 109.752 20.1C109.752 19.3907 109.584 18.7513 109.248 18.182C108.922 17.6033 108.469 17.1507 107.89 16.824C107.321 16.4973 106.677 16.334 105.958 16.334C105.24 16.334 104.586 16.4973 103.998 16.824C103.42 17.1507 102.962 17.6033 102.626 18.182C102.3 18.7513 102.136 19.3907 102.136 20.1C102.136 20.8093 102.3 21.4533 102.626 22.032C102.962 22.6013 103.42 23.0493 103.998 23.376C104.586 23.7027 105.24 23.866 105.958 23.866ZM119.4 22.55H114.192L113.114 25H111.672L116.11 15.2H117.496L121.948 25H120.478L119.4 22.55ZM118.91 21.43L116.796 16.628L114.682 21.43H118.91ZM123.409 15.2H127.539C128.575 15.2 129.495 15.4053 130.297 15.816C131.1 16.2267 131.721 16.8053 132.159 17.552C132.607 18.2893 132.831 19.1387 132.831 20.1C132.831 21.0613 132.607 21.9153 132.159 22.662C131.721 23.3993 131.1 23.9733 130.297 24.384C129.495 24.7947 128.575 25 127.539 25H123.409V15.2ZM127.455 23.782C128.249 23.782 128.944 23.628 129.541 23.32C130.148 23.012 130.615 22.5827 130.941 22.032C131.268 21.472 131.431 20.828 131.431 20.1C131.431 19.372 131.268 18.7327 130.941 18.182C130.615 17.622 130.148 17.188 129.541 16.88C128.944 16.572 128.249 16.418 127.455 16.418H124.809V23.782H127.455Z" fill="#222222"/>
<rect x="0.5" y="0.5" width="147" height="39" rx="3.5" stroke="#444444"/>
</svg>
