<svg width="40" height="40" viewBox="0 0 40 40" fill="none" xmlns="http://www.w3.org/2000/svg">
<path d="M0.5 4C0.5 2.067 2.067 0.5 4 0.5H36C37.933 0.5 39.5 2.067 39.5 4V36C39.5 37.933 37.933 39.5 36 39.5H4C2.067 39.5 0.5 37.933 0.5 36V4Z" fill="#F1F3F7" stroke="#E8E8E8"/>
<path d="M24.9 17.6927C24.4467 15.3927 22.4267 13.666 20 13.666C18.0733 13.666 16.4 14.7593 15.5667 16.3593C13.56 16.5727 12 18.2727 12 20.3327C12 22.5393 13.7933 24.3327 16 24.3327H24.6667C26.5067 24.3327 28 22.8393 28 20.9993C28 19.2393 26.6333 17.8127 24.9 17.6927ZM23.3333 19.666L20 22.9993L16.6667 19.666H18.6667V16.9993H21.3333V19.666H23.3333Z" fill="#4A5259"/>
</svg>
