<svg width="56" height="56" viewBox="0 0 56 56" fill="none" xmlns="http://www.w3.org/2000/svg">
<circle cx="28" cy="28" r="28" fill="#E4FAFE"/>
<path d="M24.75 28.001H31.25" stroke="#3ECCE5" stroke-width="2" stroke-linecap="round" stroke-linejoin="round"/>
<path d="M24.75 31.251H31.25" stroke="#3ECCE5" stroke-width="2" stroke-linecap="round" stroke-linejoin="round"/>
<path d="M20.6875 19.0635H35.3125C35.528 19.0635 35.7347 19.1491 35.887 19.3015C36.0394 19.4538 36.125 19.6605 36.125 19.876V35.3135C36.125 35.9599 35.8682 36.5799 35.4111 37.037C34.954 37.4942 34.334 37.751 33.6875 37.751H22.3125C21.666 37.751 21.046 37.4942 20.5889 37.037C20.1318 36.5799 19.875 35.9599 19.875 35.3135V19.876C19.875 19.6605 19.9606 19.4538 20.113 19.3015C20.2653 19.1491 20.472 19.0635 20.6875 19.0635Z" stroke="#3ECCE5" stroke-width="2" stroke-linecap="round" stroke-linejoin="round"/>
<path d="M23.125 17.4385V20.6885" stroke="#3ECCE5" stroke-width="2" stroke-linecap="round" stroke-linejoin="round"/>
<path d="M28 17.4385V20.6885" stroke="#3ECCE5" stroke-width="2" stroke-linecap="round" stroke-linejoin="round"/>
<path d="M32.875 17.4385V20.6885" stroke="#3ECCE5" stroke-width="2" stroke-linecap="round" stroke-linejoin="round"/>
</svg>
