<svg width="32" height="32" viewBox="0 0 32 32" fill="none" xmlns="http://www.w3.org/2000/svg">
<circle cx="16" cy="16" r="16" fill="#4BBD5D"/>
<path d="M11.7 7.17998L12.82 9.89998H19.18L20.3 7.17998C20.54 6.61998 20.12 5.99998 19.5 5.99998H12.48C11.88 5.97998 11.46 6.59998 11.7 7.17998Z" fill="white"/>
<path d="M16.52 18.36V19.6C16.74 19.56 16.9 19.48 17 19.36C17.1 19.26 17.16 19.12 17.16 18.98C17.16 18.84 17.1 18.7 17 18.62C16.9 18.52 16.74 18.42 16.52 18.36Z" fill="white"/>
<path d="M14.9601 16.2C14.9601 16.34 15.0201 16.48 15.1401 16.56C15.2601 16.66 15.4201 16.74 15.6401 16.8V15.52C15.4201 15.58 15.2401 15.66 15.1401 15.78C15.0201 15.9 14.9601 16.04 14.9601 16.2Z" fill="white"/>
<path d="M19.68 11.7L19.18 11.12H12.82L12.32 11.7C9.98002 14.46 8.44002 17.8 7.90002 21.38C7.70002 22.76 8.76002 24 10.16 24H21.82C23.22 24 24.28 22.76 24.08 21.38C23.56 17.8 22.02 14.46 19.68 11.7ZM18.08 20.14C17.72 20.5 17.2 20.7 16.52 20.8V21.8H15.62V20.82C15.18 20.8 14.76 20.72 14.36 20.58C13.96 20.44 13.64 20.28 13.38 20.1L13.88 19C14.1 19.16 14.38 19.3 14.68 19.42C14.98 19.54 15.3 19.6 15.62 19.64V18.14C15.2 18.04 14.84 17.92 14.54 17.8C14.24 17.68 14 17.48 13.8 17.24C13.6 17 13.5 16.68 13.5 16.28C13.5 15.78 13.68 15.36 14.04 15C14.4 14.64 14.92 14.42 15.6 14.34V13.34H16.5V14.32C17.24 14.38 17.84 14.56 18.32 14.86L17.88 15.96C17.44 15.7 16.98 15.54 16.5 15.5V17.02C16.92 17.12 17.28 17.22 17.56 17.34C17.86 17.46 18.1 17.64 18.3 17.88C18.5 18.12 18.6 18.44 18.6 18.84C18.62 19.36 18.44 19.78 18.08 20.14Z" fill="white"/>
</svg>
