<svg width="32" height="32" viewBox="0 0 32 32" fill="none" xmlns="http://www.w3.org/2000/svg">
<path d="M16.0001 2.66663C8.64008 2.66663 2.66675 8.63996 2.66675 16C2.66675 23.36 8.64008 29.3333 16.0001 29.3333C23.3601 29.3333 29.3334 23.36 29.3334 16C29.3334 8.63996 23.3601 2.66663 16.0001 2.66663ZM16.0001 26.6666C10.1067 26.6666 5.33341 21.8933 5.33341 16C5.33341 10.1066 10.1067 5.33329 16.0001 5.33329C21.8934 5.33329 26.6667 10.1066 26.6667 16C26.6667 21.8933 21.8934 26.6666 16.0001 26.6666Z" fill="#ECECEC"/>
<circle cx="15.9999" cy="16" r="10.6667" fill="#ECECEC"/>
<g clip-path="url(#clip0)">
<path d="M16.328 15.7946C14.9824 15.4449 14.5497 15.0833 14.5497 14.5202C14.5497 13.874 15.1484 13.4235 16.1502 13.4235C17.2053 13.4235 17.5966 13.9274 17.6321 14.6684H18.9422C18.9007 13.6488 18.2783 12.7122 17.0393 12.4099V11.1117H15.261V12.3921C14.111 12.6411 13.1863 13.388 13.1863 14.532C13.1863 15.9013 14.3185 16.583 15.9723 16.9802C17.4543 17.3359 17.7507 17.8575 17.7507 18.4088C17.7507 18.8178 17.4602 19.4699 16.1502 19.4699C14.9291 19.4699 14.4489 18.9245 14.3837 18.225H13.0796C13.1507 19.5232 14.1229 20.2523 15.261 20.4954V21.7817H17.0393V20.5072C18.1953 20.2879 19.1141 19.6181 19.1141 18.4029C19.1141 16.7194 17.6736 16.1444 16.328 15.7946Z" fill="#444444"/>
</g>
<defs>
<clipPath id="clip0">
<rect width="14.2267" height="14.2267" fill="white" transform="translate(9.33325 9.33337)"/>
</clipPath>
</defs>
</svg>
