<svg width="185" height="188" viewBox="0 0 185 188" fill="none" xmlns="http://www.w3.org/2000/svg">
<path opacity="0.6" fill-rule="evenodd" clip-rule="evenodd" d="M56.7522 33.7091C74.7522 23.4706 79.9748 63.2764 99.2132 70.8932C118.353 78.4709 143.724 49.5177 157.663 73.6613C164.225 93.6398 160.48 115.506 148.751 132.985C136.903 150.644 118.061 163.199 96.8257 164.33C76.1015 165.434 57.3903 154.052 43.5831 138.585C30.1527 123.541 22.6869 104.116 25.2006 84.0972C27.7968 63.4215 38.624 44.0205 56.7522 33.7091Z" fill="#FFEAEA"/>
<path d="M51.0501 61.7483C50.3269 61.7483 49.7483 62.3269 49.7483 63.0501V124.091C49.7483 124.814 50.3269 125.393 51.0501 125.393H131.04C131.763 125.393 132.342 124.814 132.342 124.091V63.0501C132.342 62.3269 131.763 61.7483 131.04 61.7483H51.0501ZM131.04 128.141H51.0501C48.7358 128.141 47 126.261 47 124.091V63.0501C47 60.7358 48.8804 59 51.0501 59H131.04C133.354 59 135.09 60.8804 135.09 63.0501V124.091C135.09 126.406 133.354 128.141 131.04 128.141Z" fill="#444444" stroke="#444444"/>
<path d="M133.788 69.8477H49.748V72.5959H133.788V69.8477Z" fill="#444444" stroke="#444444"/>
<path d="M105 80H83V82H105V80Z" fill="#444444"/>
<path d="M106 85H83V87H106V85Z" fill="#444444"/>
<path d="M106 90H83V92H106V90Z" fill="#444444"/>
<path d="M106 97H62V99H106V97Z" fill="#444444"/>
<path d="M106 103H62V105H106V103Z" fill="#444444"/>
<path d="M90 108H62V110H90V108Z" fill="#444444"/>
<path d="M76.9415 94.4378H65.0804C63.4893 94.4378 62.1875 93.136 62.1875 91.5449V82.2875C62.1875 80.6964 63.4893 79.3945 65.0804 79.3945H76.9415C78.5326 79.3945 79.8344 80.6964 79.8344 82.2875V91.5449C79.8344 93.136 78.5326 94.4378 76.9415 94.4378Z" fill="#F4263E"/>
<path d="M53.7979 67.2443C54.5169 67.2443 55.0997 66.6614 55.0997 65.9424C55.0997 65.2235 54.5169 64.6406 53.7979 64.6406C53.0789 64.6406 52.4961 65.2235 52.4961 65.9424C52.4961 66.6614 53.0789 67.2443 53.7979 67.2443Z" fill="#444444"/>
<path d="M57.8487 67.2443C58.5677 67.2443 59.1505 66.6614 59.1505 65.9424C59.1505 65.2235 58.5677 64.6406 57.8487 64.6406C57.1297 64.6406 56.5469 65.2235 56.5469 65.9424C56.5469 66.6614 57.1297 67.2443 57.8487 67.2443Z" fill="#444444"/>
<path d="M61.755 67.2443C62.4739 67.2443 63.0568 66.6614 63.0568 65.9424C63.0568 65.2235 62.4739 64.6406 61.755 64.6406C61.036 64.6406 60.4531 65.2235 60.4531 65.9424C60.4531 66.6614 61.036 67.2443 61.755 67.2443Z" fill="#444444"/>
<path d="M120.045 79.252H109.631V105.288H120.045V79.252Z" fill="#F4263E"/>
</svg>
