<svg width="26" height="18" viewBox="0 0 26 18" fill="none" xmlns="http://www.w3.org/2000/svg">
<path d="M11.593 1.00361C11.424 1.01862 11.2644 1.08527 11.1372 1.19394C11.01 1.30261 10.9218 1.44766 10.8853 1.60809L8.89556 10.1513L7.80493 8.56359C7.73209 8.45709 7.63314 8.36971 7.51693 8.30924C7.40071 8.24876 7.27084 8.21707 7.1389 8.21701H1.81062C1.70472 8.21556 1.59956 8.2345 1.50128 8.27273C1.403 8.31097 1.31355 8.36773 1.23813 8.43972C1.1627 8.51171 1.10281 8.59749 1.06193 8.69209C1.02105 8.78668 1 8.8882 1 8.99074C1 9.09328 1.02105 9.19479 1.06193 9.28938C1.10281 9.38398 1.1627 9.46976 1.23813 9.54175C1.31355 9.61375 1.403 9.67051 1.50128 9.70874C1.59956 9.74697 1.70472 9.76592 1.81062 9.76447H6.70598L8.60417 12.5209C8.69047 12.6481 8.81359 12.7478 8.95814 12.8076C9.1027 12.8674 9.26225 12.8847 9.41686 12.8571C9.57147 12.8296 9.71426 12.7586 9.82737 12.6529C9.94048 12.5472 10.0189 12.4116 10.0528 12.263L11.5347 5.87166L13.2747 16.3412C13.3026 16.5209 13.395 16.6854 13.5357 16.8059C13.6764 16.9263 13.8563 16.9949 14.044 16.9997C14.2317 17.0045 14.4152 16.9452 14.5623 16.8322C14.7093 16.7191 14.8106 16.5595 14.8482 16.3815L16.813 7.52387L17.9037 9.3776C17.9727 9.49656 18.0729 9.59575 18.1943 9.6651C18.3156 9.73446 18.4538 9.77152 18.5947 9.77254L24.1894 9.76454C24.2953 9.76599 24.4004 9.74705 24.4987 9.70882C24.597 9.67059 24.6864 9.61382 24.7619 9.54183C24.8373 9.46984 24.8972 9.38406 24.9381 9.28946C24.9789 9.19487 25 9.09335 25 8.99082C25 8.88828 24.9789 8.78676 24.9381 8.69217C24.8972 8.59757 24.8373 8.51179 24.7619 8.4398C24.6864 8.36781 24.597 8.31104 24.4987 8.27281C24.4004 8.23458 24.2953 8.21564 24.1894 8.21709L19.0609 8.22508L17.1544 5.00121C17.0741 4.86584 16.9535 4.75713 16.8082 4.68935C16.663 4.62158 16.5 4.59791 16.3406 4.62145C16.1812 4.64498 16.0329 4.71463 15.9152 4.82124C15.7974 4.92785 15.7157 5.06645 15.6808 5.21882L14.1822 12.0051L12.4588 1.64838C12.426 1.45462 12.3182 1.28018 12.1574 1.16046C11.9967 1.04073 11.7949 0.984671 11.593 1.00361Z" fill="#23B899" stroke="#23B899"/>
</svg>
