<svg xmlns="http://www.w3.org/2000/svg" width="80" height="80" viewBox="0 0 80 80">
    <g fill="none" fill-rule="evenodd">
        <path fill="#000" d="M23 48h2v9h30v-2h2v9a4 4 0 0 1-4 4H27a4 4 0 0 1-4-4V48zm0-26v-6a4 4 0 0 1 4-4h26a4 4 0 0 1 4 4v20h-2V20H25v2h-2zm2 42a2 2 0 0 0 2 2h26a2 2 0 0 0 2-2v-5H25v5zm0-46h30v-2a2 2 0 0 0-2-2H27a2 2 0 0 0-2 2v2zm12.156 30.363l.002.003a2.75 2.75 0 0 1 .37-4.704l.158-.077a2.757 2.757 0 0 1 2.66.1L43 45.268V31.99c0-.88.389-1.715 1.063-2.283a3.01 3.01 0 0 1 2.438-.664 3.073 3.073 0 0 1 2.5 3.053v6.142a3.125 3.125 0 0 1 3 .592 3.005 3.005 0 0 1 4 0c.02-.018.04-.034.06-.05a3.02 3.02 0 0 1 2.439-.671A3.074 3.074 0 0 1 61 41.16v10.844c0 .55-.448.995-1 .995H43.998c-.208 0-.411-.065-.58-.186l-6.262-4.45zm1.27-2.927h-.004a.762.762 0 0 0-.1 1.302l6 4.262h14.677v-9.84a1.078 1.078 0 0 0-.825-1.085.993.993 0 0 0-.822.22.992.992 0 0 0-.352.76c0 .548-.448.994-1 .994-.553 0-1-.446-1-.995a.997.997 0 0 0-1-.994c-.552 0-1 .445-1 .994 0 .55-.448.995-1 .995s-1-.446-1-.995a.997.997 0 0 0-1-.994c-.552 0-1 .445-1 .994 0 .55-.447.995-1 .995-.551 0-.999-.446-.999-.995v-8.951a1.079 1.079 0 0 0-.825-1.087.992.992 0 0 0-.822.223.992.992 0 0 0-.353.757v15.026a.994.994 0 0 1-.508.864 1.004 1.004 0 0 1-1.006-.013l-4.169-2.486a.76.76 0 0 0-.735-.028l-.157.077zM37 61h7v2h-7v-2z"/>
        <path fill="#0076FF" d="M24 46c-6.075 0-11-4.925-11-11s4.925-11 11-11 11 4.925 11 11-4.925 11-11 11zm0-2a9 9 0 1 0 0-18 9 9 0 0 0 0 18zm-3.797-10.623l2.5 2.5 4.793-4.793 1.414 1.414-6.207 6.207-3.914-3.914 1.414-1.414z"/>
    </g>
</svg>
