<svg
  width="185"
  height="188"
  viewBox="0 0 185 188"
  fill="none"
  xmlns="http://www.w3.org/2000/svg"
>
<path
    opacity="0.6"
    fill-rule="evenodd"
    clip-rule="evenodd"
    d="M56.7522 33.7091C74.7522 23.4706 79.9748 63.2764 99.2132 70.8932C118.353 78.4709 143.724 49.5177 157.663 73.6613C164.225 93.6398 160.48 115.506 148.751 132.985C136.903 150.644 118.061 163.199 96.8257 164.33C76.1015 165.434 57.3903 154.052 43.5831 138.585C30.1527 123.541 22.6869 104.116 25.2006 84.0972C27.7968 63.4215 38.624 44.0205 56.7522 33.7091Z"
    fill="#FFEAEA"
  />
<path
    d="M138 99.0822H50V52.8525H138V99.0822ZM54.4593 94.6229H133.541V57.3119H54.4593V94.6229Z"
    fill="#444444"
  />
<path d="M104.253 96.8516H99.1074V127.422H104.253V96.8516Z" fill="#444444" />
<path d="M97 99H91V128H97V99Z" fill="#F4263E" />
<path d="M88.8544 96.8516H83.709V127.422H88.8544V96.8516Z" fill="#444444" />
<path d="M124.431 127.516H63.8145V131.975H124.431V127.516Z" fill="#444444" />
<path d="M121.84 47H112.506V50.4303H121.84V47Z" fill="#F4263E" />
<path d="M76.3338 47H67V50.4303H76.3338V47Z" fill="#F4263E" />
<path d="M74 49H70V53H74V49Z" fill="#F4263E" />
<path d="M119 49H115V53H119V49Z" fill="#F4263E" />
</svg>
