<svg width="56" height="57" viewBox="0 0 56 57" fill="none" xmlns="http://www.w3.org/2000/svg">
<circle cx="28" cy="28" r="28" fill="#FEF3F9"/>
<g clip-path="url(#clip0)">
<path d="M37.7338 36.6667C37.7338 36.3456 37.4694 36.0717 37.1388 36.0717C36.8083 36.0717 36.5438 36.3361 36.5438 36.6667C36.5438 37.8189 37.3372 38.8011 38.4327 39.0656V39.5C38.4327 39.8211 38.6972 40.095 39.0277 40.095C39.3583 40.095 39.6227 39.8306 39.6227 39.5V39.0656C40.7183 38.8011 41.5116 37.8189 41.5116 36.6667C41.5116 35.5145 40.7183 34.5322 39.6227 34.2678V31.7367C40.0477 31.9539 40.331 32.3978 40.331 32.8889C40.331 33.21 40.5955 33.4839 40.926 33.4839C41.2566 33.4839 41.521 33.2195 41.521 32.8889C41.521 31.7367 40.7277 30.7545 39.6322 30.49V30.0556C39.6322 29.7345 39.3677 29.4606 39.0372 29.4606C38.7066 29.4606 38.4422 29.725 38.4422 30.0556V30.49C37.3466 30.7545 36.5533 31.7367 36.5533 32.8889C36.5533 34.0411 37.3466 35.0233 38.4422 35.2878V37.8189C38.0172 37.6017 37.7338 37.1578 37.7338 36.6667ZM39.6227 35.5145C40.0477 35.7317 40.331 36.1756 40.331 36.6667C40.331 37.1578 40.0477 37.6017 39.6227 37.8189V35.5145ZM37.7338 32.8889C37.7338 32.3978 38.0172 31.9539 38.4422 31.7367V34.0317C38.0172 33.8239 37.7338 33.38 37.7338 32.8889Z" fill="#ED79B8"/>
<path d="M19.1944 33.4839H21.0832C21.9332 33.4839 22.6227 32.7944 22.6227 31.9444V30.0556C22.6227 29.2056 21.9332 28.5161 21.0832 28.5161H19.1944C18.3444 28.5161 17.6549 29.2056 17.6549 30.0556V31.9444C17.6644 32.7944 18.3444 33.4839 19.1944 33.4839ZM18.8449 30.0556C18.8449 29.8572 19.0055 29.6967 19.2038 29.6967H21.0927C21.291 29.6967 21.4516 29.8572 21.4516 30.0556V31.9444C21.4516 32.1428 21.291 32.3033 21.0927 32.3033H19.2038C19.0055 32.3033 18.8449 32.1428 18.8449 31.9444V30.0556Z" fill="#ED79B8"/>
<path d="M17.3055 36.3172H32.0011C32.7188 39.6228 35.6277 41.9839 39.0277 41.9839C42.9944 41.9839 46.2338 38.7539 46.2338 34.7778C46.2338 30.9906 43.3533 27.9117 39.6227 27.6094V21.5556C39.6227 20.7056 38.9333 20.0161 38.0833 20.0161H17.3055C16.4555 20.0256 15.7755 20.7056 15.7755 21.5556V34.7778C15.7755 35.6278 16.4555 36.3172 17.3055 36.3172ZM45.0533 34.7778C45.0533 38.1022 42.3522 40.8033 39.0277 40.8033C35.7033 40.8033 33.0022 38.1022 33.0022 34.7778C33.0022 31.4533 35.7033 28.7522 39.0277 28.7522C42.3522 28.7522 45.0533 31.4533 45.0533 34.7778ZM16.9561 21.5556C16.9561 21.3572 17.1166 21.1967 17.315 21.1967H38.0927C38.2911 21.1967 38.4516 21.3572 38.4516 21.5556V21.9144H38.0833C37.885 21.9144 37.715 22.0183 37.6111 22.1694C37.5072 22.0183 37.3372 21.9144 37.1388 21.9144H36.1944C35.9961 21.9144 35.8261 22.0183 35.7222 22.1694C35.6183 22.0183 35.4483 21.9144 35.25 21.9144H34.3055C34.1072 21.9144 33.9372 22.0183 33.8333 22.1694C33.7294 22.0183 33.5594 21.9144 33.3611 21.9144H32.4166C32.2183 21.9144 32.0483 22.0183 31.9444 22.1694C31.8405 22.0183 31.6705 21.9144 31.4722 21.9144H30.5277C30.3294 21.9144 30.1594 22.0183 30.0555 22.1694C29.9516 22.0183 29.7816 21.9144 29.5833 21.9144H28.6388C28.4405 21.9144 28.2705 22.0183 28.1666 22.1694C28.0627 22.0183 27.8927 21.9144 27.6944 21.9144H26.75C26.5516 21.9144 26.3816 22.0183 26.2777 22.1694C26.1738 22.0183 26.0038 21.9144 25.8055 21.9144H24.8611C24.6627 21.9144 24.4927 22.0183 24.3888 22.1694C24.285 22.0183 24.115 21.9144 23.9166 21.9144H22.9722C22.7738 21.9144 22.6038 22.0183 22.5 22.1694C22.3961 22.0183 22.2261 21.9144 22.0277 21.9144H21.0833C20.885 21.9144 20.715 22.0183 20.6111 22.1694C20.5072 22.0183 20.3372 21.9144 20.1388 21.9144H19.1944C18.9961 21.9144 18.8261 22.0183 18.7222 22.1694C18.6183 22.0183 18.4483 21.9144 18.25 21.9144H17.3055C17.1733 21.9144 17.0505 21.9711 16.9466 22.0467V21.5556H16.9561ZM16.9561 22.9628C17.0505 23.0383 17.1733 23.095 17.3055 23.095H18.25C18.4483 23.095 18.6183 22.9911 18.7222 22.84C18.8261 22.9911 18.9961 23.095 19.1944 23.095H20.1388C20.3372 23.095 20.5072 22.9911 20.6111 22.84C20.715 22.9911 20.885 23.095 21.0833 23.095H22.0277C22.2261 23.095 22.3961 22.9911 22.5 22.84C22.6038 22.9911 22.7738 23.095 22.9722 23.095H23.9166C24.115 23.095 24.285 22.9911 24.3888 22.84C24.4927 22.9911 24.6627 23.095 24.8611 23.095H25.8055C26.0038 23.095 26.1738 22.9911 26.2777 22.84C26.3816 22.9911 26.5516 23.095 26.75 23.095H27.6944C27.8927 23.095 28.0627 22.9911 28.1666 22.84C28.2705 22.9911 28.4405 23.095 28.6388 23.095H29.5833C29.7816 23.095 29.9516 22.9911 30.0555 22.84C30.1594 22.9911 30.3294 23.095 30.5277 23.095H31.4722C31.6705 23.095 31.8405 22.9911 31.9444 22.84C32.0483 22.9911 32.2183 23.095 32.4166 23.095H33.3611C33.5594 23.095 33.7294 22.9911 33.8333 22.84C33.9372 22.9911 34.1072 23.095 34.3055 23.095H35.25C35.4483 23.095 35.6183 22.9911 35.7222 22.84C35.8261 22.9911 35.9961 23.095 36.1944 23.095H37.1388C37.3372 23.095 37.5072 22.9911 37.6111 22.84C37.715 22.9911 37.885 23.095 38.0833 23.095H38.4422V23.8033H16.9561V22.9628ZM16.9561 24.9839H38.4422V27.6094C34.7116 27.9117 31.8311 31 31.8311 34.7778C31.8311 34.9006 31.8311 35.0139 31.8405 35.1367H17.3055C17.1072 35.1367 16.9466 34.9761 16.9466 34.7778V24.9839H16.9561Z" fill="#ED79B8"/>
</g>
<defs>
<clipPath id="clip0">
<rect width="34" height="42.5" fill="white" transform="translate(14 14)"/>
</clipPath>
</defs>
</svg>
