<svg width="18" height="18" viewBox="0 0 18 18" fill="none" xmlns="http://www.w3.org/2000/svg">
<path fill-rule="evenodd" clip-rule="evenodd" d="M1.8 0H16.2C16.6774 0 17.1352 0.189642 17.4728 0.527208C17.8104 0.864773 18 1.32261 18 1.8V16.2C18 16.6774 17.8104 17.1352 17.4728 17.4728C17.1352 17.8104 16.6774 18 16.2 18H1.8C1.32261 18 0.864773 17.8104 0.527208 17.4728C0.189642 17.1352 0 16.6774 0 16.2V1.8C0 1.32261 0.189642 0.864773 0.527208 0.527208C0.864773 0.189642 1.32261 0 1.8 0V0ZM1.8 4.5V16.2H16.2V4.5H1.8ZM13.7673 11.7693C13.9428 11.7693 14.0922 11.8296 14.2155 11.9511C14.275 12.0079 14.3222 12.0764 14.3539 12.1523C14.3857 12.2282 14.4014 12.3098 14.4 12.3921V12.8079C14.4014 12.8902 14.3857 12.9718 14.3539 13.0477C14.3222 13.1236 14.275 13.1921 14.2155 13.2489C14.157 13.3079 14.0871 13.3545 14.01 13.3857C13.933 13.417 13.8504 13.4323 13.7673 13.4307H6.975V14.6772C6.97636 14.7595 6.96067 14.8411 6.92892 14.917C6.89716 14.9929 6.85004 15.0614 6.7905 15.1182C6.73197 15.1772 6.66207 15.2238 6.58503 15.255C6.50799 15.2863 6.42542 15.3016 6.3423 15.3C6.25918 15.3016 6.17661 15.2863 6.09957 15.255C6.02253 15.2238 5.95263 15.1772 5.8941 15.1182L3.7845 13.041C3.72496 12.9842 3.67784 12.9157 3.64608 12.8398C3.61433 12.7639 3.59864 12.6823 3.6 12.6C3.6 12.4272 3.6612 12.2796 3.7845 12.159L5.8941 10.0818C5.95263 10.0228 6.02253 9.97621 6.09957 9.94497C6.17661 9.91372 6.25918 9.89842 6.3423 9.9C6.5178 9.9 6.6672 9.9603 6.7905 10.0818C6.85004 10.1386 6.89716 10.2071 6.92892 10.283C6.96067 10.3589 6.97636 10.4405 6.975 10.5228V11.7693H13.7673ZM3.6 8.307V7.8912C3.6 7.7184 3.6612 7.5708 3.7845 7.4502C3.84303 7.39116 3.91293 7.34461 3.98997 7.31336C4.06701 7.28212 4.14958 7.26682 4.2327 7.2684H11.025V6.0228C11.025 5.85 11.0862 5.7033 11.2095 5.5818C11.268 5.52276 11.3379 5.47621 11.415 5.44497C11.492 5.41372 11.5746 5.39842 11.6577 5.4C11.8332 5.4 11.9826 5.4603 12.1059 5.5818L14.2155 7.659C14.275 7.71579 14.3222 7.78429 14.3539 7.86018C14.3857 7.93608 14.4014 8.01774 14.4 8.1C14.4014 8.18226 14.3857 8.26392 14.3539 8.33982C14.3222 8.41571 14.275 8.48421 14.2155 8.541L12.1059 10.6182C12.0474 10.6772 11.9775 10.7238 11.9004 10.755C11.8234 10.7863 11.7408 10.8016 11.6577 10.8C11.5746 10.8016 11.492 10.7863 11.415 10.755C11.3379 10.7238 11.268 10.6772 11.2095 10.6182C11.15 10.5614 11.1028 10.4929 11.0711 10.417C11.0393 10.3411 11.0236 10.2595 11.025 10.1772V8.9307H4.2327C4.14958 8.93228 4.06701 8.91698 3.98997 8.88573C3.91293 8.85449 3.84303 8.80794 3.7845 8.7489C3.72496 8.69211 3.67784 8.62361 3.64608 8.54772C3.61433 8.47182 3.59864 8.39016 3.6 8.3079V8.307Z" fill="#444444" fill-opacity="0.5"/>
</svg>
