<svg width="56" height="56" viewBox="0 0 56 56" fill="none" xmlns="http://www.w3.org/2000/svg">
<circle cx="28" cy="28" r="28" fill="#ECFFDC"/>
<path d="M26.9956 32.6691C27.1942 32.4701 27.1942 32.1482 26.9956 31.9492C26.7969 31.7509 26.4749 31.7509 26.276 31.9492C26.0776 32.1482 26.0776 32.4701 26.276 32.6691C26.4749 32.8674 26.7969 32.8674 26.9956 32.6691Z" fill="#99CB6D" stroke="#99CB6D" stroke-width="0.516432"/>
<path d="M24.5889 20.5953C24.5889 23.6805 27.0989 26.1908 30.1841 26.1908C33.2694 26.1908 35.7794 23.6805 35.7794 20.5953C35.7794 17.5101 33.2694 15 30.1841 15C27.0989 15 24.5889 17.5101 24.5889 20.5953ZM34.7622 20.5953C34.7622 23.1197 32.7085 25.1734 30.1841 25.1734C27.6598 25.1734 25.6061 23.1197 25.6061 20.5953C25.6061 18.0712 27.6598 16.0174 30.1841 16.0174C32.7085 16.0174 34.7622 18.0712 34.7622 20.5953Z" fill="#99CB6D" stroke="#99CB6D" stroke-width="0.516432"/>
<path d="M20.885 40.9004C21.0821 41.0991 21.4031 41.1013 21.6029 40.9045L24.069 38.475C24.488 38.056 24.6154 37.4357 24.4311 36.8965L24.9616 36.3849C25.2472 36.109 25.6232 35.957 26.0207 35.957H32.7829C33.9826 35.957 35.1164 35.4963 35.976 34.6597C36.0114 34.6254 35.7075 34.9833 40.5893 29.1487C41.3133 28.2921 41.205 27.0058 40.3476 26.2809C39.4956 25.5628 38.2192 25.666 37.4931 26.5079L34.4916 29.5929C34.1125 29.1265 33.5346 28.8357 32.9101 28.8357H27.2379C26.4308 28.498 25.5743 28.3271 24.6907 28.3271C22.2413 28.3271 20.1025 29.4584 18.9547 31.5795C18.4711 31.4879 17.9611 31.6341 17.5942 32.001L15.1744 34.428C14.9769 34.6262 14.9765 34.9467 15.1736 35.1455L20.885 40.9004ZM24.6905 29.3443C25.4696 29.3443 26.2229 29.5011 26.9298 29.8104C26.9942 29.8386 27.0636 29.8531 27.1338 29.8531H32.9101C33.4616 29.8531 33.9275 30.3029 33.9275 30.8703C33.9275 31.4314 33.4712 31.8877 32.9101 31.8877H28.7599C28.4791 31.8877 28.2513 32.1155 28.2513 32.3964C28.2513 32.6774 28.4791 32.905 28.7599 32.905H32.9101C34.032 32.905 34.9447 31.9923 34.9447 30.8703C34.9447 30.7809 34.9384 30.6922 34.9268 30.6044C37.8304 27.6197 38.2398 27.2004 38.2573 27.1795C38.6199 26.7516 39.2634 26.6973 39.6915 27.0583C40.12 27.4206 40.1743 28.0637 39.8108 28.494L35.2484 33.9482C34.5822 34.5878 33.7075 34.9398 32.7829 34.9398H26.0207C25.3581 34.9398 24.7308 35.1932 24.255 35.6529L23.8227 36.0701L19.8377 32.0853C20.7691 30.3381 22.5167 29.3443 24.6905 29.3443ZM18.3141 32.7199C18.4819 32.5522 18.7394 32.522 18.944 32.6484C19.032 32.702 18.7792 32.4719 23.3497 37.036C23.553 37.2394 23.5421 37.5633 23.3525 37.7529L21.2501 39.8241L16.2521 34.7879L18.3141 32.7199Z" fill="#99CB6D" stroke="#99CB6D" stroke-width="0.516432"/>
<path d="M29.5746 17.5434V18.1395C28.9825 18.3494 28.5572 18.9148 28.5572 19.5781C28.5572 20.4194 29.2417 21.1041 30.0832 21.1041C30.3636 21.1041 30.5918 21.3323 30.5918 21.6127C30.5918 21.8931 30.3636 22.1213 30.0832 22.1213C29.866 22.1213 29.6312 21.9848 29.4227 21.7365C29.2419 21.5215 28.9211 21.4938 28.706 21.6745C28.491 21.8554 28.4632 22.1762 28.644 22.3912C28.9159 22.7146 29.2357 22.94 29.5746 23.0537V23.6473C29.5746 23.9284 29.8024 24.1559 30.0832 24.1559C30.364 24.1559 30.5918 23.9284 30.5918 23.6473V23.0513C31.1839 22.8412 31.6092 22.2757 31.6092 21.6127C31.6092 20.7712 30.9247 20.0867 30.0832 20.0867C29.8028 20.0867 29.5746 19.8585 29.5746 19.5781C29.5746 19.2976 29.8028 19.0693 30.0832 19.0693C30.2635 19.0693 30.4537 19.1613 30.6333 19.3352C30.8353 19.5306 31.1573 19.5252 31.3526 19.3235C31.548 19.1215 31.5426 18.7996 31.3409 18.6042C31.0827 18.3544 30.8243 18.213 30.5918 18.1359V17.5434C30.5918 17.2624 30.364 17.0346 30.0832 17.0346C29.8024 17.0346 29.5746 17.2624 29.5746 17.5434Z" fill="#99CB6D"/>
</svg>
