<svg width="21" height="22" viewBox="0 0 21 22" fill="none" xmlns="http://www.w3.org/2000/svg">
<path fill-rule="evenodd" clip-rule="evenodd" d="M20.443 13.5652L18.6125 12.5082C18.7973 11.5113 18.7973 10.4887 18.6125 9.4918L20.443 8.43477C20.6536 8.31445 20.7481 8.06524 20.6793 7.8332C20.2024 6.30352 19.3903 4.91992 18.3289 3.76836C18.1657 3.59219 17.8993 3.54922 17.693 3.66953L15.8625 4.72656C15.0934 4.06484 14.2082 3.55352 13.25 3.21836V1.10859C13.25 0.867969 13.0825 0.657422 12.8461 0.60586C11.2692 0.253516 9.65356 0.270704 8.15395 0.60586C7.91762 0.657422 7.75004 0.867969 7.75004 1.10859V3.22266C6.79613 3.56211 5.91098 4.07344 5.13754 4.73086L3.31137 3.67383C3.10082 3.55352 2.83871 3.59219 2.67543 3.77266C1.61411 4.91992 0.801996 6.30352 0.325043 7.8375C0.251996 8.06953 0.350824 8.31875 0.561371 8.43906L2.39184 9.4961C2.20707 10.493 2.20707 11.5156 2.39184 12.5125L0.561371 13.5695C0.350824 13.6898 0.256293 13.9391 0.325043 14.1711C0.801996 15.7008 1.61411 17.0844 2.67543 18.2359C2.83871 18.4121 3.10512 18.4551 3.31137 18.3348L5.14184 17.2777C5.91098 17.9395 6.79614 18.4508 7.75434 18.7859V20.9C7.75434 21.1406 7.92192 21.3512 8.15824 21.4027C9.7352 21.7551 11.3508 21.7379 12.8504 21.4027C13.0868 21.3512 13.2543 21.1406 13.2543 20.9V18.7859C14.2082 18.4465 15.0934 17.9352 15.8668 17.2777L17.6973 18.3348C17.9078 18.4551 18.17 18.4164 18.3332 18.2359C19.3946 17.0887 20.2067 15.7051 20.6836 14.1711C20.7481 13.9348 20.6536 13.6855 20.443 13.5652ZM10.5 14.4375C8.60512 14.4375 7.06254 12.8949 7.06254 11C7.06254 9.10508 8.60512 7.5625 10.5 7.5625C12.395 7.5625 13.9375 9.10508 13.9375 11C13.9375 12.8949 12.395 14.4375 10.5 14.4375Z" fill="#444444" fill-opacity="0.5"/>
</svg>
