<svg width="17" height="20" viewBox="0 0 17 20" fill="none" xmlns="http://www.w3.org/2000/svg">
<g clip-path="url(#clip0)">
<path fill-rule="evenodd" clip-rule="evenodd" d="M8.97222 9.04464C7.84505 9.04464 6.76405 8.60923 5.96702 7.83421C5.16999 7.05918 4.72222 6.00802 4.72222 4.91197C4.72222 3.81592 5.16999 2.76475 5.96702 1.98973C6.76405 1.2147 7.84505 0.779297 8.97222 0.779297C10.0994 0.779297 11.1804 1.2147 11.9774 1.98973C12.7745 2.76475 13.2222 3.81592 13.2222 4.91197C13.2222 6.00802 12.7745 7.05918 11.9774 7.83421C11.1804 8.60923 10.0994 9.04464 8.97222 9.04464ZM0 19.1467C0 14.6008 3.825 10.8814 8.5 10.8814C13.175 10.8814 17 14.6008 17 19.1467H0Z" fill="white"/>
</g>
<defs>
<clipPath id="clip0">
<rect width="17" height="18.3674" fill="white" transform="translate(0 0.779297)"/>
</clipPath>
</defs>
</svg>
