<svg width="17" height="19" viewBox="0 0 17 19" fill="none" xmlns="http://www.w3.org/2000/svg">
<path fill-rule="evenodd" clip-rule="evenodd" d="M8.97222 8.26534C7.84505 8.26534 6.76405 7.82994 5.96702 7.05491C5.16999 6.27988 4.72222 5.22872 4.72222 4.13267C4.72222 3.03662 5.16999 1.98546 5.96702 1.21043C6.76405 0.435405 7.84505 0 8.97222 0C10.0994 0 11.1804 0.435405 11.9774 1.21043C12.7745 1.98546 13.2222 3.03662 13.2222 4.13267C13.2222 5.22872 12.7745 6.27988 11.9774 7.05491C11.1804 7.82994 10.0994 8.26534 8.97222 8.26534ZM0 18.3674C0 13.8215 3.825 10.1021 8.5 10.1021C13.175 10.1021 17 13.8215 17 18.3674H0Z" fill="#444444" fill-opacity="0.5"/>
</svg>
