<svg width="185" height="188" viewBox="0 0 185 188" fill="none" xmlns="http://www.w3.org/2000/svg">
<path opacity="0.6" fill-rule="evenodd" clip-rule="evenodd" d="M56.7522 33.7091C74.7522 23.4706 79.9748 63.2764 99.2132 70.8932C118.353 78.4709 143.724 49.5177 157.663 73.6613C164.225 93.6398 160.48 115.506 148.751 132.985C136.903 150.644 118.061 163.199 96.8257 164.33C76.1015 165.434 57.3903 154.052 43.5831 138.585C30.1527 123.541 22.6869 104.116 25.2006 84.0972C27.7968 63.4215 38.624 44.0205 56.7522 33.7091Z" fill="#FFEAEA"/>
<path d="M67.2297 57H53.4459C51.4496 57 50 58.4712 50 60.4974V128.114C50 130.14 51.4496 131.611 53.4459 131.611H131.554C133.55 131.611 135 130.14 135 128.114V60.4974C135 58.4712 133.55 57 131.554 57H67.2297ZM52.2973 128.114V60.4974C52.2973 59.7676 52.7269 59.3316 53.4459 59.3316H66.0811V129.28H53.4459C52.7269 129.28 52.2973 128.844 52.2973 128.114ZM68.3784 129.28V59.3316H116.622V129.28H68.3784ZM132.703 60.4974V128.114C132.703 128.844 132.273 129.28 131.554 129.28H118.919V59.3316H131.554C132.273 59.3316 132.703 59.7676 132.703 60.4974Z" fill="#444444" stroke="#444444"/>
<path d="M83.9471 80.5112C83.7738 80.3942 83.5725 80.3271 83.3646 80.3168C83.1567 80.3065 82.95 80.3536 82.7663 80.4529C82.5837 80.5532 82.4312 80.7017 82.3249 80.8827C82.2185 81.0637 82.1623 81.2704 82.1621 81.4811V109.46C82.1622 109.671 82.2187 109.878 82.3255 110.059C82.4323 110.24 82.5854 110.388 82.7686 110.487C82.9518 110.587 83.1581 110.634 83.3656 110.624C83.5732 110.614 83.7741 110.547 83.9471 110.43L104.623 96.4407C104.78 96.3339 104.908 96.1895 104.997 96.0203C105.086 95.8512 105.132 95.6624 105.132 95.4707C105.132 95.279 105.086 95.0903 104.997 94.9211C104.908 94.752 104.78 94.6076 104.623 94.5008L83.9471 80.5112ZM91.0557 88.1221L84.4594 83.6589L101.917 95.4707L91.0557 88.1221Z" fill="#F4263E"/>
<path d="M63 66H56V68H63V66Z" fill="#444444"/>
<path d="M63 75H56V77H63V75Z" fill="#444444"/>
<path d="M63 84H56V86H63V84Z" fill="#444444"/>
<path d="M63 93H56V95H63V93Z" fill="#444444"/>
<path d="M63 102H56V104H63V102Z" fill="#444444"/>
<path d="M63 111H56V113H63V111Z" fill="#444444"/>
<path d="M63 120H56V122H63V120Z" fill="#444444"/>
<path d="M129 67H122V69H129V67Z" fill="#444444"/>
<path d="M129 76H122V78H129V76Z" fill="#444444"/>
<path d="M129 85H122V87H129V85Z" fill="#444444"/>
<path d="M129 94H122V96H129V94Z" fill="#444444"/>
<path d="M129 103H122V105H129V103Z" fill="#444444"/>
<path d="M129 112H122V114H129V112Z" fill="#444444"/>
<path d="M129 121H122V123H129V121Z" fill="#444444"/>
</svg>
