<svg width="32" height="32" viewBox="0 0 32 32" fill="none" xmlns="http://www.w3.org/2000/svg">
<circle cx="16" cy="16" r="16" fill="#4BBD5D"/>
<path d="M24.25 10.75H9.25C9.05109 10.75 8.86032 10.671 8.71967 10.5303C8.57902 10.3897 8.5 10.1989 8.5 10C8.5 9.80109 8.57902 9.61032 8.71967 9.46967C8.86032 9.32902 9.05109 9.25 9.25 9.25H22C22.1989 9.25 22.3897 9.17098 22.5303 9.03033C22.671 8.88968 22.75 8.69891 22.75 8.5C22.75 8.30109 22.671 8.11032 22.5303 7.96967C22.3897 7.82902 22.1989 7.75 22 7.75H9.25C8.65347 7.75068 8.08157 7.98795 7.65976 8.40976C7.23795 8.83157 7.00068 9.40347 7 10V22C7.00068 22.5965 7.23795 23.1684 7.65976 23.5902C8.08157 24.012 8.65347 24.2493 9.25 24.25H24.25C24.6477 24.2495 25.029 24.0914 25.3102 23.8102C25.5914 23.529 25.7495 23.1477 25.75 22.75V12.25C25.7495 11.8523 25.5914 11.471 25.3102 11.1898C25.029 10.9086 24.6477 10.7505 24.25 10.75ZM20.875 18.625C20.6525 18.625 20.435 18.559 20.25 18.4354C20.065 18.3118 19.9208 18.1361 19.8356 17.9305C19.7505 17.725 19.7282 17.4988 19.7716 17.2805C19.815 17.0623 19.9222 16.8618 20.0795 16.7045C20.2368 16.5472 20.4373 16.44 20.6555 16.3966C20.8738 16.3532 21.1 16.3755 21.3055 16.4606C21.5111 16.5458 21.6868 16.69 21.8104 16.875C21.934 17.06 22 17.2775 22 17.5C22 17.7984 21.8815 18.0845 21.6705 18.2955C21.4595 18.5065 21.1734 18.625 20.875 18.625Z" fill="white"/>
</svg>
