<svg xmlns="http://www.w3.org/2000/svg" width="80" height="80" viewBox="0 0 80 80">
    <g fill="none" fill-rule="evenodd">
        <path fill="#000" d="M63 46h-2V16a2 2 0 0 0-2-2H21a2 2 0 0 0-2 2v48a2 2 0 0 0 2 2h21v2H21a4 4 0 0 1-4-4V16a4 4 0 0 1 4-4h38a4 4 0 0 1 4 4v30z"/>
        <circle cx="55.5" cy="59.5" r="10.5" stroke="#f4263e" stroke-width="2"/>
        <path stroke="#f4263e" stroke-width="2" d="M51 59.496l2.845 2.846L60.187 56"/>
        <path fill="#000" d="M33.942 24H50a1 1 0 0 1 0 2H33.942a1 1 0 1 1 0-2zm0 7H50a1 1 0 0 1 0 2H33.942a1 1 0 1 1 0-2zm0 7H50a1 1 0 0 1 0 2H33.942a1 1 0 1 1 0-2zm0 7H40a1 1 0 0 1 0 2h-6.058a1 1 0 1 1 0-2zM29 26a1 1 0 1 1 0-2 1 1 0 0 1 0 2zm0 7a1 1 0 1 1 0-2 1 1 0 0 1 0 2zm0 7a1 1 0 1 1 0-2 1 1 0 0 1 0 2zm0 7a1 1 0 1 1 0-2 1 1 0 0 1 0 2z"/>
    </g>
</svg>
