<svg width="56" height="57" viewBox="0 0 56 57" fill="none" xmlns="http://www.w3.org/2000/svg">
<circle cx="28" cy="28" r="28" fill="#FEF3F9"/>
<g clip-path="url(#clip0)">
<path d="M38.223 17.355H16.9771C16.3475 17.355 15.7437 17.6051 15.2985 18.0503C14.8533 18.4955 14.6031 19.0993 14.6031 19.7289V35.4356C14.6031 36.0652 14.8533 36.6691 15.2985 37.1143C15.7437 37.5595 16.3475 37.8096 16.9771 37.8096H22.9456L24.7998 43.0656C24.8689 43.2709 24.9938 43.4529 25.1604 43.5913C25.327 43.7297 25.5289 43.8191 25.7434 43.8494C25.9579 43.8797 26.1766 43.8497 26.375 43.7629C26.5735 43.676 26.7439 43.5357 26.8671 43.3576L30.7916 37.8096H38.223C38.8526 37.8096 39.4565 37.5595 39.9017 37.1143C40.3469 36.6691 40.597 36.0652 40.597 35.4356V19.7319C40.5974 19.4199 40.5363 19.1108 40.4171 18.8225C40.298 18.5341 40.1232 18.2721 39.9027 18.0513C39.6822 17.8306 39.4204 17.6555 39.1322 17.536C38.844 17.4165 38.535 17.355 38.223 17.355ZM24.8815 31.2425C24.8815 31.3486 24.8394 31.4503 24.7644 31.5254C24.6894 31.6004 24.5876 31.6425 24.4815 31.6425H20.9775L22.3265 24.7601H24.4844C24.5898 24.7601 24.6908 24.8019 24.7652 24.8764C24.8397 24.9509 24.8815 25.0519 24.8815 25.1572V31.2425ZM33.4401 28.5561V28.6203C33.6058 28.727 33.7327 28.8842 33.802 29.0687C33.8714 29.2531 33.8794 29.455 33.825 29.6444C33.7706 29.8338 33.6567 30.0006 33.5 30.1202C33.3434 30.2397 33.1524 30.3056 32.9553 30.3081H32.8736C32.948 30.3766 33.0077 30.4596 33.0489 30.552C33.09 30.6444 33.1119 30.7442 33.113 30.8454C33.1051 31.0264 33.0371 31.1996 32.9197 31.3377C32.8023 31.4757 32.6422 31.5706 32.4648 31.6075L32.3655 31.6279H32.018C30.9522 31.6279 28.333 31.6279 28.333 31.6279C28.333 31.6279 27.8483 31.7097 26.8 31.2629C25.7517 30.8162 25.4071 30.9943 25.4451 29.6073C25.4831 28.2203 25.4451 26.6377 25.4451 26.6377C25.415 26.3042 25.4584 25.9681 25.5725 25.6532C25.6865 25.3384 25.8683 25.0524 26.105 24.8156C26.9505 23.9996 27.5978 23.0007 27.9972 21.8956C28.2454 21.0429 28.2337 20.2808 28.9987 20.056C29.7638 19.8311 29.9974 20.7772 29.9974 20.7772C29.9974 20.7772 30.3361 21.4196 29.8981 22.6957C29.4601 23.9717 28.9374 24.6959 29.6499 24.7134C30.3624 24.7309 33.2532 24.7805 33.2532 24.7805C33.4707 24.8075 33.6715 24.911 33.8197 25.0725C33.969 25.2226 34.0547 25.4245 34.0591 25.6361C34.0536 25.8227 33.9885 26.0027 33.8735 26.1498C33.7585 26.2969 33.5994 26.4034 33.4196 26.4537V26.5413C33.6442 26.596 33.8441 26.7239 33.9878 26.9049C34.1315 27.0859 34.2108 27.3097 34.2131 27.5408C34.2155 27.7718 34.1407 27.9971 34.0007 28.181C33.8607 28.3649 33.6635 28.4969 33.4401 28.5561Z" fill="#ED79B8"/>
</g>
<defs>
<clipPath id="clip0">
<rect width="34" height="42.5" fill="white" transform="translate(14 14)"/>
</clipPath>
</defs>
</svg>
