<?xml version="1.0" standalone="no"?>
<!DOCTYPE svg PUBLIC "-//W3C//DTD SVG 20010904//EN"
 "http://www.w3.org/TR/2001/REC-SVG-20010904/DTD/svg10.dtd">
<svg version="1.0" xmlns="http://www.w3.org/2000/svg"
 width="526.000000pt" height="284.000000pt" viewBox="0 0 526.000000 284.000000"
 preserveAspectRatio="xMidYMid meet">
<metadata>
Created by potrace 1.16, written by Peter Selinger 2001-2019
</metadata>
<g transform="translate(0.000000,284.000000) scale(0.100000,-0.100000)"
fill="#f4263e" stroke="none">
<path d="M827 2294 c-345 -62 -624 -285 -722 -577 -52 -155 -59 -482 -15 -652
80 -300 327 -532 669 -627 72 -21 102 -22 629 -25 454 -3 552 -2 546 9 -4 7
-19 31 -34 53 -46 69 -109 191 -150 287 l-39 93 -423 5 -423 5 -68 32 c-128
61 -207 171 -228 320 -16 114 -6 304 21 375 41 110 154 201 283 228 37 7 307
10 867 8 l815 -3 57 -27 c132 -62 193 -156 210 -322 16 -169 76 -245 198 -254
73 -5 122 11 173 57 65 59 82 107 80 231 -7 417 -309 723 -778 790 -42 6 -375
9 -830 9 -610 -1 -775 -4 -838 -15z"/>
<path d="M3334 2223 c67 -110 100 -176 142 -278 l32 -80 424 -5 423 -5 67 -32
c119 -56 204 -165 228 -292 14 -76 12 -286 -4 -352 -32 -140 -146 -248 -292
-279 -32 -7 -325 -10 -869 -8 l-820 3 -57 27 c-131 61 -193 158 -209 326 -15
162 -73 237 -192 249 -104 11 -195 -43 -237 -139 -45 -104 -23 -307 50 -465
104 -224 295 -373 578 -451 l97 -27 845 0 845 0 98 28 c358 100 606 353 662
672 17 100 20 344 5 449 -49 336 -310 611 -675 713 l-100 27 -547 4 -548 3 54
-88z"/>
</g>
</svg>
