<svg width="52" height="55" viewBox="0 0 52 55" fill="none" xmlns="http://www.w3.org/2000/svg">
    <g filter="url(#filter0_d_1_26)">
        <path
            d="M25.8644 47.299C25.6457 47.2762 25.4426 47.272 25.2401 47.2507C20.7228 46.7749 16.502 44.7755 13.272 41.582C10.042 38.3882 7.99528 34.1903 7.46842 29.6786C6.94159 25.1669 7.96606 20.6103 10.3733 16.7584C12.7805 12.9064 16.4272 9.98849 20.7133 8.48465L21.9106 9.0692C22.3197 9.27014 22.7793 9.34523 23.2311 9.28499C23.6829 9.22475 24.1067 9.03188 24.449 8.7308C24.7913 8.42969 25.0364 8.0339 25.1537 7.59341C25.271 7.15295 25.2551 6.68759 25.1078 6.25619C24.9605 5.82479 24.6887 5.44673 24.3267 5.1698C23.9647 4.89287 23.5286 4.72952 23.0738 4.70042C22.6189 4.67129 22.1656 4.7777 21.7712 5.00621C21.3767 5.23472 21.059 5.57504 20.858 5.98415L20.2734 7.18142C15.6906 8.78738 11.7912 11.9058 9.21706 16.0234C6.64291 20.141 5.54743 25.0123 6.11095 29.8355C6.67447 34.6586 8.86339 39.1463 12.3174 42.5597C15.7714 45.9728 20.2847 48.1084 25.1144 48.6145C25.316 48.6358 25.5344 48.6589 25.7732 48.6667C25.9562 48.6808 26.1374 48.622 26.2775 48.5029C26.4173 48.3838 26.5043 48.2143 26.5196 48.0313C26.5262 47.8483 26.462 47.6698 26.3402 47.5333C26.2184 47.3968 26.0483 47.3125 25.8659 47.2981"
            fill="black" />
    </g>
    <g filter="url(#filter1_d_1_26)">
        <path
            d="M50.0854 11.8594C50.1049 11.5576 50.0644 11.2549 49.9663 10.9689C49.8682 10.6827 49.7146 10.4189 49.5142 10.1924C49.3138 9.96598 49.0705 9.78145 48.7984 9.64945C48.5263 9.51745 48.2308 9.44059 47.929 9.42331L46.5937 9.35083C43.6882 6.24413 40.0735 3.88706 36.0589 2.48102C32.0443 1.07501 27.7489 0.661852 23.5399 1.27685C19.3309 1.89185 15.3333 3.51674 11.8888 6.01265C8.44422 8.50858 5.65518 11.8013 3.75993 15.6095C1.86468 19.4177 0.919561 23.6281 1.00536 27.881C1.09116 32.1338 2.20533 36.3029 4.25265 40.0316C6.29997 43.76 9.21957 46.9375 12.762 49.2925C16.3043 51.6475 20.3642 53.1097 24.5947 53.5546L25.2517 53.6236C25.4341 53.6347 25.6138 53.5747 25.753 53.4562C25.8922 53.3377 25.9801 53.17 25.9981 52.9882C26.0122 52.8049 25.9534 52.6237 25.8343 52.4839C25.7152 52.3441 25.5457 52.2568 25.3627 52.2415L24.7402 52.1761C20.7327 51.7561 16.8864 50.3722 13.5299 48.1426C10.1734 45.9131 7.40649 42.9041 5.46552 39.3728C3.52458 35.8415 2.46726 31.8929 2.38389 27.8642C2.30052 23.8356 3.19359 19.8466 4.98681 16.2381C6.78003 12.6296 9.42012 9.50875 12.6815 7.1422C15.9429 4.77569 19.7287 3.23381 23.7154 2.64827C27.7021 2.06273 31.7713 2.45093 35.5756 3.77975C39.3796 5.10854 42.8056 7.33843 45.5605 10.2789L45.4732 11.5953C45.454 11.897 45.4942 12.1997 45.5923 12.4858C45.6904 12.7719 45.844 13.0358 46.0444 13.2622C46.2448 13.4887 46.4881 13.6732 46.7602 13.8052C47.0323 13.9372 47.3278 14.0141 47.6299 14.0313C48.2434 14.0679 48.8461 13.8598 49.3063 13.4526C49.7665 13.0454 50.0464 12.4723 50.0848 11.859"
            fill="#F4263E" />
    </g>
    <g filter="url(#filter2_d_1_26)">
        <path
            d="M35.8994 12.1173C35.756 11.8496 35.5613 11.6129 35.3261 11.4206C35.0912 11.2284 34.8203 11.0844 34.5296 10.997C34.2389 10.9096 33.9335 10.8804 33.6314 10.9113C33.3293 10.942 33.0365 11.0322 32.7692 11.1764L31.5626 11.8331C30.7259 11.6091 29.873 11.4513 29.0117 11.3612C24.7676 10.9151 20.52 12.1733 17.2035 14.8589C13.887 17.5446 11.7732 21.4377 11.3271 25.6819C10.881 29.9261 12.1392 34.1738 14.8248 37.4903C17.5105 40.8067 21.4036 42.9205 25.6478 43.3666C25.883 43.3912 26.1017 43.4143 26.3219 43.4203C26.4164 43.432 26.5124 43.4242 26.6039 43.3975C26.6954 43.3705 26.7803 43.3252 26.8535 43.264C26.9267 43.2031 26.9867 43.1275 27.0296 43.0423C27.0722 42.9574 27.0971 42.8641 27.1025 42.769C27.1079 42.6739 27.0935 42.5785 27.0605 42.4891C27.0275 42.3997 26.9765 42.3181 26.9105 42.2494C26.8448 42.1804 26.7653 42.1258 26.6774 42.0889C26.5895 42.052 26.495 42.0334 26.3996 42.0346C26.2148 42.0151 26.0114 42.0109 25.7927 41.9881C21.9262 41.5627 18.3854 39.6235 15.9448 36.5945C13.5042 33.5657 12.3623 29.6936 12.7689 25.8248C13.1755 21.9563 15.0975 18.4062 18.1145 15.9509C21.1316 13.4956 24.9983 12.3349 28.8686 12.7227C29.6618 12.8092 30.4478 12.9543 31.2194 13.1568L31.8311 14.2917C31.9742 14.5594 32.1692 14.7962 32.4041 14.9884C32.6393 15.1806 32.9099 15.3246 33.2006 15.412C33.4916 15.4994 33.7967 15.5285 34.0988 15.4978C34.4009 15.467 34.694 15.3769 34.961 15.2326C35.2298 15.0925 35.468 14.9 35.6615 14.6664C35.8547 14.4329 35.9993 14.163 36.0869 13.8727C36.1742 13.5824 36.2027 13.2775 36.1706 12.976C36.1382 12.6746 36.0461 12.3826 35.8994 12.1173Z"
            fill="#474747" />
    </g>
    <path
        d="M35.8189 17.5433C38.023 16.9524 39.3307 14.6867 38.7397 12.4828C38.1487 10.2789 35.8831 8.97127 33.6793 9.56218C31.4752 10.1531 30.1675 12.4187 30.7585 14.6227C31.3495 16.8266 33.6151 18.1342 35.8189 17.5433Z"
        fill="white" />
    <path
        d="M23.9568 10.1703C25.8386 9.66574 26.9762 7.80986 26.4974 6.02501C26.0189 4.24016 24.1056 3.20222 22.2239 3.70673C20.3422 4.21124 19.2047 6.06713 19.6833 7.85198C20.1618 9.63683 22.0752 10.6748 23.9568 10.1703Z"
        fill="white" />
    <path
        d="M49.0117 15.5342C50.9419 15.0167 52.087 13.0326 51.5695 11.1025C51.052 9.17234 49.0678 8.02718 47.1376 8.54468C45.2078 9.06218 44.0624 11.0464 44.5799 12.9765C45.0974 14.9066 47.0815 16.0517 49.0117 15.5342Z"
        fill="white" />
    <path
        d="M36.4213 15.4214C37.57 14.2727 37.57 12.4103 36.4213 11.2615C35.2726 10.1128 33.4102 10.1128 32.2615 11.2615C31.1128 12.4103 31.1128 14.2727 32.2615 15.4214C33.4102 16.5701 35.2726 16.5701 36.4213 15.4214Z"
        fill="#474747" />
    <path
        d="M25.2821 9.00325C26.4308 7.85452 26.4308 5.99213 25.2821 4.84343C24.1334 3.69473 22.271 3.69473 21.1223 4.84343C19.9736 5.99213 19.9736 7.85452 21.1223 9.00325C22.271 10.1519 24.1334 10.1519 25.2821 9.00325Z"
        fill="black" />
    <path
        d="M50.2213 14.2214C51.37 13.0727 51.37 11.2102 50.2213 10.0615C49.0726 8.91282 47.2102 8.91282 46.0615 10.0615C44.9128 11.2102 44.9128 13.0727 46.0615 14.2214C47.2102 15.37 49.0726 15.37 50.2213 14.2214Z"
        fill="#F4263E" />
    <defs>
        <filter id="filter0_d_1_26" x="5.12894" y="4.27693" width="22.2286" height="45.6482"
            filterUnits="userSpaceOnUse" color-interpolation-filters="sRGB">
            <feFlood flood-opacity="0" result="BackgroundImageFix" />
            <feColorMatrix in="SourceAlpha" type="matrix" values="0 0 0 0 0 0 0 0 0 0 0 0 0 0 0 0 0 0 127 0"
                result="hardAlpha" />
            <feOffset dy="0.418778" />
            <feGaussianBlur stdDeviation="0.418778" />
            <feColorMatrix type="matrix" values="0 0 0 0 0.333333 0 0 0 0 0.333333 0 0 0 0 0.333333 0 0 0 0.4 0" />
            <feBlend mode="normal" in2="BackgroundImageFix" result="effect1_dropShadow_1_26" />
            <feBlend mode="normal" in="SourceGraphic" in2="effect1_dropShadow_1_26" result="shape" />
        </filter>
        <filter id="filter1_d_1_26" x="0.162444" y="0.581222" width="50.7653" height="54.3001"
            filterUnits="userSpaceOnUse" color-interpolation-filters="sRGB">
            <feFlood flood-opacity="0" result="BackgroundImageFix" />
            <feColorMatrix in="SourceAlpha" type="matrix" values="0 0 0 0 0 0 0 0 0 0 0 0 0 0 0 0 0 0 127 0"
                result="hardAlpha" />
            <feOffset dy="0.418778" />
            <feGaussianBlur stdDeviation="0.418778" />
            <feColorMatrix type="matrix" values="0 0 0 0 0.929412 0 0 0 0 0.145098 0 0 0 0 0.141176 0 0 0 0.4 0" />
            <feBlend mode="normal" in2="BackgroundImageFix" result="effect1_dropShadow_1_26" />
            <feBlend mode="normal" in="SourceGraphic" in2="effect1_dropShadow_1_26" result="shape" />
        </filter>
        <filter id="filter2_d_1_26" x="10.4013" y="10.4806" width="26.6196" height="34.2014"
            filterUnits="userSpaceOnUse" color-interpolation-filters="sRGB">
            <feFlood flood-opacity="0" result="BackgroundImageFix" />
            <feColorMatrix in="SourceAlpha" type="matrix" values="0 0 0 0 0 0 0 0 0 0 0 0 0 0 0 0 0 0 127 0"
                result="hardAlpha" />
            <feOffset dy="0.418778" />
            <feGaussianBlur stdDeviation="0.418778" />
            <feColorMatrix type="matrix" values="0 0 0 0 0 0 0 0 0 0 0 0 0 0 0 0 0 0 0.4 0" />
            <feBlend mode="normal" in2="BackgroundImageFix" result="effect1_dropShadow_1_26" />
            <feBlend mode="normal" in="SourceGraphic" in2="effect1_dropShadow_1_26" result="shape" />
        </filter>
    </defs>
</svg>