<svg width="24" height="24" viewBox="0 0 24 24" fill="none" xmlns="http://www.w3.org/2000/svg">
<rect x="0.5" y="0.5" width="23" height="23" rx="11.5" fill="white"/>
<path d="M20.3358 13.852L19.715 13.5035C19.8192 12.9993 19.872 12.4944 19.872 12C19.872 11.4984 19.8201 10.993 19.7176 10.495L20.3358 10.1479C20.5272 10.0405 20.6642 9.86692 20.7214 9.65928C20.7786 9.45164 20.7493 9.23476 20.6387 9.0486L18.9481 6.20137C18.8375 6.01521 18.6591 5.88202 18.4455 5.8264C18.2319 5.77079 18.0089 5.79932 17.8174 5.90682L17.1987 6.25414C16.4172 5.58562 15.4974 5.06822 14.5183 4.7463V4.05479C14.5183 3.61103 14.147 3.25 13.6906 3.25H10.3094C9.85296 3.25 9.48165 3.61103 9.48165 4.05479V4.74634C8.50778 5.06695 7.58927 5.58503 6.80486 6.2562L6.18253 5.90682C5.99103 5.79932 5.76797 5.77075 5.55442 5.8264C5.34088 5.88205 5.16241 6.01521 5.05185 6.20137L3.36122 9.0486C3.25066 9.23476 3.22132 9.45164 3.27852 9.65928C3.33572 9.86692 3.4727 10.0405 3.66416 10.1479L4.28497 10.4965C4.18079 11.0007 4.12799 11.5056 4.12799 12C4.12799 12.5015 4.17991 13.0069 4.2824 13.505L3.66419 13.852C3.26894 14.0739 3.13306 14.5671 3.36122 14.9514L5.05185 17.7986C5.28005 18.1829 5.78724 18.3151 6.18253 18.0932L6.80119 17.7459C7.58276 18.4144 8.5025 18.9318 9.48165 19.2537V19.9452C9.48165 20.389 9.85296 20.75 10.3094 20.75H13.6906C14.147 20.75 14.5183 20.389 14.5183 19.9452V19.2537C15.4922 18.933 16.4107 18.415 17.1952 17.7438L17.8174 18.0932C18.2127 18.3151 18.7199 18.1829 18.9481 17.7986L20.6388 14.9514C20.8669 14.5671 20.731 14.0739 20.3358 13.852ZM20.1812 14.6946L18.4906 17.5417C18.408 17.6808 18.2246 17.7286 18.0816 17.6483L17.2929 17.2055C17.1927 17.1493 17.0665 17.163 16.9815 17.2394C16.1752 17.9645 15.205 18.5116 14.176 18.8216C14.0654 18.8549 13.99 18.9543 13.99 19.0669V19.9452C13.99 20.1057 13.8557 20.2363 13.6906 20.2363H10.3094C10.1443 20.2363 10.01 20.1057 10.01 19.9452V19.067C10.01 18.9544 9.93457 18.8549 9.824 18.8216C8.78863 18.5097 7.8173 17.9633 7.01492 17.2415C6.96487 17.1965 6.90045 17.1732 6.83546 17.1732C6.79017 17.1732 6.74463 17.1845 6.70345 17.2076L5.91837 17.6483C5.77537 17.7285 5.59194 17.6808 5.50941 17.5417L3.81878 14.6946C3.73626 14.5555 3.78543 14.3772 3.92836 14.2969L4.71281 13.8565C4.81298 13.8003 4.86387 13.6873 4.83841 13.5775C4.71756 13.0567 4.65631 12.526 4.65631 12C4.65631 11.4829 4.71848 10.9526 4.84112 10.4239C4.86655 10.3142 4.81565 10.2012 4.71552 10.145L3.92836 9.70308C3.85911 9.66421 3.80959 9.60144 3.78888 9.52634C3.7682 9.45123 3.77881 9.37277 3.81878 9.30545L5.50941 6.45822C5.54939 6.39089 5.61395 6.34271 5.69123 6.3226C5.76843 6.30247 5.84916 6.31281 5.9184 6.35168L6.70708 6.79442C6.80732 6.85072 6.93356 6.83695 7.01851 6.76055C7.82487 6.03545 8.79497 5.48836 9.824 5.17839C9.9346 5.14507 10.01 5.04562 10.01 4.93305V4.05479C10.01 3.89428 10.1443 3.7637 10.3094 3.7637H13.6907C13.8557 3.7637 13.99 3.89428 13.99 4.05479V4.93305C13.99 5.04562 14.0654 5.14507 14.176 5.17839C15.2113 5.49024 16.1827 6.03664 16.9851 6.75849C17.07 6.83493 17.1963 6.84866 17.2966 6.7924L18.0816 6.35168C18.1509 6.31281 18.2316 6.30247 18.3088 6.3226C18.3861 6.34274 18.4506 6.39089 18.4906 6.45822L20.1813 9.30545C20.2212 9.37277 20.2319 9.45123 20.2112 9.52634C20.1905 9.60144 20.1409 9.66421 20.0717 9.70308L19.2872 10.1435C19.1871 10.1997 19.1362 10.3127 19.1616 10.4224C19.2825 10.9432 19.3437 11.4739 19.3437 12C19.3437 12.5171 19.2816 13.0474 19.1589 13.5761C19.1335 13.6858 19.1844 13.7988 19.2845 13.855L20.0717 14.2969C20.2146 14.3772 20.2638 14.5555 20.1812 14.6946Z" fill="#0039A6"/>
<path d="M12 6.07043C8.7304 6.07043 6.07043 8.73043 6.07043 12C6.07043 15.2695 8.7304 17.9295 12 17.9295C15.2696 17.9295 17.9295 15.2695 17.9295 12C17.9295 8.73043 15.2696 6.07043 12 6.07043ZM12 17.3425C9.05415 17.3425 6.65752 14.9458 6.65752 12C6.65752 9.05415 9.05415 6.65752 12 6.65752C14.9458 6.65752 17.3425 9.05415 17.3425 12C17.3425 14.9458 14.9458 17.3425 12 17.3425Z" fill="#0039A6"/>
<path d="M13.0959 10.454H12C11.8379 10.454 11.7065 10.5855 11.7065 10.7476V13.2525C11.7065 13.4146 11.8379 13.546 12 13.546C12.1621 13.546 12.2935 13.4146 12.2935 13.2525V12.6067H13.0959C13.6894 12.6067 14.1722 12.1239 14.1722 11.5304C14.1722 10.9369 13.6894 10.454 13.0959 10.454ZM13.0959 12.0196H12.2935V11.0411H13.0959C13.3657 11.0411 13.5851 11.2606 13.5851 11.5304C13.5851 11.8001 13.3657 12.0196 13.0959 12.0196Z" fill="#0039A6"/>
<path d="M10.3961 10.6445C10.3532 10.53 10.2437 10.454 10.1213 10.454H9.8082C9.68585 10.454 9.5763 10.5299 9.53337 10.6445L8.59403 13.1494C8.53709 13.3012 8.61403 13.4704 8.76581 13.5273C8.9176 13.5843 9.08679 13.5073 9.14374 13.3556L9.30711 12.9198H10.6224L10.7858 13.3555C10.83 13.4734 10.9418 13.5461 11.0606 13.5461C11.0949 13.5461 11.1297 13.5401 11.1637 13.5273C11.3154 13.4704 11.3924 13.3012 11.3354 13.1494L10.3961 10.6445ZM9.52726 12.3327L9.96476 11.1661L10.4023 12.3327H9.52726Z" fill="#0039A6"/>
<path d="M14.818 10.454C14.6559 10.454 14.5244 10.5855 14.5244 10.7476V13.2525C14.5244 13.4146 14.6559 13.546 14.818 13.546C14.9801 13.546 15.1115 13.4146 15.1115 13.2525V10.7476C15.1115 10.5855 14.9801 10.454 14.818 10.454Z" fill="#0039A6"/>
<rect x="0.5" y="0.5" width="23" height="23" rx="11.5" stroke="#E8E8E8"/>
</svg>
