<svg width="100" height="100" viewBox="0 0 100 100" fill="none" xmlns="http://www.w3.org/2000/svg">
<g filter="url(#filter0_d_423_1345)">
<circle cx="50" cy="46" r="32" fill="white"/>
</g>
<rect x="18" y="14" width="64" height="64" rx="32" fill="#3E66FB" fill-opacity="0.05"/>
<path d="M44.6865 50.3323C44.1776 50.3329 43.6896 50.5355 43.3299 50.8952C42.9698 51.2552 42.7676 51.7429 42.767 52.2518V55.5939C42.767 55.8787 42.9978 56.1095 43.2826 56.1095C43.5674 56.1095 43.7982 55.8787 43.7982 55.5939V54.1044H45.5743V55.5939C45.5743 55.8787 45.8052 56.1095 46.09 56.1095C46.3748 56.1095 46.6056 55.8787 46.6056 55.5939V52.2518C46.605 51.7429 46.4027 51.2552 46.043 50.8952C45.683 50.5355 45.1953 50.3329 44.6864 50.3323H44.6865ZM45.5744 53.0731H43.7983V52.2518C43.7937 52.0133 43.8852 51.7828 44.0521 51.6125C44.2191 51.4421 44.4478 51.3461 44.6862 51.3461C44.925 51.3461 45.1537 51.4421 45.3206 51.6125C45.4876 51.7828 45.5791 52.0133 45.5745 52.2518L45.5744 53.0731Z" fill="#4A5259"/>
<path d="M53.9109 50.2656C53.6261 50.2656 53.3953 50.4964 53.3953 50.7813C53.3953 51.0661 53.6261 51.2969 53.9109 51.2969H54.7988V55.0782H53.9109C53.6261 55.0782 53.3953 55.309 53.3953 55.5938C53.3953 55.8786 53.6261 56.1094 53.9109 56.1094H56.7183C57.0031 56.1094 57.2339 55.8786 57.2339 55.5938C57.2339 55.309 57.0031 55.0782 56.7183 55.0782H55.83V51.2969H56.7183C57.0031 51.2969 57.2339 51.0661 57.2339 50.7813C57.2339 50.4964 57.0031 50.2656 56.7183 50.2656H53.9109Z" fill="#4A5259"/>
<path d="M50.9825 50.2657H49.298C49.0132 50.2657 48.7824 50.4965 48.7824 50.7813V55.5938C48.7824 55.8787 49.0132 56.1095 49.298 56.1095C49.5829 56.1095 49.8137 55.8787 49.8137 55.5938V53.7032H50.9824C51.5966 53.7032 52.1638 53.3757 52.471 52.8438C52.7779 52.3119 52.7779 51.657 52.471 51.125C52.1637 50.5932 51.5965 50.2656 50.9824 50.2656L50.9825 50.2657ZM50.9825 52.6719H49.8137V51.2969H50.9825C51.3621 51.2969 51.67 51.6048 51.67 51.9844C51.67 52.3641 51.3621 52.6719 50.9825 52.6719Z" fill="#4A5259"/>
<path d="M67.3601 25H32.6406C31.4105 25.0018 30.231 25.4914 29.3612 26.3612C28.4914 27.231 28.0018 28.4105 28 29.6406V59.5467C28.0018 60.7768 28.4914 61.9564 29.3612 62.8262C30.231 63.696 31.4105 64.1855 32.6406 64.1873H38.7456L40.2409 65.6827C40.5438 65.9871 40.9536 66.1611 41.3833 66.1682C41.8126 66.1753 42.2279 66.0147 42.5406 65.7204L43.2143 65.0912V65.0915C44.2622 65.7038 45.3886 66.1713 46.5625 66.48L46.5935 67.4015C46.607 67.8305 46.7872 68.2379 47.0959 68.5361C47.4047 68.8348 47.8175 69.0011 48.2469 68.9999H51.7531C52.1825 69.0011 52.5954 68.8348 52.9041 68.5361C53.2128 68.2378 53.393 67.8305 53.4065 67.4015L53.4375 66.48C54.6124 66.1728 55.74 65.7066 56.7891 65.0949L57.4594 65.7204C57.7721 66.0147 58.1874 66.1753 58.6167 66.1682C59.0464 66.1611 59.4562 65.9871 59.7591 65.6827L61.2544 64.1873H67.3594C68.5895 64.1855 69.769 63.696 70.6388 62.8262C71.5086 61.9564 71.9982 60.7768 72 59.5467V29.6406C71.9982 28.4105 71.5086 27.231 70.6388 26.3612C69.769 25.4914 68.5895 25.0018 67.3594 25L67.3601 25ZM60.8287 29.2969H66.3288C66.8984 29.2969 67.3601 29.7586 67.3601 30.3282C67.3601 30.8979 66.8984 31.3595 66.3288 31.3595H60.8287C60.2591 31.3595 59.7975 30.8979 59.7975 30.3282C59.7975 29.7586 60.2591 29.2969 60.8287 29.2969ZM44.3286 29.2969C44.7457 29.2969 45.1217 29.5483 45.2813 29.9335C45.4409 30.319 45.3528 30.7625 45.0579 31.0575C44.7629 31.3524 44.3194 31.4405 43.9339 31.2809C43.5487 31.1213 43.2973 30.7453 43.2973 30.3282C43.2973 29.7586 43.7589 29.297 44.3286 29.297L44.3286 29.2969ZM38.8286 29.2969C39.2457 29.2969 39.6217 29.5483 39.7813 29.9335C39.9408 30.319 39.8528 30.7625 39.5578 31.0575C39.2629 31.3524 38.8194 31.4405 38.4338 31.2809C38.0487 31.1213 37.7973 30.7453 37.7973 30.3282C37.7973 29.7586 38.2589 29.297 38.8285 29.297L38.8286 29.2969ZM33.3285 29.2969C33.7456 29.2969 34.1216 29.5483 34.2812 29.9335C34.4408 30.319 34.3527 30.7625 34.0578 31.0575C33.7628 31.3524 33.3193 31.4405 32.9338 31.2809C32.5486 31.1213 32.2972 30.7453 32.2972 30.3282C32.2972 29.7586 32.7588 29.297 33.3285 29.297L33.3285 29.2969ZM50.0007 63.1568C47.4254 63.1568 44.9552 62.1338 43.1339 60.3126C41.3126 58.4913 40.2897 56.0212 40.2897 53.4458C40.2897 50.8703 41.3127 48.4003 43.1339 46.579C44.9552 44.7577 47.4253 43.7347 50.0007 43.7347C52.5762 43.7347 55.0462 44.7577 56.8675 46.579C58.6888 48.4003 59.7118 50.8703 59.7118 53.4458C59.7093 56.0206 58.6855 58.4891 56.8648 60.3097C55.0441 62.1303 52.5755 63.1543 50.0008 63.1567L50.0007 63.1568ZM70.97 59.5474C70.9688 60.5044 70.5882 61.4217 69.9118 62.0985C69.235 62.775 68.3176 63.1555 67.3606 63.1568H62.2798C62.5652 62.8511 62.7236 62.4484 62.723 62.0304C62.7224 61.6124 62.5628 61.21 62.2764 60.9052L61.6472 60.2315H61.6476C62.2599 59.1837 62.7273 58.0573 63.0361 56.8833L63.9575 56.8524C64.3866 56.8388 64.7939 56.6587 65.0922 56.3499C65.3908 56.0412 65.5571 55.6283 65.5559 55.199V51.6927C65.5571 51.2633 65.3908 50.8505 65.0922 50.5418C64.7938 50.233 64.3865 50.0529 63.9575 50.0394L63.0361 50.0084C62.7288 48.8335 62.2626 47.7058 61.6509 46.6568L62.2764 45.9865C62.5708 45.6737 62.7313 45.2585 62.7242 44.8291C62.7172 44.3994 62.5431 43.9897 62.2387 43.6868L59.7603 41.2084C59.4573 40.9039 59.0476 40.7299 58.6179 40.7228C58.1885 40.7157 57.7733 40.8763 57.4606 41.1706L56.7869 41.7998V41.7995C55.739 41.1872 54.6126 40.7198 53.4387 40.411L53.4077 39.4895C53.3942 39.0605 53.214 38.6531 52.9052 38.3549C52.5965 38.0563 52.1837 37.8899 51.7543 37.8911H48.248C47.8187 37.8899 47.4058 38.0563 47.0971 38.3549C46.7884 38.6532 46.6082 39.0605 46.5947 39.4895L46.5637 40.411C45.3888 40.7182 44.2611 41.1844 43.2121 41.7961L42.5418 41.1706C42.2291 40.8763 41.8138 40.7157 41.3844 40.7228C40.9547 40.7299 40.545 40.9039 40.2421 41.2084L37.7637 43.6868C37.4592 43.9897 37.2852 44.3994 37.2781 44.8291C37.2711 45.2585 37.4316 45.6738 37.7259 45.9865L38.3551 46.6602H38.3548C37.7425 47.708 37.2751 48.8344 36.9663 50.0084L36.0449 50.0394C35.6158 50.0529 35.2085 50.233 34.9102 50.5418C34.6116 50.8506 34.4452 51.2634 34.4465 51.6927V55.199C34.4452 55.6284 34.6116 56.0412 34.9102 56.3499C35.2085 56.6587 35.6158 56.8389 36.0449 56.8524L36.9663 56.8833C37.2735 58.0582 37.7397 59.1859 38.3514 60.2349L37.7259 60.9052C37.4396 61.21 37.28 61.6124 37.2794 62.0304C37.2787 62.4484 37.4371 62.8511 37.7225 63.1568H32.6418C31.6848 63.1556 30.7674 62.775 30.0906 62.0985C29.4142 61.4217 29.0336 60.5044 29.0323 59.5474V35.3126H70.9702L70.97 59.5474Z" fill="#4A5259"/>
<defs>
<filter id="filter0_d_423_1345" x="0" y="0" width="100" height="100" filterUnits="userSpaceOnUse" color-interpolation-filters="sRGB">
<feFlood flood-opacity="0" result="BackgroundImageFix"/>
<feColorMatrix in="SourceAlpha" type="matrix" values="0 0 0 0 0 0 0 0 0 0 0 0 0 0 0 0 0 0 127 0" result="hardAlpha"/>
<feOffset dy="4"/>
<feGaussianBlur stdDeviation="9"/>
<feComposite in2="hardAlpha" operator="out"/>
<feColorMatrix type="matrix" values="0 0 0 0 0 0 0 0 0 0 0 0 0 0 0 0 0 0 0.18 0"/>
<feBlend mode="normal" in2="BackgroundImageFix" result="effect1_dropShadow_423_1345"/>
<feBlend mode="normal" in="SourceGraphic" in2="effect1_dropShadow_423_1345" result="shape"/>
</filter>
</defs>
</svg>
