<svg width="28" height="28" viewBox="0 0 28 28" fill="none" xmlns="http://www.w3.org/2000/svg">
<rect x="0.5" y="0.5" width="27" height="27" rx="7.5" stroke="#E8E8E8"/>
<path d="M10.2962 16.8704H15.4814V18.3519H10.2962V16.8704ZM10.2962 13.9074H17.7036V15.3889H10.2962V13.9074ZM10.2962 10.9444H17.7036V12.4259H10.2962V10.9444ZM19.1851 7.98148H16.0888C15.7777 7.12222 14.9629 6.5 13.9999 6.5C13.037 6.5 12.2221 7.12222 11.911 7.98148H8.81473C8.71103 7.98148 8.61473 7.98889 8.51844 8.01111C8.22955 8.07037 7.97029 8.21852 7.77029 8.41852C7.63696 8.55185 7.52584 8.71481 7.45177 8.89259C7.3777 9.06296 7.33325 9.25556 7.33325 9.46296V19.8333C7.33325 20.0333 7.3777 20.2333 7.45177 20.4111C7.52584 20.5889 7.63696 20.7444 7.77029 20.8852C7.97029 21.0852 8.22955 21.2333 8.51844 21.2926C8.61473 21.3074 8.71103 21.3148 8.81473 21.3148H19.1851C19.9999 21.3148 20.6666 20.6481 20.6666 19.8333V9.46296C20.6666 8.64815 19.9999 7.98148 19.1851 7.98148ZM13.9999 7.7963C14.3036 7.7963 14.5555 8.04815 14.5555 8.35185C14.5555 8.65556 14.3036 8.90741 13.9999 8.90741C13.6962 8.90741 13.4444 8.65556 13.4444 8.35185C13.4444 8.04815 13.6962 7.7963 13.9999 7.7963ZM19.1851 19.8333H8.81473V9.46296H19.1851V19.8333Z" fill="#4A5259"/>
</svg>
