<svg width="16" height="17" viewBox="0 0 16 17" fill="none" xmlns="http://www.w3.org/2000/svg">
<g clip-path="url(#clip0_541_1721)">
<path d="M15 14.5C13.47 14.567 10.553 14.829 8.97 15.651C8.895 16.129 8.499 16.5 8 16.5C7.502 16.5 7.105 16.129 7.03 15.651C5.447 14.829 2.53 14.567 1 14.5C0.734784 14.5 0.48043 14.3946 0.292893 14.2071C0.105357 14.0196 0 13.7652 0 13.5L0 1.5C0 0.948 0.448 0.5 1 0.5C1.035 0.5 1.064 0.517 1.099 0.52C7.976 0.698 8 2.5 8 2.5C8 2.5 8.024 0.698 14.901 0.52C14.936 0.517 14.965 0.5 15 0.5C15.2652 0.5 15.5196 0.605357 15.7071 0.792893C15.8946 0.98043 16 1.23478 16 1.5V13.5C16 14.053 15.553 14.5 15 14.5ZM7 3.634C5.71 2.978 3.576 2.705 2 2.588V12.554C4.684 12.691 6.186 13.093 7 13.5V3.634ZM14 2.588C12.425 2.705 10.29 2.978 9 3.633V13.5C9.814 13.093 11.315 12.691 14 12.555V2.588Z" fill="#222222" fill-opacity="0.7"/>
</g>
<defs>
<clipPath id="clip0_541_1721">
<rect width="16" height="16" fill="white" transform="translate(0 0.5)"/>
</clipPath>
</defs>
</svg>
