<svg width="18" height="17" viewBox="0 0 18 17" fill="none" xmlns="http://www.w3.org/2000/svg">
<path d="M6.03044 0.75H1.63616C1.14716 0.75 0.75 1.14716 0.75 1.63615V5.58706C0.75 6.07605 1.14716 6.47321 1.63616 6.47321H6.03044C6.51944 6.47321 6.91659 6.07605 6.91659 5.58706V1.63615C6.91659 1.14716 6.51944 0.75 6.03044 0.75ZM16.3626 10.3718H11.9696C11.4806 10.3718 11.0834 10.769 11.0834 11.258V15.2089C11.0834 15.6979 11.4806 16.095 11.9696 16.095H16.3626C16.8522 16.095 17.25 15.6979 17.25 15.2089V11.258C17.25 10.769 16.8522 10.3718 16.3626 10.3718ZM6.03044 10.3718H1.63616C1.14716 10.3718 0.75 10.769 0.75 11.258V15.2089C0.75 15.6979 1.14716 16.095 1.63616 16.095H6.03044C6.51944 16.095 6.91659 15.6979 6.91659 15.2089V11.258C6.91659 10.769 6.51944 10.3718 6.03044 10.3718ZM16.3626 0.75H11.9696C11.4806 0.75 11.0834 1.14716 11.0834 1.63615V5.58706C11.0834 6.07605 11.4806 6.47321 11.9696 6.47321H16.3626C16.8522 6.47321 17.25 6.07605 17.25 5.58706V1.63615C17.25 1.14716 16.8522 0.75 16.3626 0.75Z" fill="white"/>
</svg>
