<svg
    width="23"
    height="18"
    viewBox="0 0 23 18"
    fill="none"
    xmlns="http://www.w3.org/2000/svg"
  >
    <path
      d="M20.7157 5.11066L19.3605 7.19686C20.014 8.53098 20.334 10.0102 20.2917 11.502C20.2494 12.9938 19.8461 14.4516 19.1181 15.7446H3.84719C2.90094 14.0645 2.50884 12.117 2.72903 10.1909C2.94921 8.26478 3.76997 6.46255 5.06961 5.05138C6.36926 3.64021 8.0786 2.69523 9.94424 2.35654C11.8099 2.01784 13.7325 2.30347 15.4271 3.17106L17.4654 1.78402C15.3901 0.422034 12.9285 -0.188276 10.4744 0.0507133C8.02019 0.289703 5.71523 1.36418 3.92817 3.10229C2.14111 4.84039 0.975212 7.14168 0.61697 9.63807C0.258728 12.1344 0.728839 14.6817 1.95211 16.8723C2.14438 17.2132 2.42047 17.4966 2.75293 17.6944C3.08538 17.8923 3.46264 17.9976 3.84719 18H19.1071C19.4954 18.0016 19.8772 17.8981 20.2138 17.7001C20.5505 17.502 20.83 17.2165 21.0242 16.8723C22.0394 15.0724 22.5488 13.0205 22.4963 10.9429C22.4438 8.86541 21.8314 6.84313 20.7267 5.09938L20.7157 5.11066Z"
      fill="#FFFFFF"
      fillOpacity="0.5"
    />
    <path
      d="M9.92949 12.824C10.1341 13.0337 10.3772 13.2 10.6447 13.3135C10.9122 13.427 11.1989 13.4854 11.4885 13.4854C11.7781 13.4854 12.0649 13.427 12.3324 13.3135C12.5999 13.2 12.8429 13.0337 13.0476 12.824L19.2837 3.25L9.92949 9.63264C9.7246 9.8421 9.56207 10.0908 9.45118 10.3646C9.34028 10.6384 9.2832 10.9319 9.2832 11.2283C9.2832 11.5247 9.34028 11.8182 9.45118 12.092C9.56207 12.3658 9.7246 12.6145 9.92949 12.824Z"
      fill="#FFFFFF"
      fillOpacity="0.5"
    />
    <rect
      width="2.24252"
      height="2.38042"
      transform="matrix(0.49132 -0.870979 0.860926 0.508731 2.66797 7.69971)"
      fill="#FFFFFF"
      fillOpacity="0.5"
    />
    <rect
      width="2.20359"
      height="2.42198"
      transform="matrix(0.999992 0.00402568 -0.00384303 0.999993 10.0332 2.09302)"
      fill="#FFFFFF"
      fillOpacity="0.5"
    />
  </svg>