<svg width="17" height="15" viewBox="0 0 17 15" fill="none" xmlns="http://www.w3.org/2000/svg">
<path d="M11.8823 2.43732L14.5444 5.07989C14.6566 5.19122 14.6566 5.37286 14.5444 5.48419L8.09861 11.8826L5.35972 12.1844C4.99375 12.2254 4.68385 11.9178 4.72517 11.5545L5.02917 8.83575L11.475 2.43732C11.5872 2.32599 11.7701 2.32599 11.8823 2.43732ZM16.6635 1.76642L15.2233 0.336731C14.7747 -0.108581 14.0457 -0.108581 13.5941 0.336731L12.5493 1.37384C12.4372 1.48517 12.4372 1.66681 12.5493 1.77814L15.2115 4.42071C15.3236 4.53204 15.5066 4.53204 15.6187 4.42071L16.6635 3.3836C17.1122 2.93536 17.1122 2.21173 16.6635 1.76642ZM11.3333 10.1424V13.1248H1.88889V3.74981H8.67118C8.76562 3.74981 8.85417 3.71173 8.92205 3.64728L10.1026 2.4754C10.3269 2.25275 10.1675 1.87482 9.85174 1.87482H1.41667C0.634549 1.87482 0 2.5047 0 3.28106V13.5936C0 14.3699 0.634549 14.9998 1.41667 14.9998H11.8056C12.5877 14.9998 13.2222 14.3699 13.2222 13.5936V8.97051C13.2222 8.65704 12.8415 8.50176 12.6172 8.72149L11.4366 9.89336C11.3717 9.96075 11.3333 10.0486 11.3333 10.1424Z" fill="#2B49A3"/>
</svg>
