<svg width="18" height="16" viewBox="0 0 18 16" fill="none" xmlns="http://www.w3.org/2000/svg">
<path d="M12.8015 2.47148L15.4636 5.15115C15.5758 5.26404 15.5758 5.44823 15.4636 5.56112L9.0178 12.0494L6.27891 12.3553C5.91294 12.3969 5.60304 12.085 5.64436 11.7166L5.94836 8.95972L12.3942 2.47148C12.5063 2.35859 12.6893 2.35859 12.8015 2.47148ZM17.5827 1.79117L16.1425 0.341418C15.6938 -0.110144 14.9648 -0.110144 14.5133 0.341418L13.4685 1.39308C13.3563 1.50597 13.3563 1.69016 13.4685 1.80305L16.1306 4.48272C16.2428 4.59561 16.4258 4.59561 16.5379 4.48272L17.5827 3.43105C18.0313 2.97652 18.0313 2.24273 17.5827 1.79117ZM12.2525 10.2847V13.309H2.80808V3.8024H9.59037C9.68481 3.8024 9.77336 3.76378 9.84124 3.69843L11.0218 2.5101C11.2461 2.28432 11.0867 1.90109 10.7709 1.90109H2.33586C1.55374 1.90109 0.919189 2.53981 0.919189 3.32708V13.7843C0.919189 14.5716 1.55374 15.2103 2.33586 15.2103H12.7247C13.5069 15.2103 14.1414 14.5716 14.1414 13.7843V9.09638C14.1414 8.7785 13.7607 8.62105 13.5364 8.84386L12.3558 10.0322C12.2909 10.1005 12.2525 10.1896 12.2525 10.2847Z" fill="#444444" fill-opacity="0.5"/>
</svg>
