<svg width="49" height="48" viewBox="0 0 49 48" fill="none" xmlns="http://www.w3.org/2000/svg">
  <circle cx="24.5" cy="24" r="24" fill="#FFECEE"/>
  <path fill-rule="evenodd" clip-rule="evenodd" d="M18.8646 15.2263C18.8646 15.9197 18.3026 16.482 17.6089 16.482C16.9156 16.482 16.3535 15.9197 16.3535 15.2263C16.3535 14.5329 16.9156 13.9706 17.6089 13.9706C18.3026 13.9706 18.8646 14.5329 18.8646 15.2263Z" fill="#F4263E"/>
  <path fill-rule="evenodd" clip-rule="evenodd" d="M33.9168 15.4782C33.9168 15.8936 33.5798 16.2305 33.1644 16.2305C32.7491 16.2305 32.4121 15.8936 32.4121 15.4782C32.4121 15.0629 32.7491 14.7259 33.1644 14.7259C33.5798 14.7259 33.9168 15.0628 33.9168 15.4782Z" fill="#F4263E"/>
  <path fill-rule="evenodd" clip-rule="evenodd" d="M22.123 35.0455C22.123 35.3219 21.8991 35.5459 21.6224 35.5459C21.3461 35.5459 21.1221 35.3219 21.1221 35.0455C21.1221 34.7689 21.3461 34.5449 21.6224 34.5449C21.8991 34.5449 22.123 34.7689 22.123 35.0455Z" fill="#F4263E"/>
  <g clip-path="url(#clip0_325_2564)">
    <path d="M21.9286 31.7143C21.9286 32.1429 22.2714 32.5714 22.7857 32.5714H26.2143C26.7286 32.5714 27.0714 32.1429 27.0714 31.7143V30.8572H21.9286V31.7143ZM24.5 15.4286C21.1571 15.4286 18.5 18.0857 18.5 21.4286C18.5 23.4857 19.5286 25.2857 21.0714 26.3143V28.2857C21.0714 28.7143 21.4143 29.1429 21.9286 29.1429H27.0714C27.5857 29.1429 27.9286 28.7143 27.9286 28.2857V26.3143C29.4714 25.2 30.5 23.4 30.5 21.4286C30.5 18.0857 27.8429 15.4286 24.5 15.4286Z" fill="#F4263E"/>
  </g>
  <defs>
    <clipPath id="clip0_325_2564">
    <rect width="20.5714" height="20.5714" fill="white" transform="translate(14.2139 13.7143)"/>
    </clipPath>
  </defs>
</svg>
