<svg width="100" height="100" viewBox="0 0 100 100" fill="none" xmlns="http://www.w3.org/2000/svg">
<g filter="url(#filter0_d_423_1345)">
<circle cx="50" cy="46" r="32" fill="white"/>
</g>
<path fill-rule="evenodd" clip-rule="evenodd" d="M22 46C22 30.536 34.536 18 50 18C65.464 18 78 30.536 78 46C78 61.464 65.464 74 50 74C34.536 74 22 61.464 22 46Z" fill="#F7DF1E" fill-opacity="0.16"/>
<path fill-rule="evenodd" clip-rule="evenodd" d="M31.6493 55.3504C30.7935 54.3374 31.2618 52.8657 32.3963 52.179C33.6476 51.4216 35.11 52.0335 36.2702 52.9242C36.7393 53.2842 37.3101 53.5013 38.0654 53.5013C39.7926 53.5013 40.8864 52.8268 40.8864 50.1927V34.9281C40.8864 33.4745 42.0647 32.2962 43.5182 32.2962C44.9717 32.2962 46.15 33.4745 46.15 34.9281V50.2656C46.15 55.7161 42.9554 58.1953 38.2933 58.1953C35.1981 58.1953 33.0582 57.0184 31.6493 55.3504ZM50.3685 54.8361C49.4639 53.8103 49.9332 52.2865 51.1169 51.6015C52.3268 50.9013 53.8136 51.371 54.8766 52.2787C55.788 53.057 56.932 53.5378 58.4775 53.5378C60.6559 53.5378 62.0504 52.4486 62.0504 50.9447C62.0504 49.14 60.624 48.502 58.2177 47.4492L56.9007 46.8841C53.1045 45.2663 50.5843 43.2383 50.5843 38.9544C50.5843 35.0078 53.5921 32 58.2907 32C60.8452 32 62.8522 32.6804 64.4275 34.3579C65.3077 35.2952 64.922 36.7547 63.8398 37.4493C62.6649 38.2033 61.1947 37.6187 59.9636 36.9603C59.4787 36.701 58.9329 36.5846 58.2907 36.5846C56.7503 36.5846 55.7705 37.5599 55.7705 38.8405C55.7705 40.4173 56.7457 41.0599 59.0016 42.0352L60.3186 42.6003C64.7939 44.5189 67.3095 46.474 67.3095 50.8717C67.3095 55.6068 63.5862 58.1999 58.5869 58.1999C54.857 58.1999 52.1332 56.8373 50.3685 54.8361Z" fill="black"/>
<defs>
<filter id="filter0_d_423_1345" x="0" y="0" width="100" height="100" filterUnits="userSpaceOnUse" color-interpolation-filters="sRGB">
<feFlood flood-opacity="0" result="BackgroundImageFix"/>
<feColorMatrix in="SourceAlpha" type="matrix" values="0 0 0 0 0 0 0 0 0 0 0 0 0 0 0 0 0 0 127 0" result="hardAlpha"/>
<feOffset dy="4"/>
<feGaussianBlur stdDeviation="9"/>
<feComposite in2="hardAlpha" operator="out"/>
<feColorMatrix type="matrix" values="0 0 0 0 0 0 0 0 0 0 0 0 0 0 0 0 0 0 0.18 0"/>
<feBlend mode="normal" in2="BackgroundImageFix" result="effect1_dropShadow_423_1345"/>
<feBlend mode="normal" in="SourceGraphic" in2="effect1_dropShadow_423_1345" result="shape"/>
</filter>
</defs>
</svg>
