<svg width="24" height="24" viewBox="0 0 24 24" fill="none" xmlns="http://www.w3.org/2000/svg">
<rect x="0.5" y="0.5" width="23" height="23" rx="11.5" fill="white"/>
<path fill-rule="evenodd" clip-rule="evenodd" d="M2 12C2 6.47715 6.47715 2 12 2C17.5228 2 22 6.47715 22 12C22 17.5228 17.5228 22 12 22C6.47715 22 2 17.5228 2 12Z" fill="#F7DF1E"/>
<path fill-rule="evenodd" clip-rule="evenodd" d="M5 14.6383L6.52995 13.7122C6.82454 14.2363 7.0931 14.679 7.73763 14.679C8.35449 14.679 8.74512 14.4382 8.74512 13.4974V7.10579H10.625V13.5234C10.625 15.4701 9.48405 16.3555 7.81901 16.3555C6.3151 16.3555 5.44271 15.5775 5 14.6383ZM11.6455 14.4365L13.1755 13.5511C13.5791 14.2087 14.1016 14.6921 15.0277 14.6921C15.8057 14.6921 16.3037 14.3031 16.3037 13.766C16.3037 13.1214 15.7943 12.8936 14.9349 12.5176L14.4645 12.3158C13.1087 11.738 12.2087 11.0137 12.2087 9.48372C12.2087 8.07422 13.2829 7 14.9609 7C16.1556 7 17.015 7.41667 17.6318 8.50391L16.1686 9.44303C15.8464 8.86523 15.498 8.63737 14.9609 8.63737C14.4108 8.63737 14.0609 8.98568 14.0609 9.44303C14.0609 10.0062 14.4092 10.2357 15.2148 10.584L15.6852 10.7858C17.2835 11.471 18.182 12.1693 18.182 13.7399C18.182 15.431 16.8522 16.3571 15.0667 16.3571C13.3236 16.3571 12.1956 15.5238 11.6455 14.4365Z" fill="black"/>
<rect x="0.5" y="0.5" width="23" height="23" rx="11.5" stroke="#E8E8E8"/>
</svg>
