<svg width="48" height="48" viewBox="0 0 48 48" fill="none" xmlns="http://www.w3.org/2000/svg">
  <circle cx="24" cy="24.0001" r="24" fill="#E8F6F3"/>
  <path fill-rule="evenodd" clip-rule="evenodd" d="M17.6094 17.8813H19.114V31.9313H17.6094V17.8813Z" fill="#23B899"/>
  <path fill-rule="evenodd" clip-rule="evenodd" d="M27.6455 16.8111C27.6455 16.2937 27.226 15.8742 26.7086 15.8742H22.0579C21.5406 15.8742 21.1211 16.2937 21.1211 16.8111V17.3788H27.6451V16.8111H27.6455Z" fill="#23B899"/>
  <path fill-rule="evenodd" clip-rule="evenodd" d="M24.3843 30.2952C22.2784 30.2952 20.458 29.0508 19.6162 27.261V31.9312H29.1496V27.261C28.3107 29.0508 26.4902 30.2952 24.3843 30.2952H24.3843Z" fill="#23B899"/>
  <path fill-rule="evenodd" clip-rule="evenodd" d="M14.0986 19.7385V30.0742C14.0986 31.0976 14.9321 31.9311 15.9556 31.9311H17.1106V17.8812H15.9556C14.9294 17.8812 14.0986 18.7146 14.0986 19.7381V19.7385Z" fill="#23B899"/>
  <path fill-rule="evenodd" clip-rule="evenodd" d="M18.3627 14.3692C18.3627 15.0626 17.8007 15.6249 17.107 15.6249C16.4136 15.6249 15.8516 15.0626 15.8516 14.3692C15.8516 13.6758 16.4136 13.1135 17.107 13.1135C17.8006 13.1135 18.3627 13.6758 18.3627 14.3692Z" fill="#23B899"/>
  <path fill-rule="evenodd" clip-rule="evenodd" d="M33.4138 14.6212C33.4138 15.0365 33.0769 15.3735 32.6615 15.3735C32.2461 15.3735 31.9092 15.0365 31.9092 14.6212C31.9092 14.2058 32.2461 13.8688 32.6615 13.8688C33.0769 13.8688 33.4138 14.2058 33.4138 14.6212Z" fill="#23B899"/>
  <path fill-rule="evenodd" clip-rule="evenodd" d="M21.6221 34.1885C21.6221 34.4649 21.3981 34.6888 21.1214 34.6888C20.8451 34.6888 20.6211 34.4649 20.6211 34.1885C20.6211 33.9119 20.8451 33.6879 21.1214 33.6879C21.3981 33.6879 21.6221 33.9119 21.6221 34.1885Z" fill="#23B899"/>
  <path fill-rule="evenodd" clip-rule="evenodd" d="M20.8719 17.8813H19.6162V22.8032C20.4579 21.0134 22.2784 19.769 24.3843 19.769C26.4901 19.769 28.3106 21.0134 29.1523 22.8032V17.8813H20.8719Z" fill="#23B899"/>
  <path fill-rule="evenodd" clip-rule="evenodd" d="M24.3845 29.792C27.0104 29.792 29.144 27.6554 29.144 25.0325C29.144 22.4065 27.0074 20.273 24.3845 20.273C21.7585 20.273 19.625 22.4096 19.625 25.0325C19.6223 27.6557 21.7588 29.792 24.3845 29.792ZM24.3845 21.204C26.4958 21.204 28.2129 22.9211 28.2129 25.0324C28.2129 27.1438 26.4958 28.8609 24.3845 28.8609C22.2731 28.8609 20.556 27.1438 20.556 25.0324C20.556 22.9211 22.2731 21.204 24.3845 21.204Z" fill="#23B899"/>
  <path fill-rule="evenodd" clip-rule="evenodd" d="M32.8133 17.8813H31.6582V31.9313H32.8133C33.8367 31.9313 34.6702 31.0978 34.6702 30.0743V19.7387C34.6702 18.7152 33.8367 17.8818 32.8133 17.8818V17.8813Z" fill="#23B899"/>
  <path fill-rule="evenodd" clip-rule="evenodd" d="M29.6523 17.8813H31.157V31.9313H29.6523V17.8813Z" fill="#23B899"/>
  <path fill-rule="evenodd" clip-rule="evenodd" d="M22.3757 25.91H23.5056V27.0399C23.5056 27.1797 23.6174 27.2916 23.7572 27.2916H25.013C25.1528 27.2916 25.2646 27.1797 25.2646 27.0399V25.91H26.3945C26.5343 25.91 26.6462 25.7982 26.6462 25.6583V24.4026C26.6462 24.2628 26.5343 24.151 26.3945 24.151H25.2646V23.0211C25.2646 22.8813 25.1528 22.7694 25.013 22.7694H23.7572C23.6174 22.7694 23.5056 22.8813 23.5056 23.0211V24.151H22.3757C22.2359 24.151 22.124 24.2628 22.124 24.4026V25.6583C22.124 25.7982 22.2359 25.91 22.3757 25.91Z" fill="#23B899"/>
</svg>
