<svg width="24" height="25" viewBox="0 0 24 25" fill="none" xmlns="http://www.w3.org/2000/svg">
<path d="M19 11.25H5C3.89543 11.25 3 12.1454 3 13.25V20.25C3 21.3546 3.89543 22.25 5 22.25H19C20.1046 22.25 21 21.3546 21 20.25V13.25C21 12.1454 20.1046 11.25 19 11.25Z" stroke="white" stroke-width="2" stroke-linecap="round" stroke-linejoin="round"/>
<path d="M7 11.25V7.25C7 5.92392 7.52678 4.65215 8.46447 3.71447C9.40215 2.77678 10.6739 2.25 12 2.25C13.3261 2.25 14.5979 2.77678 15.5355 3.71447C16.4732 4.65215 17 5.92392 17 7.25V11.25" stroke="white" stroke-width="2" stroke-linecap="round" stroke-linejoin="round"/>
</svg>
