<svg width="24" height="24" viewBox="0 0 24 24" fill="none" xmlns="http://www.w3.org/2000/svg">
<circle cx="12" cy="12" r="12" fill="#FF2626"/>
<path d="M12.0003 3.66666C7.40033 3.66666 3.66699 7.39999 3.66699 12C3.66699 16.6 7.40033 20.3333 12.0003 20.3333C16.6003 20.3333 20.3337 16.6 20.3337 12C20.3337 7.39999 16.6003 3.66666 12.0003 3.66666ZM12.0003 18.6667C8.32533 18.6667 5.33366 15.675 5.33366 12C5.33366 8.32499 8.32533 5.33332 12.0003 5.33332C15.6753 5.33332 18.667 8.32499 18.667 12C18.667 15.675 15.6753 18.6667 12.0003 18.6667ZM9.91699 15.75L15.7503 12L9.91699 8.24999V15.75Z" fill="white"/>
</svg>
