<svg width="18" height="18" viewBox="0 0 18 18" fill="none" xmlns="http://www.w3.org/2000/svg">
<path d="M12.5 11.0005H11.71L11.43 10.7305C12.41 9.59049 13 8.11049 13 6.50049C13 2.91049 10.09 0.000488281 6.5 0.000488281C2.91 0.000488281 0 2.91049 0 6.50049C0 10.0905 2.91 13.0005 6.5 13.0005C8.11 13.0005 9.59 12.4105 10.73 11.4305L11 11.7105V12.5005L16 17.4905L17.49 16.0005L12.5 11.0005ZM6.5 11.0005C4.01 11.0005 2 8.99049 2 6.50049C2 4.01049 4.01 2.00049 6.5 2.00049C8.99 2.00049 11 4.01049 11 6.50049C11 8.99049 8.99 11.0005 6.5 11.0005Z" fill="#E8E8E8"/>
</svg>
