<svg width="247" height="180" viewBox="0 0 247 180" fill="none" xmlns="http://www.w3.org/2000/svg">
<path d="M148.935 35.6207C150.248 35.6207 151.312 34.584 151.312 33.3051C151.312 32.0262 150.248 30.9894 148.935 30.9894C147.623 30.9894 146.559 32.0262 146.559 33.3051C146.559 34.584 147.623 35.6207 148.935 35.6207Z" fill="#E7E8F1"/>
<path d="M155.605 41.3148C157.186 41.3148 158.467 40.0664 158.467 38.5263C158.467 36.9863 157.186 35.7378 155.605 35.7378C154.025 35.7378 152.744 36.9863 152.744 38.5263C152.744 40.0664 154.025 41.3148 155.605 41.3148Z" fill="#CCDDE2"/>
<path d="M206.501 131.552L219.178 145.371V83.6205" stroke="#E7E8F1" stroke-width="1.12597" stroke-miterlimit="10"/>
<path d="M219.178 136.615L230.639 126.558" stroke="#E7E8F1" stroke-width="1.12597" stroke-miterlimit="10"/>
<path d="M219.178 111.565L211.363 102.831" stroke="#E7E8F1" stroke-width="1.12597" stroke-miterlimit="10"/>
<path d="M219.178 103.706L224.908 100.258" stroke="#E7E8F1" stroke-width="1.12597" stroke-miterlimit="10"/>
<path d="M219.179 87.2043C219.179 86.1574 215.271 78.7569 215.271 78.7569" stroke="#E7E8F1" stroke-width="1.12597" stroke-miterlimit="10"/>
<path d="M206.774 149.874C207.152 149.893 207.369 149.899 207.369 149.899L210.686 149.958C211.908 149.977 213.074 150.474 213.931 151.344C214.789 152.213 215.27 153.385 215.269 154.605V172.207" stroke="#E7E8F1" stroke-width="1.12597" stroke-miterlimit="10"/>
<path d="M177.989 141.243L187.684 151.812V104.586" stroke="#E7E8F1" stroke-width="1.12597" stroke-miterlimit="10"/>
<path d="M190.415 142.72L187.685 145.115" stroke="#E7E8F1" stroke-width="1.12597" stroke-miterlimit="10"/>
<path d="M187.684 125.959L181.707 119.278" stroke="#E7E8F1" stroke-width="1.12597" stroke-miterlimit="10"/>
<path d="M187.685 119.947L192.068 117.312" stroke="#E7E8F1" stroke-width="1.12597" stroke-miterlimit="10"/>
<path d="M187.684 107.325C187.684 106.524 184.694 100.868 184.694 100.868" stroke="#CCDDE2" stroke-width="1.12597" stroke-miterlimit="10"/>
<path d="M196.521 129.551C195.379 127.758 194.79 125.921 196.096 124.778C196.898 124.076 198.789 123.991 200.217 123.567" stroke="#E7E8F1" stroke-width="1.12597" stroke-miterlimit="10"/>
<path d="M189.278 91.7671C189.896 92.295 190.419 92.9236 190.825 93.6261C193.098 97.4972 192.071 102.238 192.06 106.475C192.047 109.756 193.05 112.591 195.716 114.597C198.107 116.399 200.888 118.023 201.882 121.033C201.938 121.201 201.979 121.374 202.005 121.549" stroke="#E7E8F1" stroke-width="1.12597" stroke-miterlimit="10"/>
<path d="M173.047 154.609C174.882 155.048 176.762 155.273 178.649 155.282L181.19 155.32C182.123 155.336 183.013 155.717 183.668 156.382C184.323 157.047 184.689 157.942 184.689 158.874V172.332" stroke="#E7E8F1" stroke-width="1.12597" stroke-miterlimit="10"/>
<path d="M172.938 118.63C175.988 113.069 180.774 115.814 182.107 110.376C182.97 106.822 181.885 102.995 182.146 99.3944C182.192 98.7735 182.284 98.1568 182.419 97.5491" stroke="#E7E8F1" stroke-width="1.12597" stroke-miterlimit="10"/>
<path d="M190.475 159.218C190.474 158.693 190.578 158.172 190.781 157.686C190.984 157.201 191.282 156.761 191.656 156.391C192.031 156.022 192.476 155.73 192.964 155.534C193.453 155.337 193.976 155.239 194.502 155.246L196.449 155.279C200.08 155.129 203.36 156.023 206.69 151.936L206.773 151.829C203.893 151.649 191.393 150.43 190.413 142.72C190.14 140.626 190.783 138.516 191.667 136.639C194.214 131.229 198.198 126.453 201.834 121.742C203.441 119.659 205.254 117.746 206.598 115.455C207.46 113.998 208.816 111.529 207.252 110.064C205.408 108.338 200.062 109.536 199.408 106.638C199.327 106.125 199.383 105.599 199.571 105.114C202.158 97.2431 210.151 98.2792 211.892 91.1713C213.023 86.5238 211.604 81.5346 211.939 76.8132C212.169 73.6311 213.48 69.6205 215.545 67.1629C218.181 64.0082 221.544 66.3018 223.288 69.276C226.262 74.3364 224.931 80.5312 224.901 86.078C224.901 90.3701 226.207 94.0716 229.69 96.6933C232.811 99.0471 236.455 101.174 237.748 105.111C239.158 109.403 232.17 108.279 230.185 110.007C226.601 113.137 233.939 120.349 235.984 122.416C241.104 127.61 250.992 136.981 244.037 145.516C239.681 150.864 235.389 149.698 230.648 149.891L228.096 149.858C227.407 149.849 226.724 149.978 226.085 150.235C225.447 150.492 224.866 150.874 224.376 151.357C223.886 151.84 223.498 152.415 223.232 153.05C222.967 153.684 222.83 154.364 222.83 155.052" stroke="#E7E8F1" stroke-width="1.12597" stroke-miterlimit="10"/>
<path d="M6.79535 172.718C6.79535 172.718 3.80273 168.141 3.80273 157.84C3.80273 147.54 8.45748 142.966 8.45748 142.966C3.40851 157.652 13.8051 172.718 13.8051 172.718C14.12 172.152 17.1126 167.906 17.4275 160.355C17.4275 160.355 20.2614 166.834 17.8986 172.718" stroke="#E7E8F1" stroke-width="1.12597" stroke-miterlimit="10" stroke-linejoin="round"/>
<path d="M88.1311 172.718C88.1311 172.718 90.119 170.43 90.119 165.279C90.119 160.128 87.0325 157.84 87.0325 157.84C90.3786 165.188 83.473 172.718 83.473 172.718C82.0151 170.976 81.1708 168.804 81.0702 166.536C81.0702 166.536 79.1935 169.77 80.7732 172.718" stroke="#E7E8F1" stroke-width="1.12597" stroke-miterlimit="10" stroke-linejoin="round"/>
<path d="M62.0337 140.185C62.2541 141.955 62.1049 143.752 61.5957 145.462C59.7776 151.627 53.896 155.325 48.4528 153.729C43.0096 152.132 40.0908 145.836 41.9116 139.672C43.7324 133.507 49.6084 129.807 55.0544 131.407C55.5297 131.548 55.993 131.726 56.44 131.94L50.7693 141.747C50.6194 142.04 50.5881 142.379 50.6816 142.695C50.7752 143.011 50.9866 143.279 51.2722 143.443C51.5577 143.608 51.8957 143.657 52.2164 143.58C52.537 143.503 52.8158 143.306 52.9953 143.03L58.5785 133.35C60.1515 134.783 61.2595 136.653 61.7599 138.72L62.0337 140.185Z" fill="#E7E8F1"/>
<path d="M159.266 140.185C159.487 141.955 159.337 143.752 158.828 145.462C157.01 151.627 151.128 155.325 145.685 153.729C140.242 152.132 137.323 145.836 139.144 139.672C140.965 133.507 146.841 129.807 152.287 131.407C152.762 131.548 153.225 131.726 153.672 131.94L148.002 141.747C147.852 142.04 147.82 142.379 147.914 142.695C148.008 143.011 148.219 143.279 148.505 143.443C148.79 143.608 149.128 143.657 149.449 143.58C149.769 143.503 150.048 143.306 150.228 143.03L155.811 133.35C157.384 134.783 158.492 136.653 158.992 138.72L159.266 140.185Z" fill="#D7E8F0"/>
<path d="M45.0361 126.456C48.6669 124.37 52.8972 123.692 56.9742 124.892C57.7257 125.113 58.4582 125.394 59.1647 125.732L50.1893 141.257C49.9244 141.724 49.8552 142.277 49.9968 142.794C50.1384 143.312 50.4793 143.753 50.9452 144.021C51.4111 144.289 51.9641 144.362 52.4837 144.224C53.0033 144.086 53.4472 143.749 53.7187 143.286L62.5599 127.995C65.0492 130.265 66.8026 133.226 67.5952 136.497" stroke="#E7E8F1" stroke-width="1.12597" stroke-miterlimit="10"/>
<path d="M46.5473 160.218C37.9469 157.687 33.3114 147.725 36.1973 137.971C36.234 137.834 36.2779 137.699 36.3286 137.567" stroke="#E7E8F1" stroke-width="1.12597" stroke-miterlimit="10"/>
<path d="M68.0245 138.786C68.375 141.588 68.1382 144.432 67.3291 147.138" stroke="#E7E8F1" stroke-width="1.12597" stroke-miterlimit="10"/>
<path d="M142.268 126.456C145.898 124.37 150.129 123.692 154.206 124.892C154.957 125.113 155.69 125.394 156.396 125.732L147.418 141.257C147.282 141.488 147.194 141.744 147.158 142.01C147.122 142.276 147.139 142.546 147.208 142.805C147.276 143.065 147.396 143.308 147.559 143.52C147.723 143.733 147.927 143.912 148.16 144.046C148.392 144.179 148.649 144.266 148.916 144.3C149.182 144.334 149.453 144.315 149.712 144.245C149.971 144.174 150.214 144.053 150.426 143.888C150.638 143.724 150.815 143.519 150.947 143.286L159.789 127.995" stroke="#E7E8F1" stroke-width="1.12597" stroke-miterlimit="10"/>
<path d="M143.769 160.218C135.169 157.687 130.533 147.725 133.419 137.971C133.456 137.834 133.5 137.699 133.55 137.567" stroke="#E7E8F1" stroke-width="1.12597" stroke-miterlimit="10"/>
<path d="M165.257 138.786C165.607 141.588 165.369 144.432 164.559 147.138" stroke="#E7E8F1" stroke-width="1.12597" stroke-miterlimit="10"/>
<path d="M159.266 140.185C159.487 141.955 159.337 143.752 158.828 145.462C157.01 151.627 151.128 155.325 145.685 153.729C140.242 152.132 137.323 145.836 139.144 139.672C140.965 133.507 146.841 129.807 152.287 131.407C152.762 131.548 153.225 131.726 153.672 131.94L148.002 141.747C147.852 142.04 147.82 142.379 147.914 142.695C148.008 143.011 148.219 143.279 148.505 143.443C148.79 143.608 149.128 143.657 149.449 143.58C149.769 143.503 150.048 143.306 150.228 143.03L155.811 133.35C157.384 134.783 158.492 136.653 158.992 138.72L159.266 140.185Z" fill="#E7E8F1"/>
<path d="M71.2945 101.756L67.9563 107.528L59.2246 91.0973C62.0203 96.3462 66.1137 99.6705 71.2945 101.756Z" fill="black"/>
<path d="M116.45 62.6357C116.36 62.6932 116.27 62.7589 116.177 62.8245C116.159 62.8067 116.144 62.7875 116.13 62.767L116.45 62.6357Z" fill="black"/>
<path d="M77.9229 103.706C75.6577 103.262 73.4386 102.609 71.2939 101.757L77.9229 103.706Z" fill="black"/>
<path d="M107.237 129.155L103.319 136.328H75.4531L77.6883 132.553L79.5684 129.384L79.6972 129.163L107.237 129.155Z" fill="black"/>
<path d="M97.2774 142.162V142.195H86.2605L86.2412 142.162H97.2774Z" fill="black"/>
<path d="M97.2774 142.162V142.195H94.3323V149.336H90.1595L86.2605 142.195L86.2412 142.162H97.2774Z" fill="black"/>
<path d="M118.025 149.335H100.217V142.162H113.781L118.025 149.335Z" fill="black"/>
<path d="M112.135 149.336V151.378C112.135 152.393 111.732 153.366 111.013 154.084C110.294 154.802 109.319 155.205 108.302 155.205H100.214V149.336H112.135Z" fill="#F4263E"/>
<path d="M100.214 139.261V142.184H86.2496L86.2689 142.217C85.7654 142.217 85.267 142.118 84.8019 141.926C84.3368 141.733 83.9142 141.451 83.5582 141.096C83.2022 140.74 82.9199 140.318 82.7273 139.854C82.5346 139.39 82.4355 138.892 82.4355 138.389V136.355H97.2925C98.064 136.36 98.803 136.667 99.3496 137.211C99.8962 137.754 100.207 138.491 100.214 139.261V139.261Z" fill="#F4263E"/>
<path d="M100.216 142.184V142.189L97.2774 142.184L94.3323 142.176L86.2412 142.162H97.2774V142.17L100.211 142.184H100.216Z" fill="#2E2E2E"/>
<path d="M104.186 142.195H94.332V142.162L97.2783 142.17L100.212 142.184H100.218L104.186 142.195Z" fill="#2E2E2E"/>
<path d="M174.383 104.594V105.245H174.005L174.383 104.594Z" fill="#2E2E2E"/>
<path d="M77.9227 103.707L71.6715 114.518L69.3659 118.507L54.7613 143.767C54.3148 144.536 53.5808 145.097 52.7205 145.326C51.8602 145.555 50.944 145.434 50.173 144.989C49.4021 144.545 48.8395 143.812 48.6089 142.954C48.3782 142.095 48.4983 141.18 48.9428 140.41L63.7696 114.761L67.956 107.525L71.2937 101.754L77.9227 103.707Z" fill="black"/>
<path d="M182.495 89.6676C182.495 90.2562 182.339 90.8343 182.043 91.3433L181.037 93.093C178.508 93.4921 175.876 94.2219 178.998 96.6223L174.39 104.594L174.013 105.245L166.431 118.367L151.73 143.767C151.273 144.514 150.541 145.054 149.691 145.27C148.84 145.486 147.939 145.361 147.179 144.923C146.42 144.485 145.862 143.768 145.624 142.925C145.387 142.081 145.489 141.179 145.909 140.41L160.793 114.668L166.248 105.245H125.097L130.08 95.8569H171.677L176.231 87.9863C176.601 87.3461 177.172 86.8457 177.856 86.5629C178.54 86.2801 179.298 86.2307 180.013 86.4224C180.728 86.6141 181.36 87.0361 181.809 87.623C182.259 88.2098 182.503 88.9286 182.502 89.6676H182.495Z" fill="black"/>
<path d="M116.45 62.6357C116.36 62.6932 116.27 62.7589 116.177 62.8245C116.159 62.8067 116.144 62.7875 116.13 62.767L116.45 62.6357Z" fill="#2E2E2E"/>
<path d="M57.3851 86.7723C53.4998 85.9912 48.5081 85.2659 46.159 81.6628C45.8248 81.1599 45.406 80.5693 45.3155 79.9542C45.3024 79.883 45.2958 79.8107 45.2956 79.7383C45.2579 78.5326 46.701 78.6093 47.6264 78.7541C49.8361 79.0931 52.0073 79.5743 54.1841 80.0909C54.8303 80.2413 55.471 80.3978 56.1008 80.5529C56.2804 82.6696 56.7119 84.7574 57.386 86.7723H57.3851Z" fill="black" fill-opacity="0.85"/>
<path d="M173.622 85.1102C171.884 89.7931 168.357 89.8124 168.299 89.8124C161.58 88.226 154.967 86.2229 148.497 83.8147C130.951 77.1772 121.39 69.3256 116.188 62.8247C116.276 62.757 116.367 62.6941 116.462 62.6361L116.147 62.7672C116.161 62.7877 116.176 62.8069 116.194 62.8247C111.166 66.2802 108.428 71.4964 106.946 76.3079C106.858 76.6062 106.751 76.8985 106.625 77.1827C106.62 77.1987 106.613 77.2143 106.606 77.2293L106.299 77.8746C106.297 77.8842 106.292 77.893 106.285 77.8991C105.346 79.7006 102.517 82.1114 100.716 82.9675L67.7952 82.7237L54.1841 80.0912C52.0238 79.5745 49.8333 79.0933 47.6428 78.7544C46.7147 78.6085 45.2716 78.5326 45.3093 79.7383C45.3093 78.1664 46.1307 77.0921 47.0782 75.9492C48.0913 74.7244 49.1064 73.5014 50.1236 72.2803C55.8107 65.5033 61.3498 58.6113 67.0615 51.8588C68.466 50.194 69.8982 48.5646 71.4259 47.0203C76.7733 41.5937 82.9589 36.8287 89.7356 33.3074C101.687 27.1126 110.712 25.2098 117.938 26.1803L118.173 26.2132C134.602 28.5534 141.691 45.7736 152.857 60.6926C155.535 64.2658 160.173 67.56 164.71 70.2007L174.293 75.015C174.291 75.034 174.291 75.0534 174.293 75.0724C174.595 79.3999 174.417 82.9539 173.623 85.1111L173.622 85.1102Z" fill="black"/>
<path d="M116.45 62.6359C116.36 62.6935 116.27 62.7592 116.177 62.8248C116.159 62.807 116.144 62.7877 116.13 62.7673L116.45 62.6359Z" fill="#2E2E2E"/>
<path d="M0 172.712H242.835" stroke="black" stroke-width="1.12597" stroke-miterlimit="10"/>
<path d="M107.04 76.7752H121.604C130.15 76.7752 135.623 85.857 131.62 93.3939L112.634 129.152H79.9277L93.7743 105.193" stroke="black" stroke-width="1.12597" stroke-miterlimit="10"/>
<path d="M111.958 129.155L119.313 142.162H100.444" stroke="black" stroke-width="1.12597" stroke-miterlimit="10"/>
<path d="M68.1838 107.528L59.2822 90.7778" stroke="black" stroke-width="1.12597" stroke-miterlimit="10"/>
<path d="M79.796 129.376L71.8994 114.518" stroke="black" stroke-width="1.12597" stroke-miterlimit="10"/>
<path d="M110.187 49.8226C110.187 49.8226 111.556 76.119 168.527 89.8153C168.527 89.8153 175.81 90.0203 174.277 75.0254" stroke="black" stroke-width="1.12597" stroke-miterlimit="10"/>
<path d="M109.1 105.245H100.17C80.3626 105.245 65.3571 103.878 58.8248 89.8128C58.3633 88.8243 57.9621 87.8089 57.6234 86.7721C56.9532 84.757 56.5256 82.6693 56.3496 80.5533" stroke="black" stroke-width="1.12597" stroke-miterlimit="10"/>
<path d="M107.464 129.155L103.546 136.328H75.6807L77.9158 132.553L79.7959 129.376L79.9275 129.155H107.464Z" stroke="black" stroke-width="1.12597" stroke-miterlimit="10"/>
<path d="M97.5049 142.162V142.195H86.4905L86.4688 142.162H97.5049Z" stroke="black" stroke-width="1.12597" stroke-miterlimit="10"/>
<path d="M97.5049 142.162V142.195H94.5626V149.336H90.387L86.4905 142.195L86.4688 142.162H97.5049Z" stroke="black" stroke-width="1.12597" stroke-miterlimit="10"/>
<path d="M118.253 149.336H100.444V142.162H114.009L118.253 149.336Z" stroke="black" stroke-width="1.12597" stroke-miterlimit="10"/>
<path d="M112.363 149.336V151.378C112.363 152.393 111.959 153.367 111.24 154.084C110.521 154.802 109.546 155.205 108.53 155.205H100.444V149.336H112.363Z" stroke="black" stroke-width="1.12597" stroke-miterlimit="10"/>
<path d="M97.5058 136.328C97.8917 136.328 98.2739 136.404 98.6305 136.551C98.9871 136.698 99.3111 136.914 99.5839 137.187C99.8568 137.459 100.073 137.783 100.221 138.139C100.368 138.495 100.444 138.876 100.444 139.262V155.222H97.5002C96.7207 155.222 95.9732 154.913 95.4218 154.363C94.8703 153.813 94.5602 153.066 94.5596 152.288V142.195H97.5058" stroke="black" stroke-width="1.12597" stroke-miterlimit="10"/>
<path d="M97.5063 136.328H82.6494V138.362C82.6494 139.377 83.0533 140.351 83.7722 141.068C84.4911 141.786 85.4661 142.189 86.4827 142.189L86.4609 142.157L100.425 142.184" stroke="black" stroke-width="1.12597" stroke-miterlimit="10"/>
<path d="M104.42 142.192L105.071 142.195H94.5625V142.162L104.42 142.192Z" stroke="black" stroke-width="1.12597" stroke-miterlimit="10"/>
<path d="M182.691 89.2055C182.623 88.7003 182.44 88.2175 182.155 87.7945C181.87 87.3716 181.491 87.0199 181.048 86.7669C180.666 86.5461 180.244 86.4026 179.807 86.3447C179.369 86.2868 178.924 86.3155 178.498 86.4292C178.072 86.543 177.672 86.7395 177.321 87.0075C176.971 87.2756 176.677 87.6099 176.456 87.9915L171.906 95.8623H130.317L125.325 105.25H166.476L146.14 140.41C145.702 141.18 145.588 142.092 145.82 142.947C146.053 143.802 146.615 144.531 147.384 144.974C148.152 145.416 149.065 145.538 149.923 145.312C150.781 145.086 151.515 144.531 151.964 143.767L174.238 105.245L174.616 104.594L178.967 97.0764" stroke="black" stroke-width="1.12597" stroke-miterlimit="10"/>
<path d="M174.613 105.245H174.232L174.613 104.594V105.245Z" fill="#3FBDF1"/>
<path d="M78.1501 103.706L69.5936 118.506L54.9859 143.767C54.5394 144.536 53.8054 145.097 52.9451 145.326C52.0848 145.555 51.1686 145.434 50.3977 144.989C49.6267 144.544 49.0641 143.812 48.8335 142.954C48.6028 142.095 48.7229 141.18 49.1674 140.41L63.9967 114.761L71.5211 101.754" stroke="black" stroke-width="1.12597" stroke-miterlimit="10"/>
<path d="M77.4878 150.125C72.7303 166.241 57.3517 175.919 43.1439 171.739C28.936 167.559 21.2693 151.101 26.0308 134.991C30.7923 118.882 46.1641 109.184 60.3748 113.369C61.6174 113.738 62.8287 114.204 63.9972 114.764L49.1676 140.409C48.7231 141.18 48.603 142.095 48.8337 142.953C49.0643 143.812 49.6269 144.544 50.3979 144.989C51.1688 145.434 52.085 145.555 52.9453 145.326C53.8056 145.096 54.5396 144.536 54.9861 143.766L69.5938 118.505C73.6297 122.1 76.5102 127.01 77.9148 132.551L75.6796 136.327H78.6311C79.2101 140.955 78.82 145.654 77.4856 150.124L77.4878 150.125Z" stroke="black" stroke-width="1.12597" stroke-miterlimit="10"/>
<path d="M174.71 150.139C179.473 134.024 171.818 117.566 157.612 113.381C143.406 109.195 128.028 118.866 123.265 134.981C118.502 151.097 126.157 167.554 140.363 171.74C154.569 175.926 169.947 166.255 174.71 150.139Z" stroke="black" stroke-width="1.12584" stroke-miterlimit="10"/>
<path d="M45.5207 79.7354C45.507 78.1663 46.3421 77.0917 47.2839 75.9463L50.3313 72.2775C56.0156 65.5032 61.5712 58.6084 67.272 51.8532C68.6712 50.1964 70.1059 48.5726 71.6306 47.0199C76.9841 41.5933 83.1641 36.8256 89.9447 33.3074C129.343 12.8722 136.967 39.1742 153.06 60.692C156.94 65.8698 164.933 70.4598 170.779 73.3358C178.211 76.9935 194.874 82.0394 188.327 93.8394C186.983 96.2532 180.192 99.799 178.043 96.0674C176.031 92.5804 182.697 92.3014 182.697 89.2111C182.697 86.8383 181.055 85.8731 179.138 85.3509C175.704 84.4133 177.372 84.6482 173.853 84.6236" stroke="black" stroke-width="1.12597" stroke-miterlimit="10"/>
<path d="M57.6125 86.7723C53.7272 85.9912 48.7383 85.2659 46.3864 81.6629C46.0525 81.1596 45.6362 80.5693 45.5429 79.9534C45.321 78.5237 46.8764 78.603 47.8565 78.7539C54.3651 79.7436 60.616 82.0344 67.1749 82.6197C69.0013 82.7837 70.8439 82.8602 72.679 82.8602H98.3555C100.335 82.8525 102.259 82.211 103.846 81.0299C105.433 79.8489 106.599 78.1907 107.172 76.299C108.693 71.4027 111.501 66.0827 116.681 62.63" stroke="black" stroke-width="1.12597" stroke-miterlimit="10"/>
<path d="M141.501 39.0266L138.563 39.825" stroke="black" stroke-width="1.12597" stroke-miterlimit="10"/>
<path d="M139.85 29.133C139.593 29.133 124.988 25.538 118.146 26.1777" stroke="black" stroke-width="1.12597" stroke-miterlimit="10"/>
<path d="M158.311 40.1717C158.066 40.4757 157.805 40.7659 157.529 41.0409C157.517 41.0595 157.501 41.0746 157.482 41.0847C157.005 41.5687 157.131 41.3721 156.556 41.7902C156.55 41.8017 156.54 41.8106 156.528 41.8148V41.8148C156.497 41.8476 156.462 41.8758 156.424 41.8985C157.154 40.7482 157.795 39.5441 158.341 38.2965C159.294 36.5879 160.047 34.6634 158.995 34.1029C157.213 33.157 157.151 29.6304 157.722 27.6869V27.6729C157.785 27.4518 157.865 27.2363 157.963 27.0285V27.0031C158.069 26.7805 158.145 26.5453 158.19 26.3032C161.487 30.8687 161.413 36.3773 158.311 40.1717Z" fill="#F4263E"/>
<path d="M158.163 24.1163C162.136 28.8377 162.27 34.8284 158.965 38.8789C158.72 39.1822 158.459 39.4723 158.183 39.7481C158.171 39.766 158.155 39.781 158.136 39.7919C157.649 40.2909 157.12 40.7481 156.556 41.1588C156.551 41.1714 156.541 41.1814 156.528 41.1867V41.1867C156.497 41.2187 156.462 41.2468 156.424 41.2704C156.151 41.4726 155.863 41.6609 155.562 41.8445C155.165 42.0905 154.74 42.3257 154.302 42.5419C151.926 43.7093 149.163 44.3872 146.636 43.6354C144.555 43.0094 142.83 41.4484 141.707 39.5729C140.986 38.3261 140.468 36.9724 140.174 35.5629" stroke="black" stroke-width="1.12597" stroke-miterlimit="10"/>
<path d="M157.966 27.0059V27.0305C157.895 27.252 157.815 27.4679 157.725 27.6757V27.6899C157.345 28.564 156.785 29.3486 156.082 29.9926C155.379 30.6366 154.547 31.1256 153.642 31.428C153.577 31.4526 153.506 31.4718 153.434 31.4936C152.932 31.6273 152.413 31.6907 151.893 31.6821C151.677 31.6803 151.461 31.6648 151.247 31.6356C150.28 31.5157 149.363 31.138 148.592 30.542C148.423 30.4106 148.263 30.2662 148.116 30.1102C148.071 30.0707 148.03 30.0277 147.993 29.9816C147.366 29.2901 146.847 28.3578 145.928 28.1745C145.282 28.0515 144.631 28.3578 144.08 28.7213C142.165 30.0053 140.987 32.047 140.431 34.2751C140.001 29.6605 141.417 25.1277 145.519 22.5197C146.713 21.7719 148.038 21.2536 149.423 20.9916L152.473 20.8275C152.986 20.8688 153.494 20.9455 153.996 21.0571C155.551 21.4016 157.097 22.1506 158.032 23.4247C158.162 23.83 158.237 24.2512 158.254 24.6766V24.786C158.292 25.5372 158.195 26.2892 157.966 27.0059H157.966Z" fill="#F4263E"/>
<path d="M151.822 19.5291C152.333 19.5702 152.841 19.6469 153.341 19.7587C155.009 20.1306 156.66 20.9582 157.56 22.3996C157.676 22.5844 157.777 22.7782 157.861 22.9793C157.86 22.9838 157.86 22.9885 157.861 22.993C157.868 23.0177 157.877 23.0416 157.889 23.0641C157.942 23.1833 157.988 23.3057 158.026 23.4304C158.157 23.8357 158.231 24.2569 158.248 24.6823V24.7917C158.281 25.541 158.179 26.29 157.947 27.0033V27.0278C157.875 27.2493 157.796 27.4652 157.706 27.6731V27.6867C157.326 28.5608 156.766 29.3453 156.063 29.9893C155.359 30.6333 154.528 31.1224 153.623 31.4248C153.558 31.4493 153.486 31.4686 153.415 31.4904C152.913 31.6241 152.394 31.6875 151.874 31.6789C151.658 31.6771 151.442 31.6616 151.228 31.6323C150.26 31.5125 149.344 31.1348 148.573 30.5388C148.404 30.4073 148.244 30.263 148.097 30.107C148.052 30.0675 148.011 30.0245 147.974 29.9784C147.347 29.2869 146.828 28.3546 145.909 28.1713C145.263 28.0483 144.611 28.3546 144.061 28.7181C142.145 30.0024 140.968 32.0444 140.412 34.2724C140.3 34.6838 140.215 35.1022 140.157 35.5247C139.99 34.804 139.867 34.0735 139.79 33.3376C139.243 28.5889 140.634 23.8809 144.846 21.216C146.046 20.4624 147.378 19.9403 148.771 19.6767" stroke="black" stroke-width="1.12597" stroke-miterlimit="10" stroke-linecap="square" stroke-linejoin="bevel"/>
<path d="M151.821 19.5292C151.547 19.51 151.273 19.4963 151.024 19.4963C150.958 18.6432 150.153 19.5373 149.403 18.8784C150.293 16.705 148.163 14.887 146.884 14.2092C144.344 12.8668 141.345 11.85 138.432 12.1616C134.735 12.5661 133.151 15.4667 130.793 17.9026C128.148 20.6364 124.019 21.3826 120.213 21.2133C117.81 21.1039 115.284 20.6336 113.451 19.0753C113.262 18.9141 113.088 18.7406 112.904 18.5668C112.422 17.5304 112.164 16.4042 112.146 15.2617C112.154 13.0675 112.854 10.9314 114.145 9.1561C115.788 6.81284 118.219 5.0554 120.892 4.00121C123.584 2.97864 126.447 2.47579 129.328 2.51938C135.381 2.50965 141.296 4.31961 146.304 7.7136C147.994 8.87973 149.497 10.2935 150.764 11.9072C150.765 11.9128 150.767 11.9182 150.77 11.9227C150.773 11.9271 150.778 11.9303 150.784 11.9318C152.161 14.354 152.755 17.0194 151.821 19.5289L151.821 19.5292Z" fill="#F4263E"/>
<path d="M157.207 24.2723C157.329 24.6391 157.427 25.0135 157.5 25.3932L157.207 24.2723Z" fill="#3FBDF1"/>
<path d="M157.862 22.9792C157.861 22.9836 157.861 22.9883 157.862 22.9928C158.065 23.5751 158.199 24.1791 158.262 24.7924C158.315 25.2971 158.29 25.8069 158.188 26.3041C158.143 26.5462 158.067 26.7815 157.961 27.004V27.0285C157.863 27.2366 157.782 27.4524 157.72 27.6738V27.6874C157.151 29.6312 157.211 33.155 158.993 34.1035C160.045 34.6639 159.292 36.5885 158.339 38.2971C157.759 39.3183 157.119 40.304 156.422 41.249" stroke="black" stroke-width="1.12597" stroke-miterlimit="10"/>
<path d="M151.822 19.5299C151.548 19.5107 151.274 19.497 151.025 19.497C150.269 19.4886 149.515 19.5546 148.772 19.6939C149.634 18.8465 149.848 17.9797 149.659 17.176C149.371 15.9651 148.164 14.8886 146.885 14.2099C144.344 12.8675 141.346 11.8507 138.433 12.1623C134.736 12.5668 133.152 15.4674 130.793 17.9033C128.148 20.6371 124.019 21.3833 120.213 21.214C117.811 21.1046 115.285 20.6343 113.452 19.076C113.263 18.9148 113.089 18.7413 112.904 18.5675C111.59 17.1277 110.855 15.2533 110.841 13.3049C110.849 11.1116 111.548 8.97642 112.84 7.20212C114.482 4.85468 116.914 3.10142 119.586 2.04444C122.279 1.0241 125.142 0.522246 128.022 0.5654C134.075 0.555513 139.991 2.36548 144.998 5.75963C147.351 7.36025 149.321 9.46079 150.765 11.9107C150.765 11.9163 150.767 11.9217 150.771 11.9261C150.774 11.9305 150.779 11.9337 150.784 11.9352C152.161 14.3546 152.756 17.0201 151.822 19.5296V19.5299Z" stroke="black" stroke-width="1.12597" stroke-miterlimit="10"/>
<path d="M152.271 35.9155C152.271 35.9155 150.902 38.454 150.578 38.6984C150.254 38.9427 149.757 38.0478 149.757 38.0478" stroke="black" stroke-width="1.12597" stroke-miterlimit="10"/>
<path d="M150.91 41.159C150.144 41.6332 149.147 41.7359 148.268 41.766C146.858 41.8123 146.398 40.634 146.393 39.3812C146.41 38.7047 146.496 38.0318 146.65 37.3727C147.088 38.3002 147.657 39.1602 148.339 39.926C149.057 40.6585 149.922 40.8909 150.91 41.159H150.91Z" stroke="black" stroke-width="1.12597" stroke-miterlimit="10"/>
<path d="M153.913 32.1073C153.913 32.1073 152.82 28.6708 149.606 28.7303" stroke="black" stroke-width="1.12597" stroke-miterlimit="10"/>
<path d="M148.935 36.5989C150.801 36.5989 152.314 35.124 152.314 33.3047C152.314 31.4853 150.801 30.0105 148.935 30.0105C147.069 30.0105 145.557 31.4853 145.557 33.3047C145.557 35.124 147.069 36.5989 148.935 36.5989Z" stroke="black" stroke-width="1.12597" stroke-miterlimit="10"/>
<path d="M155.605 41.8205C157.471 41.8205 158.984 40.3456 158.984 38.5262C158.984 36.7069 157.471 35.232 155.605 35.232C153.739 35.232 152.227 36.7069 152.227 38.5262C152.227 40.3456 153.739 41.8205 155.605 41.8205Z" stroke="black" stroke-width="1.12597" stroke-miterlimit="10"/>
<path d="M153.826 40.6753C153.538 40.4513 153.298 40.1721 153.12 39.8543C152.943 39.5364 152.83 39.1863 152.789 38.8244C152.749 38.4625 152.781 38.0962 152.884 37.7469C152.988 37.3977 153.16 37.0725 153.39 36.7906C153.66 36.4644 153.999 36.2023 154.382 36.0231C154.766 35.8439 155.185 35.7521 155.608 35.7545V35.7461C156.252 35.7446 156.878 35.9593 157.385 36.3557C157.674 36.5798 157.915 36.8595 158.094 37.1783C158.273 37.4971 158.386 37.8485 158.427 38.2117C158.467 38.5749 158.435 38.9425 158.331 39.2928C158.226 39.6432 158.053 39.9691 157.82 40.2513C157.34 40.8265 156.655 41.1923 155.909 41.2714C155.163 41.3505 154.416 41.1366 153.825 40.6751L153.826 40.6753Z" fill="white"/>
<path d="M151.57 35.3656L152.972 36.4647" stroke="black" stroke-width="1.12597" stroke-miterlimit="10"/>
<path d="M148.213 32.4737L148.402 32.4874C148.827 32.5181 149.232 32.6829 149.558 32.958C149.884 33.2331 150.114 33.6044 150.214 34.0183" stroke="black" stroke-width="1.12597" stroke-miterlimit="10"/>
<path d="M154.604 37.9683H154.795C155.221 37.9994 155.625 38.1644 155.951 38.4394C156.277 38.7145 156.507 39.0855 156.608 39.4992" stroke="black" stroke-width="1.12597" stroke-miterlimit="10"/>
<path d="M179.466 93.563C182.08 93.563 184.2 91.4468 184.2 88.8363C184.2 86.2258 182.08 84.1096 179.466 84.1096C176.851 84.1096 174.731 86.2258 174.731 88.8363C174.731 91.4468 176.851 93.563 179.466 93.563Z" fill="#F4263E"/>
<path d="M179.466 93.5627C182.08 93.5627 184.2 91.4465 184.2 88.836C184.2 86.2255 182.08 84.1093 179.466 84.1093C176.851 84.1093 174.731 86.2255 174.731 88.836C174.731 91.4465 176.851 93.5627 179.466 93.5627Z" stroke="black" stroke-width="1.12597" stroke-miterlimit="10"/>
<path d="M179.466 93.5627C182.08 93.5627 184.2 91.4465 184.2 88.836C184.2 86.2255 182.08 84.1093 179.466 84.1093C176.851 84.1093 174.731 86.2255 174.731 88.836C174.731 91.4465 176.851 93.5627 179.466 93.5627Z" stroke="black" stroke-width="1.12597" stroke-miterlimit="10"/>
<path d="M96.3642 25.4229C96.3642 25.4229 78.5666 29.2502 64.5283 48.4798" stroke="black" stroke-width="1.12597" stroke-miterlimit="10"/>
<path d="M174.729 120.638C174.729 120.638 180.659 128.326 180.117 139.261" stroke="black" stroke-width="1.12597" stroke-miterlimit="10"/>
<path d="M45.069 88.7048H30.7021" stroke="black" stroke-width="1.12597" stroke-miterlimit="10"/>
<path d="M40.9043 85.8401H45.9396" stroke="black" stroke-width="1.12597" stroke-miterlimit="10"/>
</svg>
